<mxfile host="Electron" modified="2024-01-26T09:40:35.425Z" agent="Mozilla/5.0 (Windows NT 10.0; Win64; x64) AppleWebKit/537.36 (KHTML, like Gecko) draw.io/21.2.8 Chrome/112.0.5615.165 Electron/24.2.0 Safari/537.36" etag="GH65I0wKS5AiiqrKEXRa" version="21.2.8" type="device">
  <diagram name="Page-1" id="2XWkQP5S-hDbL94sL5Vg">
    <mxGraphModel dx="1558" dy="712" grid="1" gridSize="10" guides="1" tooltips="1" connect="1" arrows="1" fold="1" page="1" pageScale="1" pageWidth="3300" pageHeight="4681" background="#999999" math="0" shadow="0">
      <root>
        <mxCell id="0" />
        <mxCell id="1" parent="0" />
        <mxCell id="OFI7zE9tUY9UPtECGpIP-1" value="Custom Signals" style="rounded=0;whiteSpace=wrap;html=1;fillColor=#dae8fc;strokeColor=#6c8ebf;fontSize=30;" parent="1" vertex="1">
          <mxGeometry x="600" y="70" width="850" height="120" as="geometry" />
        </mxCell>
        <mxCell id="HYz5_1IJxc-w8e_tg_V4-1" value="" style="shape=image;verticalLabelPosition=bottom;labelBackgroundColor=default;verticalAlign=top;aspect=fixed;imageAspect=0;image=data:image/png,iVBORw0KGgoAAAANSUhEUgAABM0AAAIdCAYAAAAuxIrtAAAAAXNSR0IArs4c6QAAAARnQU1BAACxjwv8YQUAAAAJcEhZcwAADsMAAA7DAcdvqGQAALDJSURBVHhe7P1fbBTpnej/fybkyt/JmUjd0H2DQ+bCNMT2TCazoyNsGFsimz/nCAjrtTir1epIHA5YQlqt9L1CXPgCcXn0vUAChIj0zVG0LMexwJvszJ6wBwM2393ZSWYFHmhayvwQOxe26Q4ZacgkV/N7nqqn2tXVVdVVT7Xb7vb7JRnc7a6u519V1/Ppp57nleE33vxSAAAAAAAAANR9xfwPAAAAAAAAwCBoBgAAAAAAAAQQNAMAAAAAAAACCJoBAAAAAAAAAQTNAAAAAAAAgACCZgAAAAAAAEAAQTMAAAAAAAAggKAZAAAAAAAAEEDQDAAAAAAAAAggaAYAAAAAAAAEEDQDAAAAAAAAAgiaAQAAAAAAAAEEzQAAAAAAAIAAgmYAAAAAAABAAEEzAAAAAAAAIICgGQAAAAAAABBA0AwAAAAAAAAIIGgGAAAAAAAABBA0AwAAAAAAAAIImgEAAAAAAAABBM0AAAAAAACAAIJmAAAAAAAAQABBMwAAAAAAACCAoBkAAAAAAAAQQNAMAAAAAAAACCBoBgAAAAAAAAQQNAMAAAAAAAACCJoBAAAAAAAAAQTNAAAAAAAAgACCZgAAAAAAAEAAQTMAAAAAAAAggKAZAAAAAAAAEEDQDAAAAAAAAAggaAYAAAAAAAAEEDQDAAAAAAAAAgiaAQAAAAAAAAEEzQAAAAAAAIAAgmYAAAAAAABAAEEzAAAAAAAAIICgGQAAAAAAABBA0AwAAAAAAAAIIGgGAAAAAAAABBA0AwAAAAAAAAIImgEAAAAAAAABBM0AAAAAAACAAIJmAAAAAAAAQABBMwAAAAAAACCAoBkAAAAAAAAQQNCso4oyNjUtZ84ek0HzDAAAAAAAADafV4bfePNL8zsSKIyfluMjefMogdqCXL14S1acB8MycfaoDDQ8h3Zw66Uqc+euyZJ5DgAAAAAAwBYjzdZbbXUtOFbYITn9v/85tEFR9pTyqlyr8tw8AwAAAAAAkAUjzdrAG31WuTktMw/NkyGSvg5pmRF8lVk5f/2BeQ4AAAAAAMAeI83aYPt2fbtmVaqr7uMoSV+HlIb2yoD6r/K4hwNmhYNy8qyeD++0jBXMcwAAAAAAYN0w0iwzM8pJyi3m09KLAJySfTnvdUUZHB+TkZGSe8umUqvMyo3rDyJv3SwMHZMjo+r13gZSlcriXbl3O3obW4Whg7Jf7Wsg583fVlXpK8vinVuy1LSzYN4i6MDPiVHJNYwIM9vWvOeSlIsq86kDvrTFiUqT2s/khIwM5H37WXDzt+OYnDmcl/tXLsh8fact8qjq5szhknqT9ZivzmtjrtriJbl8e9k8AgAAAAAA64GRZll585RVHsUEzLQdktcv1PNuOaOGTskhX2BIyw0clSPjRfPITweJpuX4YX/ATMvLwMhROT51UNo6+GjomNrXaCAolVfpG5VDJ07LxFAwjcvyuFxV/+clH5mQoowdHVX5Lcuc/xbKwqDsVnmqPV91g2pJykWXeaKAmRI2z5m3H1/ATKvnb09JPapKtSHytSzzC2X1f0lGgnWk388JmKm8rccCD14bAwAAAAAAHbOtUCxOm99h4/V35HulvNTKd+RXTz83T4YoDMn+7/TLF1/0SUmPFtMBlp9ekJ+9Ny/37pblRfFtJ3jU94dncu9jf9jFjDLq06PK3pcb//h38r6zjfp58lvZtmuP7Mz1y6sv5uVRW277LMrYn31fdur93fyJXJ75ubsvlcbKi1flG6V+2VnaJduefCBPX5pNlJdfe132q7/1/aEcXg5D/1n+4tuqnBZn5D3/3035ffF/7ZK36+Uyo8pF7zeiXF5+Ir9y0qR/fiuFA3vUdgty9X/8WN6vP29+PvxEfMlUVHn+zfdkp/5VbTP30x+bOphX+Su6+dMRKpWOheC2q1XZ9i2Vnt2vyou7S+IWt/d+Kt3/I26kYQYqv38s6uBinzvq7he/CeQJAAAAAAC0GyPNMirk3RFPtWr87XKFve7oKWeE1OIlOX/xmu82x2VZurMgNfPIb3DS3Pp55YLM6Nsw/fG0lQcyP+tul8uHjVDLoFaWew/9eVqWlYfX5PK5S05a1m5bNB4+kor6L7d9h/u4wbBMmFsXbwRuK/TKr7FcvNdEl0tdyhVJ3fJU9C2iFxtvNXXyd1OPJlNC3y842kzfsqnfryr3r6xTwMxYun5Bzp+blssxt+8CAAAAAID2IWiWUbpFAMRZOTNuPirnNsW6YSk5EZ6SHDqhJ4EP+dFzhDmvbZdlqTpRuFE5MjkshabbLZdD5jTTVs12O5puFS2MH3ACVZWF5lsX18olfp6uxnLx2eHeYploEYDCQRnRCdGj0vy3iIaIfL+H83Jf5TM3MiZjk3qOMx0wCwkiAgAAAACArkbQLBMvqBWc/yqo6M5nJmUpP3SeaOKNRGsYsWZWhey0peuXZK5SdeYSO+4E607LxPhwi3nTvGBbSfb4X1g4KEdG8qJHds005d1fLuEBs9By8Rn05h9LcGtq/b3KS5GjtdyRb3HvtzbabJ+qnMpNAmYAAAAAAPQigmZZ2CwC4D7RJGzEmnfroh6dpm/Ni/tp72qKy+7tgFcuydxiWWreggNO8Cz6NtClxzqYlJd8/Q7NiMn/6+zKZY0XdGsVtHR57/XkUVRZFWVPyewv8v1UnkZ1oA4AAAAAAPQygmZZmFsDI28d9LScdys++NP2+cqSWlmWpdt6HrNpOX9lVio1HTybkLGoIWer1cb51YbGZJ/KV21xPjyo6I2ksyyXetCtZdAyqdZBvEHvlsybqjzU44HRNq9cCgAAAAAANoUeCpoNy8SUO8/XyZjRUO2UdhGA6Hm3woM1K9Wq83+uNBgZmCkMFdsYtFFlqOcxM48arDyQGee2RP9IsoCVJXmi5/ty0mtGZIVM/u+pj6RLWS51XjAylaj0F9cWCYgI4g1OTssh75bMhw/k3qKqn9yo7B8yL1gXnW/XAAAAAACgh4JmTsDDRFDigkztFH/r4JqWrzMjrprm2jIrUurAzPGpgzLoy1ShMCxjk6fl+OFTbQvaOBP263nMpk7LRDAYp/Y30fK2RG9es7zsGZ9wRpmFTf7vsS6XoIEDMqbS63HLRpWXeex5/twNQg4cPtZYlkMHZWLqlBMQ08JGDhbGTzt/ry1eqs/NtnL77rqPNtuIdg0AAAAAAES2FYrFafN7FyvK3gNvy84+8/DTD+X9j2PDLG0wLAd+tEdy8kw+em9JouNmXtqiX1f41pi81d8nn370c3nU8IIVefSiKPv1PFt9/bL7O2Oy/4D789Z39sjOXJ/UKrPyv2+vyEuzRRYvn34glW2D8tbuvORKb8tbZl/Oj9qf2p3oCf1vxOzvlR1q+/5+2anyo197Wb02XJZyMV7+Xr72Lf0efbJTpbexbPrllRfzDdu9fPoHKRzQdZZvLMtSv+S+KMvcRyK7+38v//aP/0ee+jJYGDomx7/b7+Tn//nFb8yz2orUnPIqyTe2leVXTz83z7fLRrRrAAAAAACg9chIM3dFQz3ISWplmbsTdbtfG63zIgB1D6+Z+cTcUVKeWmVB5q5My+XrD+JHYaW0clsvADAr9yvu/GSemtp/5eYludpifyuPTD1ETv7vyVguDlXvFy85afWr6TagyqZ5tc4HMmPyVufl6+I1kw61P18GnYDZYfc2U533IG+0WW5krGlkW3Yb0K4BAAAAAIDjleE33vzS/A5kVzgoJ0+MiixeavOKngAAAAAAAJ3D6ploHz3v2YlRycVM/g8AAAAAANANCJrBXsE3+f6QHmGmV5+syv3Z6Mn/AQAAAAAAugG3Z8JSUcamTjkrZPpVbobNJQYAAAAAANBdGGmGtoiefB8AAAAAAKD7MNIMAAAAAAAACGCkGQAAAAAAABDQ1UGz/v5d5jcAAAAAAACgfRhpBgAAAAAAAAQQNAMAAAAAAAACCJoBAAAAAAAAAQTNAAAAAAAAgACCZgAAAAAAAEAAQTMAwKZRGDooJ6eOyaB5DAAAAAAb5ZXhN9780vzedfr7d8mzZ0/NIwDtNDh5Wg4N5KVWmZXL1x+YZ7vY0DE5c7hkHqyp3JyWmYfmATZUYfy0HB/Ji9QWZG72liytmD90sZ47jrCJFFX7mpCR5zNy+fayeQ4AAADtxEgzAM0KB2VEdfS1XG6HFJzfulsh7+anUVnKBMwy08GuM2ezjQ4bnJx2AmY6uHT14voEzNqRzlR68DjCZqIDZXnJjZySiSH3GQAAALQXQTMAzVaW5ElN/1KVSnlJemDAj6zcviDnz02bn0tyX+evVpXn7p9hrSh7Snp0mH1Z6oDZoQH1FouXnNFY69PesqcztR48jrC5LF13z2UDh7mlGQAAYD0QNAMQYlnmL+rg0gWZ6cnbfnZIPqf+q60SyMgsW1nq0V/1gNm6trWNqPNeP46w8VQbWyir/0syMl50nwIAAEDbEDQDsPUM7ZUB9V/lMXNMZZalLAsH5YiZw+zGegeVqHP0qofzzmizXGmQW4ABAADajIUAgB6kVyDcP1qSgZw3j1dVapWyLN6JmCsqYpJ8HczQ80u1HpljJqQeyIsezKPVKgvu/nbo987L/SsXZL7+RkUZmzol+2qzct6ZHF1tPz4mIyMl3/azciPyVr20+2vkTjgvsa9pD7t0NqWvMCwTRw+s1WetLHOz10LrsqDq8oiq+5y3Q31r4OJduXc7/rbH5NuptEz50hJLpfOcSqd5FOTelllNXA/p2nX2dKauB+vjaGOPh2R8abwjMvbuAdmn52tTZXBflcG8Ku+m50L2Z9M+U5/PDNvt7MvTvh5sj1tP585pAAAAW8u2QrE4bX7vOq+99nX57LPfmUcAHKrz9deH35JcX595QuuTvly/7P7OoBRePJNHq5+b512Fb43JW/3+17tqH/2D3Hna+NomhYNy8m+Oyrdzah/mKc3dX1EKX9EdwWfy0XtLsmr+JoX/KN8b7ZcvynfkV1/8R3f7/nxg+z3yjW1l+VVw/7H7U/n7Sn/z/gK++c4PZXeL12RmUy6GP32vqM7wXx/5TmN99lXlSdN2Okg0Jd/9tipH/w7V3nP9e+Stb31VKh9+Ii/Ns2tSblcYcgIRDS+NUivLQug+FVU+P/rTfumrvC//84MEvfy07boN6UxbD9bH0bodD/HtLJ3X5e3v75Fc7RUp/Ol+eVPtz9Gn0vm1orytntvte27n134r9z7216tl+7Q4nzlst7M9v1jXg+1x2+jl116X/SXVhj6dV/kyTwIAACAzRpoBPcWMBslVpXJzRmYeere8qU7b0JgcOaw6bpJgZI/qcOoRM5Wb0+o9zHOhVIfv7FHntrf6iArzvs7ICWd/SnCkjXn/Wq0qksurjrgesTOvttXp1aM1TjnzXEnFG3njWduffs+52YT7a2Deo+m928myXBymDkX9bSEvx3U56VFGdx7IivNCVT5DIkv1utW8/ZnRKY+81yqFYRk7elS1CVWcTfVpu53HbN9yJFWzdCNjsrZrm3Ta1ENA0uOoDcdD+naWkg4KnRh130+l46oe9WbS7Qg+15BW23ZmW++2262VZ7rzi2092JZLCFM/su5zAwIAAGwtzGkG9CLV6b7X0JlflpWH1+TyuUsylyBIUcjr25mqUm0xYmFw0usozsrl62sdRc3Z3009QbVOTuPKge77i+T0bVOqk3f+or7FzUvvsizdWRBn0cEAb39Oh1x1PqP2FzvZe2GH04GtPV+/4Ri25eIyE9ZLSXW286rDbFaUrL9QlU8gUOPur+zU7Yy+ncv/pisPZH7WLc9cvnGicNvt6kxZpp9c31vJsiyP02xo266t0pm+HoKSHkdZjwe7dpbSDnPLoQ786HLQv69W3XT5nzP8x1fmdmZb7ym388oz7fnFth4ylwsAAADWHUEzoKcsS9XpZY3KkclhKTTNCq064P6OWaiEAY3CQRlxeooLzlxLcWrVxuDC9u1ukMAJRMSMimgIbPn2pzvocWInezed/2Ca2iZDuTi8AE8uL7WbqjPdIjCjR6uUnJ5+SQ6dmJYzZ0N+vBFCDWy38zFlmX5y/bQrWWZs1zbpTF0PQckDg1mPB6t2lpIX2Kss+EZKeeXqe8573do+s7Qz23q32M72/GJdD204/gAAALDuCJoBPWbp+iWZq1QlN3BUjjudsdMyMa46jubvrSULaBT2urccxY1iCR9pUzQjeMpSjghE1N/b18m031+jwT36djK9b/dxu2VOpxfUW7zU+pYszawKmZrtdj5uWbYeSdXEYrRflnZtlc609dAkaWBwY4+HpNzAXuN7hZWr+zrf8ZWxndnWe9rtbMvTuh7acPwBAABg/RE0A3rOsuowXpDzV1SncbEsNcnLwIjqODqdxgS3+ZjOXKtROV4n+smj8I5+faSN7iw29Ca9YEJVnrtPNAnroNvvz88EKGL2nVXWdHqBiOjtG7kdcj1KaVrOn4v/8Y9ist1ujRfsiSvveOlGQNm2a7t0pq2HJgmPo409HpLyRkX53yusXM3rfHnJ3s5s6z3ddrblabtd9nIJ8IK8qY4pAAAAtELQDOhVK6rTeFvP36M6XldmpVLTncYJGWsxRCN0VISNwqDsDgsGeCMsIkfg2AZjWgcfko/+WUdR5eKwD0TZzntkP1+SKcvKI1lyn0jOdPCtpG7XNunMHhBMfByt1/EQ285S8m5VbSjDkHKNmTsu87xclucz6+2aJDm/hGhRD+2ar8wN8q7fCFoAAICtiqBZ1xiWiSl9i8m0nEwyWghbkGojev4e86jBygOZWdCTUeclv8N9Kkp9VEuiDnpedu8NaY/Oym9mPp5AB7o+wiJyBE5c5zQq/XqFQTOJd1xAzAQo1nMRAFf6cnGl75ivVKvO/7nSYPStZ0PFpr/ZblfnBUhsmAnkkwUMMrZrq3RaBkh8kh5HWY8Hu3aWkjeKyX/chB1LIa+zb2e29Z6lvdieX9LXQ+bjr0HzCD8AAAC0B0GzLuFcsDtX3vEX2di6CuMHZEDP3zN1WiaCnS3VeZsY1SMRWvFGtZRkxBecLQwNy2Cg0S09dleEy42ckpPj+u9qn7qTOHlaTp44KvtMew0GA+rBhKi4ldcZD8wR9Py528kcOHysIS2FoYMyMXVKDjk92sYOexR9DNXfQ6V7UJVXu9iWiyNmpE6kh4+kov/Pjaq6P9hYNma/xw+fkv1D5kmP7XZBAwdkzFd+7rbq/czjrNrTrpU06bSphwbJjyPb4yFTO0vJC+w1zKmW8DnbdmZb77bb2Z5frOuhXcefZtpIwyINAAAAaItXht9480vze9fp798lz549NY96WVHG1EW7d/HtLIffYpUubE2FcdXRGnE7rqFU29Erw8V1rKLeQ8+9E5wQfXByut6Z9KtVFmTxeUkOjYjcv3JB5us79NpyWebOXQu9Xc7bf/P+VIf3rBntEVRT71fOh+wvKOI99Ip5F9vX4UxfLsbQMTlzuORMPp9oHiOP2S5KTdW7XtmvKX+22zkC56WAsPayxmwryco9W7u2SKdtPfgkO46yHA8Z2llK7n6qDe/lPudPd0xeLNuZbb3bbWd/fsl6vEeJP/48Jt1tPocBAADAta1QLE6b37vOa699XT777HfmUS/7XJ7+sSh7S3np0xfv7/+TrL40fwJ8Xj79QO49+a1s+9p26cv1SZ95vlaryqe//IncuP2blp2ql0+fyYviLtmttndVpbL4vtz7lxUJNrvVj+el8uKr8upX9Gt/L59++mtZnP0Hee+DVdn7gwOys++ZfPTekqyNzXhd3v7+Hsmpdrzw4SdN76d9850fqn1X5cm9D+RpwwtW5JHJ204vbSpfFZ2vX/yz/P6b78hb/dXA/oL0e3xVCrv6pf4WKi3/tvCBfLz6uftEG6QvF1fhW2MqD33y6Uc/l0fRmWi2uuTUe2HXdpUvr97cTvut2R+r/TbXncN2O4c6L31Ylm2qrdTrQ9HleeunF2T+E/NEqM/l1dfHZPfOPvnDk2A9N8vWrtOn07oefJIdR1mOB/t2lo767DnwduC9zHNf+NMdkxfLdmZb73bb2Z9frOsh0/HnKoz/uXxXtdXKL38s/5qtogEAABCCkWYA1gGjH8JRLnWFg3LyxKjkKoycbT/a2eawzvXgjVTjGAIAAFg3zGkGoO2ceYXU/8F5mLY6ysVn5ZYs6kmd9FxjDRNPISva2eawnvVQ8AJmOiBHwAwAAGDdcHsmgPT0KKG/+aF8c9sfpPbUdwuRnsD6P/25HP62nk+oLLd+8s8Zbw3rMpRLKqvVr8re75Rk93eK8uJu1tsItxDa2eawQfXgzNn23X43YMZIQgAAgHXF7ZkA0vNurTMPmzVOGr5lUC7pDR2Tk6NVWZy9JUuUSzK0s82h4/WwtqhFskUCAAAAkBVBMwCWijI4OSEjA/m1TqOeOLt8V+7d3sqdOcoFnUA72xw6Ww+F8WOyvzovMw/tVnUFAABAOgTNAAAAAAAAgAAWAgAAAAAAAAACCJoBAAAAAAAAAV0dNOPWTAAAAAAAAKwHRpoBAAAAAAAAAQTNAAAAAAAAgACCZgAAAAAAAEAAQTMAAAAAAAAggKAZAAAAAAAAEPDK8Btvfml+B9ABg5On5dBAXmqVWbl8/YF5dhMYOiZnDpfMgzWVm9My89A8CGO7XZfatPWHLleUsalTsi9Xlrlz12TJPNuNCuOn5fhIvvEcsMXOEwAAAOgNjDTLojAsE1On5czZ6frPycmDMlgwf4+hOxVnzh6TQfO415C/CIWDMjKQd37N5XZIgqbSMYW8m65GZSm36NDabteVNnH9odvtkHxO/VerynP3iS5VlD0lfYxUpbrqPqNtqfMEAAAAegZBM0tO0OTEURnINXYEcgOjcujEaRmL7U2bTkXXd46ikL9IK0vypKZ/qUqlvCQrzpObw8rtC3L+3LT5uST3dToT5NF2u660iesPXa6wQ3TMTGqrXd6uvOBfWR77MrKlzhMAAADoGQTNLHi3njgd55uX5KrXEbiiOgIV/Yq87Dt6MGYUitep6PbOURTyF21Z5i/q9nJBZm4vm+c2I9s89nrdd0v9odsU9pacoFnlcZff8pso+Nfr5wkAAAD0CoJmaRUOyhETMLt/RXWcHy6vXfSvqA71dfMNeq4ke6KiZkN7ZUD91/Wdoyjkr/vZ5nErlA2wDrZvdz9X/Lc0dqUdeSdoVnsekxHOEwAAAOgSLASQijdRs7rYj5m82BuJVlu8JJed0Sh67rMDTbdyhmv3JNBFGZyccOZhcr79V2qVBVm8c0uWduiJmfNO8G/ei/wVDsrJE6OSq8zK+dBJzsMmq25D/goqne82plPf3nN/YV7mHwZH9Jg01FQa74iMvXtA9ul5pvTrZ6/JvEpP03NNwxnSlEuG/EVMfi21Bbl68VaiURaFwrDsUfnZHUjrjetx26es9wC3DUvsa8Ik2y7hhOct26KNlOViVX/tyV9B7fvIaEly9QOiKpXFu3Lv9oPIei8MHZT9apu1tlpV+Su7+UtRj/HakL9Ux7tidV5qh2zHUXLB9Kv9jo/JyIg7+kzTC0/cUHmPanPp0mn2p8+hTnm2b3/P94YsAhBgc36xOh6C+9HzkB71nctVm5tTnw/tOzYAAADQaxhplkZhUHbrC3bVYb4XM3nxSrXq/J/bvsP537ldJVHARWnnHC+6o3n2lLPSX72foXjzrk3s0cGAqlT9HYaWowS822p86cyYP90ZOnmiOZ16tN6+w6fk5HjRPOExaZC9MnHiqBsc09Trd7+r36vxuX3vDru/e9KWS4b8hU9+rV6WaD4s3TFVnT6Tn2Baj5+NmDvPpt4D6qNeUnYmk223LI/L+hjJSz7yHmbVqT86qtKvOrWhQRILseVyLLRc7OovTf6qcv9OMH86SDstxw/7AwRaXgZGjsrxqYhbv9VxdPzwaCC4q/Lq1ftQ8Diyla3+0h/vis15Kas2HEfJ+dLv7dcXwNJyA0flSFjZ2KTTfJY55dnW/R2T/c4iAPET/Kc7v1geD4p/PzqA1jQPqX6/ttQfAAAAehUjzVJwv7WO/wbdoTqFzuiU0FERqgNwVl24pxhpZMfsR/+q9jU3uzbSxPnGXndA9INAOlrmUXeYYkd8pMyfV1ZK48iGokrLmEqL2+FrGJHgpUH/rra5qrfxvU/Tcw1ptSuXNRnrz6SpZRvSQQdn5In+Xc+dNyP36rcC+0aFNKUja/408x6RdRwlxXamHNZGYwa0+ntqa+VSH4GTulyUpPVnnT8vnWYUzSPVjr3EFIZl7OhRp000799rL25b0beNe88XhsZM/gLHURa2+TPPa4mPdyX7eSmtdhxHKZj066CZ5PLquPaPgNLBcx2kUr825c8ynV79NOxvXm2r62od9tfAvEeiurI9HjRzTIhKy0LeCbo5be6O9x4qn0MiS2EjGwEAAACDkWaJhS+jHyd0VESHVkgbnDQdG90xUZ0Xr2OjrTy8Jpdvlt0HgXS0nFen1YiPVPlTHSLVkdF0p+dyvQOtLcvK7WtyddEd0bJ7r2/Eg0mD0zHztlmtirOoof85w59W23Kpy1h/7sil1m2oMD7hBsx0fvSk8/WAmbYsS6psLl+ZdTqt/nRkzp9m8hg9qidCmu0ePhK9ZkZ9NGYD0y5U3m+0JWC2Vi6603z5enS5tBoBmLT+vPYYnj/VmR8Nz5+bzrLMXdELDfgCBNrKA5mfXXDfNx8xaqxWdoKra1S70fk7d8l5z7YEzDSr+rM83pXM56WU2nIcpeAtAuCMaF28pPbpv2VQHe933HoPsk2nN4KycX9eXWXbn3sebs/5Jdvx4I1ILsmRwzrgesltc/X3UPkkYAYAAIAWCJol5l2Aq45bZG/A5XVIatWQC3LTuVvXCZALB2XEiRC4AaQ4jekomluEyvI4Io+Dzq0+EXnTUuSvMH7A6YDp0ShRo3ZWHrmdMH/n3CvfyoIvYOTt1/dcUz1Yl4tPpvozgdeY8nUNy/4RnXbVWVQd08iXqk6jv9PalvxpXgAiqo6jpNpuVapOxe5ourXKaxcN9ZuFr1z0yKY48WlPWn/KypI8icyfGxBtzt+wlHQ6VSf/0IlpOXM25McbYdlk2ZTnqByZHJZC0/1qy41tJbP09Wd7vLflvJRGu46jFNygoHo/HUyMCRQ3BJoypHNtfxEjBQ2b/TlVFRcQS3yeyHI8KN4XHLm81G66XzwAAAAAaRE0S6vlnDnxI9Lczl2CkSoZeKMW4kbNhI6Yqc/ZFjVKwHReY9KfJn/e6JEnj9J1ZsJGnYTt133d2tw61uXik63+vHmLWoxO8Tp7lUepJjRvR/40N4/xcxKFSbedF+QJrDKrOubO6rSV2cjASlrtKpfE9efw8peX7e4ThgmIhuXPrChoa+n6JZmrVJ25qI47QYbTMjE+HDnfUzbp68/2eG/HeSmN9rWXpLz0Rx879TT5Ak326fTvL7wusu2vcbugxOeJjMdDPTgXE6QFAAAAWiFo1m71Dl7YqAhf5y6q19EGrTunvsCePx1eJyNylIAXNIga8ZEmfwlf25Qmb/SBf7uw9zKv8wU5rculLmP9mU5gy9EpLeshXPb8aSaPLYPDQem3W3qsbx3LS74+qCh68vgs2lMuStL6M54/17calqQ05D7W3NvNwib/Xws46NFG58/F/4SPDlqWpesX5PyVSzK3qEdsmYnSneBZxO2cGaSrP9vjXcl8Xkqnbe0lMS/90ceOlyZ/8Ms+neu9v7iAWPLzRNbjwfuCIzq9AAAAQGsEzRLzbkcKjhxpNPiue7tI+LfxprOScgRR+4V3mlqNEih43/xHjvhod/7M3E9KPU2ho7BC9uu9LtGoIE+rzmS2/IWP+uikVvnTvNekKTfNYjtv3i9vPqKhMee2xdrifGePj3qgO74jn7b+6qvoevkzt7fVFmdi5xaLnK8sqZVld847HVC4MiuVmg6eTYSvtJpF2+sv5HhXsp+X2i3JcZRCy3OVbbA+Ip0ty6vN+2uQ/jxhdzzY5gEAAABo1ENBs2FnWXo9z8nJdRhVUb8dSUoyEvH+eoU3Z8UxPXdS2EgQr3PUEf4RIH56ZTQzmXOg4xI2usDjrF5nJvGOHPGRKn9r5ekfiePnnwz/njdyIWzUiekEJhudkr5c6jLWX718W3XivGDEyJgMus80K0Tddpchf1pYWSZhs52Z9ytXGlR5iZ4cvz2aJ5d3OCvwmXmRWnTkE9efp2Gy/LVRWIsR+asH2ZzyCFcYKob8TZ379Dxm5lGDlQcysxAcEdYmqerP8nhXMp+XrGQ8jlLwbnuMHsEYF4xKn876CK4O7a9BivOE/fGgJQngAQAAAK31TNDMuWDXF8lK3EV2Fu7tSOr9RyZkQl2s1+mO96TqvDmTt1flfmBFwyYDB2TMt33B2f5gdIAkJfe2MLWbw8dk0FcQhaGDMjF1yg3sKeEdl7zse9fXAVdp08FInbdKxX3fuPlqHAnz55XnwOHTicszbNRJ0ueylYuPVf15Ix8ag66FoeGGtDi8SeTVaw9N6bT6y0Z3Tk/LmRNH5UggeNu2/Cn6GKq/h96nv35ipNtubd6vPZGT42e3dtyekpPjurxVR9u0sZOqHJ1AjRJ/22WK+qvzTZZvRmFVbl6LHoVlgmx6Mv/jU6o9+evQOyYOn5L9gaCTM8G+nsdsyj2OGpKjtpswo7faL1392Rzva9pwXkqoncdREnFBQYcXaAqMXrZNZ6f3FybRecLyeHBYjTQGAAAAmr0y/MabX5rfu1hRxtRFu9f5dZbDb+OcSH46YHFowA3INKuqTrFepcs8bBJIZ4Ceu6U9ExarDuVZ861/UK0sc+W8HBoRuX/lQuNtYkPH5IwZtdFIdWTVax/v1R3bkO3q0udvcHK63tlq5u7Xvy/39Y3Pu8+pfJ3zAhJeOvzPaZblUpet/pxRMU5goFHodoWDcjJmZbhaRa8EGQwuZM2fFvEetQW5GreSp+V2DWWyrsdteDvT5bj4vJSgXFLWn+G111pNj3xsVYZK5DHoqqky0iuABt8jKm11aju94mHsvi2krb+0x7sj83kprXYcR0lFnavWeGXc3M5s0tnp/QWlPE9YHg/ednoRgLjVQQEAAIBWthWKxWnzexf7XJ7+sSh7S3np0xfv7/+TrL40f2qz1Y8/kMqLonxD78s8p+nO963ZazL/iXkilErnh2XZVtwlO3NrW9dUmm/9VHU0YrdNY0UePfmtbPva9rX91KpS+eVP5MYv/ll+/8135K3+qnz03pI0jAlYXZIXRT2/k5c2tc3i+3LjJ38vH6vy/OY7P1R/e9a8XV36/K1+PO+W53ZVnt4mOq0fre13jarjA2/Lzj5/GsxzX5Rl4cNPxH356/L29/dITu137TnNslzqstXfy6fPVPnuairfe/+y4kuj8fIT+dXdsvP6vHp9fW9qX/d/OSM/u/2geZvM+dP0e3xVCrv6pf4Wap//tvCBfLz6uftEKLvtXn7xH2Tvd/pV/tRxe1Edt+b5dnPb2Vfl1a/oxP1ePv3017I4+w/y3gersvcHBwJtKlyq+jNWv1KU/SWVv76q3P/ptUB7DqGOwXuqDgu7tqty9PajytI5v/xYpTd8Xy+ffuBsp+u+z9deaqr+P9X1f/s3qobaL239pTvejcznpbTacRwlFXWuWuPmrypP7n0gTxteYJPOTu8vKOV5wvJ4KHxrTKWlTz796OfyqD2NAgAAAFtUj4w02wjeN+bR39gDaMGMqJMNGxFijuOWI+kQasPrDwAAAADWD6tnWnsg9xb1HC963qngfCvmFwDR9LxU+hbU2npN/t+aMx+Y+j98tVvE2gT1BwAAAADriZFmmUTMccWoFaBZoSiy4gZX9OThRw7rOdsi5rFqF2cklJ7b6K7cu+2b+0hPJP7uAdnnzE/IaNFENqL+AAAAAGADETTLTK9mOCEjqvPtxc5qeuQFQTPAJzzA3GrxhMxaLKjgTSZP0KeVDao/AAAAANhABM0AdEBj0EVP/r04e02WOhKsag5sOxOYlwOjzxBjI+sPAAAAADYGQTMAAAAAAAAggIUAAAAAAAAAgICuDpr19+8yvwEAAAAAAADtw0gzAAAAAAAAIICgGQAAAAAAABBA0AwAAAAAAAAIIGgGAAAAAAAABBA0AwAAAAAAAAIImgEAsMkVhg7KyaljMmgeAwAAAFh/rwy/8eaX5veu09+/S549e2oeAQAaFIZl7N0DsnsgLznzVK2yIDeu35IV83irGZw8LYdUedQqs3L5+gPz7OZWGD8tx0fyqvIWZG72lixt1crb9IqqfU3IyPMZuXx72Txnoyhj6n32qXa6pixz567JknkEAACAzthWKBanze9d57XXvi6fffY78wjARisUhuVP/tOfy/d+9EP53oEx2a9+9hZ/K59+vCIvzWu6mQ5e/PVfvi4v7i7Jqnlu0yoclJMnvie7c33SZ57S+nL98ta3ivLiwy7IQwTrelBl8qM/LTnl0Sc1qXz4yaZvl4OT0/Jfvq1SW5mVv/1//z/5//XCgdSzPpcd3/qhfPvbb0vhxbw8sjrAijI2dUr27fQftUqtLAtd0F4BAAB6DUEzAG2gR1j8V/kvf/od2dkUpNkjb33rq10RoIhXlD/5wQHZ+UU3dF5Vx/uvjspuVRFOsOXi38n7d+flnvqpvCjKq7+fl/mnn5vXdpsM9fDy9/K1b70tO/uqUvloXv51k5eBDpgdGlB1uHhJLv/iNwRMusDqx2XZptrYm98u2gXXh/6z/MW39ajCssz99IL87D33uL1HwAwAAGBDMKcZgIzckRH6ljeRqlRuXpKr56blvPNzSeYqVZHcqBwZL7ov71o7JK/vcaytbv5bGwuDslun1dyC6E/vysNrMpPp1rGNlqUelmX+om6XFzZ9GejRdPWAWVfX11aj2thCWf1fkhGLc14h755H789e4zZcAACATYCgGYBMBidPyT4niLEgV3Uw4uGyL5ixLEvXZ2RucVZudHvHf2ivDKj/Ko8t5sHSt0qenZYzZ0/LWME8t44Ke0vOHGZWad3sstRDt1Dt5YiZw6zrj5ut6OG83K+J5EqDku5wL8qekjvK7DEBMwAAgE2BhQCAXlQoyuC7EzLimwBed8TuL8zL/MOwTriZR6c2K+edydHV9uNjMjLiBl80fZvfjcCoJRk6JmcOl9QvdpNUuxOci9y/ckHm9RsXhmXi6AEZyOnRFoq+RSlixEVB7fvIqEpfPYNVqSzelXu3A2kMSL6dSsuULy2x4vKv3ufsUSfQo63PyKGkaQ2k05n3bFRyqm7deg8y7SIXzJ9le/HR89/tSbRIQYZ6qLfPAB3gvZhgMYROHUcB7m2Z1bXjIpRvX3fEWfDBmThep08dM/Oq3JqeC3kvm+NIr+S5X22zVidVla+yLN6JX6TAdjunHPUE+4G24my3Q9dxPqKsbLezKxe/pnNbIsH2AwAAgI3GSDOgx+jO3skT7u2S9f6elivJvsOn5GTYLUPmdr7a81X1ux4Vpbb3dfS13MDRplssB/e4AYnKzaiAUbzt23XnuSpV1anUncwzJ442Bkd0Apo6nDqIMi3HD/s7tFpeBkaOyvGpgxGjO1JuV9ihXudLS5xaVZ6bX5vo9zG/rps0afXb4bYRp95DebdCBvJn2V5cOpBxWo6rutYBncZtRuV4cDRehnpwb3VrVisvtQx8dPI4aqC2G3GG0t1tEWwxdSN7ZcKUpUOlb/e7Ou2Nz+17d9j9vc7yOFLlcvzwaCCIqcpI1d2hE6dlYigib7bbeeUY0lac7ZxzkHsOaRC73bHo7azPL41WqlX1b17yO9zHybh1Gn08AgAAoNMYaQb0EtUx9UbWNI5oKUphfEyOqw687ig2jX4w29Vqev4x1cl0RnjNy9KKHk2jgxy686l+bRiRpDqXzgiquFFWccyoClmQqwt5p5PqpPmOSrOTNrXfIZGlhhE93j7NqI9H3muVwrCMHT3q3CpauTktMw/N8w7b7Txm+6QjlAJ0kEh33pOMMsoueVrd0TD56HzrwEPYSDSr9qKZOneCEaoubs7IvfrtvGo7b1RWZNqz1YOX7uh6Njp6HDVKPELJqxv9u3q/qzqNvnQ3PdewT9vjwas/t+70rdje84WhMTmi9pMLKxfr7bx0KqrO52bXRqQ5I8Gc7ZSm9rC2XX1kWartbM8TPqZ+JM3IUlNXid4fAAAAHcFIM6BnqA6f6nBputPVOAH8sqzcviZXF93RD7v3No7q8EbkOCN6VCfv/MVrpqOvLcvSnQWpmUd1Zm4pqTyyGmW2NlKmpDqxOnCjOpc6zfVEq/0GboEbnNQd2rLMqc71jL5Nai2DIisPZH7WTWcu35g/2+3qvNFilosALF2/4CyMEJyUf12kSGt9pF/kQDN3lE5w5ItVe1EK4xNuwEwHK8Lmv1Nt9PKVWSc4Epr2jPXgTbIemV9Hh4+jBinmtDJ145Sll8bVqvv+/ucMfx1mPh5U+nSwc40ql4eq7vTCH02BL5+U27npVHTA72LjLZzOdjf1hPtKoD142+mA5+Xr0dsFRxxmLhdrOnh4UE467a4sZQJmAAAAmwZBM6BHFMYPuB1F1VmPGqWw8qjsdvq2N94z5AZPdJAgflSEv+PtBQiabyXSozX0pPf+n2MyaP5a5wVAcnmp3XQDKPGGpeT0oEty6ETw/c2PN/Kmge12PiZA0RWTz7e85dJTNLdeRgdovNtva9XGurFpL7oe9uvJ7XVQIm6U2MqDhiBHg0z1kCwg1enjqFHylUG946+y4CtLr3x8z9WP03odZjkelqXqZHxUjkwOS6HpPsXliLqz2K5gblM1AcA4De3Bt50eIRinsV234TyRlh6N5rz3KefWVT3azvZWdwAAAKwPgmZAj/BGDT15FN1ZD2eCJ84Ih/BtvdUYg8ETrek5LxjmFzYazQvuxAQnGngj29Ky3c7HDR61GqG0OXhpbdkOzPxb0QEar10E823ZXrx2YT0yMWs9JAtIbdRx5DBl1DrguZZOf1mElY/7Ot/opYzHw9L1SzJXqTpzsx13gkunZWJ8uOU8X2m3q5dVzPxzYSMHbbdrx3kiNXMO9NQqd5OdCwEAANAxBM2AnuALcMRFBEJHIXnBhOjJ7MM66J6mW5VWbsnlc9PO7Yjnr7i3M4UFARIHd4z6yJqb5r1jfvyjfGy3W5OwbDeFFGkNbQt+XrsIjsyybC8t99dKxnowQZH4UWobdxz5RQbV6rxRUf50hqXdvM6XpuzHw7J7u/GVSzK3qEfcmQnynSBY3G2L6bbzyir6/GBGDgbqyna77OUS4LWRuLp8eM19T1Um9yvqXDpwVCaGzN8AAACwKRA0A7aMooyN6kBVoCPnjbBIMuLI9wJ3dbjmW9QaRHYc7QMgtvMJ2c9DZIIhGUZIdU7rwI3HCxJEdeoLUe3Csr1kl60e3PyqNNnG7Oraexw1MMdLS6Gj9kLKx3tdSJoyz8u1suzOQecEfWalUtNBsInGlU/D2G7XJHlbb1AfYRm+XbvmK3O/FEg4P5kqk3lnvrt2tE8AAAC0E0GzrjHsLIOv51U5GfttPrYmM2eQlKQUMVLBPwn7PV9Hrj7CInIETkTn1Jt0fOBAZIc3uuOYvsNbD9KVBqNv6RoqNv3Ndru6sNtNE+vwcRsTJAmKG/XkrOBoJsMPjgzL2l5yI2PN89t5CjG3+WWqB19+YwtmA44jP6+MWgVuwka6maBdw3Mhr7M/HlRb1vORmUcNVh7IzIKeXD8v+aYYuu12WtTzeiVSs0hAaFtvXqTB4ayAaeYlC2yX+TzRoHmEXzKt2icAAAA6jaBZl3A6CM6VfvxFPbaupcfuinADh0/LhOrc1emO4uRpOe5Mwl6V+4GVCVveMuZ1xoNzBK3cksWK/iUv+04E9qk6tYWhY2ZC7pCOY4rgTt3DR+LsLjcqx6cOyqDvICh4eTx8SvYHgx222wXp4KAvj+626v3M4zCdPm69+Zzib0H0U3X3ri+gofKkg3y6rVQqbhAhOBLNvr0syRMTkDo0dUzVg7+N6iDIaTlz4qgcaRVctKiHtVFeJRnxvX9haLihPWgdP44shI0STPqc7fHgLJCg5yObcsulodh0uzGj74Jst3v+3G1/A4d1W3F+dehVJiemTskhXZhKMKjr1V9u5JScHNf1q/Zp8nVStS8n4Kk0HSPtOk9opq4bFmlowTl2UwfZAAAAsN5eGX7jzS/N712nv3+XPHv21DzqZUUZU50E72LfWX6/xapg2JoGJ6frnclmqqN/5YLMN/TivLZVlrlz4au2OaOOdBDl5nTIJNWBthlCT/TfNAfQ0DE5c7gU/rc4ZrsoNXVs6BXzmjqqtts54vMYXi5a549bt/7D6jlEZJm42z/eq+tdAu+Vsb3o1QJjViCsVfSKh1GBBtt6cHnpCgrbrvPHkce8jyzI1ZgVRsPq2X3Ov/+YNFkeD1FlWKe20ytdtme7YZk4a0aTBdVUnsp5OdTUPl1R9afb1+LzUuR22c4THpNuvepn3CqxDdy62l1OeT4EAADAuttWKBanze9d57XXvi6fffY786iXfS5P/1iUvaW89OnOwvv/JKsvzZ8An9WP56Xyoijf2K7aSp95slaVykfvy42f/L183NRuXpe3v79HcqpdLXz4iYQ1q2++80PZnavKk3sfyNOmF6i2+WFZ7fPVxn1KVXUwfy23Zn8s7y19bp5bU/jWmLzV3yeffvRzeRQ1MifM6pLce/JbKezaLrm1nTmdYWdfH6yE5sF6O4ebx23FXbIz59tWldmtn6qO9yfmiSadPm7Vvg68LTv7nslH7y1Jy2JVZfKiqOd38vKk2sniWjtx6z34Xhnby8tP5Fd3y2q/uySv9lsvTfV+9385Iz+7/WAd6sH18ukzZ7/B/N77l+a67/xx5PlcXn19THbv7JM/PIl6XVg9m+e+8O8/Jk2Wx8PLpx8422372nbp89VfTZXNp7/8idy4/ZvQIJHddivyyGxTr29dB/r1v/hn+f0331HnkGpoW3fr76vy6lf0dr+XTz/9tSzO/oPK16rs/cGB6GMk03nCVRj/c/muOrdVfvlj+deWB6FH19V2+fd//D8xbQMAAAAbgZFmAABsFt5ovA6MTNx6bEaBpeCNVEtbd852EjlKEQAAABuHOc0AANgsvLkCYxbYgB1nfjX1fzvmlQvSczg6ATMdkEsZ7HTnnitJiUV+AAAANh1uzwQAYBNZrX5V9n6nJLu/U5QXdxPcaguXHqX3Nz+Ub277g9Se+m6l1BP5/6c/l8Pf1sGpstz6yT+3tUydOdu+2+8GzCxGsL382uuyv5SXXP/bsv/AmPmh7gEAADYDbs8EAGCzGTomJ0ersjh7S5bafh9hj2qx0ET4Ig5ZrC1OkWyRgCh69dgJOTTgXywhZAEHAAAAdBxBMwAA0CPcANTIQH4teKYXECjflXu3bYNa0Qrjx2R/dV5mHrLqJQAAQC8iaAYAAAAAAAAEsBAAAAAAAAAAEEDQbBPTI+l6Gfnrbr2ePwAAAADA1kbQDAAAAAAAAAggaAYAAAAAAAAEEDQDAAAAAAAAAgiaAQAAAAAAAAEEzQAAAAAAAIAAgmYAAGxyhaGDcnLqmAyaxwAAAADW3yvDb7z5pfm96/T375Jnz56aR72H/HU38oeeNnRMzhwumQdrKjenZeahebAZdEs6YxTGT8vxkbxIbUHmZm/J0or5Q92wTJw9KgPqt9riJbl8e9l5tr6dlGXu3DVZcp5FGoOTp+XQQF5qlVm5fP2BeRbrXy5FGZs6JftytF1sVpx3kUZRnTcnZOT5TL2tAOgejDQDAKRWyOtOQVBZypssENUt6YwyODntdMB0cOLqxbCAmVLYITnza626djG+fbvJe60qz93fQhUKwzI2eVpOnp2WM+bn5OSwFMzfu53uxJ45azFKr3BQRgbcMszldvRMeWRmWS7p6mGH5HWjbtF2gQ2T8byLrUa3kbzkRk7JxJD7DIDuQdAMAJDayu0Lcv7ctPm5JPdr6slN2EnolnSG0QGzQwMquXoUw/UHEhYvc+xQF+LOL/5gYNENOii18lLEtvqb79Ny/MRR2TfgvYcrN3BUjk8d7IFAUVH2lFQn1qbOV5bkiW4vUpVKZBluQVblkrIevIBEbZVyx+Zkfd7FVrV03b0GGTjMVAtAtyFoBgDIyBsVstk7uN2STndUTj1g1uJWjvpouoaAhMmr4h8Fsca9/U3fYucEP25ekqu+4OJcpSqSG5Uj40X35V0rS50vy/xFXR4XZIbbaXxsyiVdPRT2lpyAROUxt8Ric7I7764pjB9jnsotR507F8rq/5KMdP1nK7C1EDQDAGQztNeZ12XTd3C7JZ2Fg3LEzGF2I0WwJnxkQ/itqIOTer4o9Yvax1Ud/Hi47Nt2WZauz8jc4myq/W9K3VLnvS5lPbi3uFWluuo+BhJT50/3VvPTMtaBobJpzruN8pIzATZsIQ/nndFmudIgt/wDXYSFADYx8tfdyF9v0fM+7Xn3gOz23cZWqyzIjeu3okdOFIoy+O6EM/9P/dq4Vpb7C/My/zAsGGEmv67Nynlncm21/fiYjIy4oy40PbfVjYhb9fQKi/tHSzKQM9+Aq05nrVKWxTsRc2F5UqezkTvxscj9KxdkPm4/PoWhY3JEpXWt01CVyuJduXc75jbEjFKn07pc9G2PjdvptuLUww69MEE+Ng3ubZnVxOkMfb3uOJ4YlZxqL25b8qkvjmA3UXVTOapjY+LogbV2p8pobla9b0jabes9+XYqLVO+tMQK5D9i0QgnsHgx5jjPeNxmbS+tRU2qr/Y7tEP9vypLDe3ZTHDutR2rcslQD03pTVueafjq7o7ImDrH61uVneNcteF5lY+m50J2atOubc/X1ud5XY5W7cy+fXb+PL82Ob+WZKSurdTn3QD3PFq1Oge3RrvezO3arft010wANta2QrE4bX7vOq+99nX57LPfmUe9h/x1N/LXK/SF1X+V//Kn35GduT7pM89qfbl+eevAoGx78oE8fWmeNPRF1V/+xffl24FtpC8vO0tvy95tZfnV08/Nk0bhP8r3Rvvli/Id+dUX/1FO/s1R+XZ/PrDPPfKNsG3V/v768FuS62t4tZPG3d8ZlMKLZ/JoNbCNYpXOgG++80PZnXsmH723pLrfrejO9JR899sqX407lFz/HnnrW1+VyoefSKA42yJNOq3LRXeadL2FtJXd3ylK4Sv6QjsmDWr7H/1pv/RV3pf/+UGyq+kd3xqT3fJr+d/zvnJ79XV5+zv98unC36l6N88Zg2MTqhxEKjfVBbvFSB5/Ob6iLv7/+sh3GttdX1WeNOXPtt5TblcYcjpeDS+NojqLC75tC6oc3+pv3rL20T/InbhjIMtxm7W9JPKq7PqTt2Wnrpe7vvcZ+s/y3w7vl93b/9BQhoXxP5fvqnKomLZjVS4Z6kFEtd3v75Gcfv7fX5e/TFOeqXn7ekUKf7pf3lT14FDHed/XivK2em6377mdX/ut3PvYf1xatmvL87X1drHtTG33lf7wdmbdPjfoPK/bnTrvebv84t8/bEMbCZf2vBv06jffUcfV7xuPybahXW/mdv3ya6/L/pL6zPh0vmU7AbA5EDTbxMhfdyN/vcD9tvbgTn11VJXKzZ/IjZmfy/t35+Xe3bK82Paq5PvVRdauwIWScwHodhj1iIi/vfh39W0qapu3dAewf1dzsO31d+R7pbx88X/tkrf1t5iq0zj30xn52Xs/d/dXfNsJdvT94VngAlel88++73SKdRovqzTe8/b34lX5hro421kK2Z9tOhsMy4EfqYvzyl35WUOawqgLTj0KQKdz8X258Y9qf+/p/amfJ7+Vbbv2yE510frqi/W4kEyRTutyUfn7m+/JTvWb/sb61uyPVd25+au8KKp6KKn86T8GgwRrCu/8UEZUR+r+7N/HlLlfUfYeeFv6yoEAhtOWqrI403zR75SDlEP+loS7v51fqDz88R05/t1+t4xmvbpU7fTFU1lq6ODY1rvFdi8/kV85daV/fiuFA7rjuCBX/8ePTR36fgJ18PLpB41/V3W2Xx2Pn3708/j2aH3cZm8vyYQFzbxzhvr1C9U5rL9/Uf7kBwdU/S7IjV+4z1mVS4Z68AIfX3zRJ6V6eV4wZRNXnha8IEsu74wOuqqPdZM//Vxf4DmpPfbt07ZdW56vrbdba2d6dODcT4PtTG0X2s5s26dtubSBand/LA46ASFnNOIvftPYttom7Xm32boGzWjXm7tdv6Laj64ftY/1CuoCaC/mNAOACIXxifh5n25fk8tXZmVu1n+LkrqwMrcyVW5OB1Y9VNurba4uVtXvedm9t3EiWG9i4Zy+PWHxkpy/eE2WVrxbS9T+7iyIs2hdFHUBdq/hNiu1v4cqjXpi96bbAOzT2cCscld73vqyf3BSXXDqW7FUWmb0bQz+9Kw8kPlZN3+5/DpMkJs4nfbl4uZP7UN1SC5fb7ylxKmHm3oCYF1NUauqeSsMluVx+AtCuJOyN92CpPZ3Puy2HzO3lFQeWd4S5E10XZIjh/OqjMzKnvX0qnYauHXVtt4zt5eMKzC6x2PrebVsj9vs7SWDgg4sqM6fs+BDXrabp93n4/eZtFzqUtaDtwhAY3m6f4srTyveCoj6HO8d66tV9/39zxn+80fm9pnqfO2TcjuvnYlqZ+cvRrezYP3Yts/M5ZLR0nV3xeTYFYczS3ne1YGhKT3P2trPcT1vpTqPHvI9p38mhtwtMqFd91y7BrCxCJoBQKhh2e9c1KqLpLj5jNTFkv+iqzB+wL0gU529mYiJgFceld2Lq+16PqE17uTXOlgTPw9Lc+BnWarOG47KkclhKTTNLqs6moEMZElnA3Nx3mqlMF2eJecKV3USTjR2Euo/ei4Y57XrIGE6rculcFBGnA31PHfxc9lEpyHLSo/JeAGe5jakv0UP1knIym5eACSXl9pN1XkIBMia2dZ7G9qLqXO7RQCSBzCtjtu2tBd7g++qslN5K68t++dwnpeqPHkUtU+LwG7Kelgrz5CghE9zG07POx4qC75zvJde33P146ZeF1naZ/rztctiO18704GSOA31Y90+N/g8Dwfteg3tGkA7EDQDgDBecCDliBxv1bfoTmeUohnBo1fdCt/WG4ER1oleun5J5ipVyQ0clePORd1pmRhXF6Dm70H26Ww0uEePykqwUpg3wmmDJE2nbbnU6ybLCJ3Eo+Gya2pDXnv3C2v7XvAxJqjYwLbe29Be3Dq3XYExaQDT7rhtS3ux5nYA9b4bY2amY1i5Gz0axCKwm64e/OXpPNEk7jyYlne8+9MWll73db40ZWyfac/XnrTb2bYz6/a5wef5zcsdmaZHwHk/7ojlssz5ntM/ic6rLdCuadcA2ougGQCE8YIDqQIYXodPXXDF9ShD39vrjFYDHdk1YRfCa5bVhecFOX9FXXwu6pFQeRkYURegzsVn8HaBLOn0M+8Tk2aPeyGq+uM3GzsIYT9xo0vsJE2nfbl4ddNyhE6r91baEQxopekWkpVbctmrgyvubSZh9e51vJIGFW3rPXt7SViXUUwnqfXoKLvjtp3tpTUzksNwR1OWZVGV20pVd9yNJHlOXC6etPWQ9TyYhjd6xJ+2sPSa1/nSlL19pjlf+6Xbzrad2W63sed5uGjXm75de9cQHfisB9AeBM0AoKOKMjaqAw+BCybvm8zIERwJO58r6uJTz7WmL+CuzEqlpi8+J2Ss1Ve9TSLS2SD9qJONme8jfTqjJSmXEGauKH8HpYm5kF5PXpDE7pZb+0CUbb3btxdT55Zzt7mdJJXPVoGZdh23QUnaixXTKWwol7zkC6Zd1xbkXsxIl8TlUpeyHlrOf2bfBpuEjiYOSW9MmjKfz2zP1207z3vnxpTtrEX73JjzPBy0a2Vzt2v3y6fWI98BbB4EzQAgjJk0Nzcy1jyvk6cQvH3AG9FRklLEZL7+xQX8ndP6N5mRIziiLgKHZULPA2IeNVh5IDMLelJb1SluiJHYp7OBCRgkGY1XD9aUBqNvuRgqtriNQ+XVTKZ8MvZb64DE6cxaLhGLJqh2MnbUzHcSF7jz2tx6dji9yaAHDkR2RKIv6NN3RGzrPXN78TqEluqjmVoEZuyPWy1je7ExNKbab1Xu3wmkd0frBQC0pOVSl7IevNun7MozpbCRtGHnipDX2bdPm/O1ZrudFvV8cW0y9dB2lr59tuc8b8vy86HX0K43ebtuHuEHYPMjaAYAYVaW5IkJoByaOiaDBd9Flvp9cPK0nDlxVI4ELs6XHuuLPJGBw6dlQl1E1ekLMrWNu2KW6rQ2rLjp64z6rmkbeBe9gU6tc6uVngdkyt1fw0Wb2ueEGRUVZJvOMPpCctDbsS4b//t5Hj6Siv4/N6rSenDt9UrB2+fhU7I/ZuUw50LYuaKNv3iNkiSdtuXibZcbOaU6bMNOe/HydVK1EyfQpiS/rW2drNySRaci8rLvRCCPqrNRGDpmJkoOuaCPGZkQybbe29BeHDo46Muju616P/M4nDeaqSQjvuO7MKTr1TwwbI/bjWovJR0QDZnEP6+ez5lbNqMlL5cmCevBtjxteAFP/4jKpM/Ztk/b87Xtds+fu539gcP6M8z51VEYOigTU6fkkC5MpSGYoli3z3Ydtxayfj50XlVqzjVGe9GuN3m7NuewhkUaAGx6rwy/8eaX5veu09+/S549e2oe9R7y193IXw8oHFQXUtErItUqegWm5gufwcnp+kVbs6rcb1o+XS9Hf0pdsOlJgcOWq9cXl+qibCTvzKkRnCjY+1ukymzTEvNa+nQGqYvas+YbXb/aglwNW3F06JicORx+EazpJeD1ilbhu/TKyDzUy8y3WP1qTbp02pZL1Ha6nSw+L8mhEWlRpiaPElF+bRMoyxB6ov+muVlM/YX+LY5tvbezvQSEHUd+UcdU43bZjtvs7SU5/74a0uIv4wTHVLJy8UtTD9nKMy23TBqPZ/c5//5j0mTZPm3P13bbRZz7tJrKUzkf2c6s22em49ZWoJ0laMu9ina9mdu1SXfUNRKATWtboVicNr93ndde+7p89tnvzKPeQ/66G/nrAS8/kV/dLcuL4i7J5/qkzzytL8ru/3JGfnb7gbw0T/mtfjwvlRdF+cb2vPR5G9WqUvnofbnxk7+Xj5s2el3e/v4eyan3Xfjwk9D3/OY7P5Tduao8ufeBPA284OXTD+Tek9/Ktq9tlz5fOmtqn5/+8idy4/ZvQi/O0qczaEUePfmqFHb1i9qto6by8G8LH8jHq5+7T/itLjnpLOzarl5fL03nYvXW7I/lvQ9WQvPu+lye/rEoe0sqrfqi+P1/ktWW6fOkS6dtubjbfVVe/Yre6Pfy6ae/lsXZf1D5WpW9PzggO/ueyUfvLUnUIBqdx1dfH5PdO/vkD0+a67l9VFl+WFZpfbUxj3rkQ+XXbl0sNZdL4Vtj8lZ/n3z60c/lUXQmmtnWe9b2ovK4TR27O71KV3S93/qp6hB9Yp6I8PLpM+e4313fVtX/4vty71/8+8x23GZvL8ntUHXnzNWjR5PN+N6zMCj7nYmvVd904e9a1muycvFLUw/ZyjMddS458HagjM1zX/j3H5Mmy/Zpe762206f+9xt6uWvz2X69b/4Z/n9N99Rx3Q1tJ1Zt89Mx62tLJ8PvYR2vZnbdWH8z+W76jO08ssfy7827QDAZsZIs02M/HU38gfAleLbZW904xYeKQFGI2Azo32iF61zu/ZGqvHZDnQl5jQDAGAdOfO2qP8TzcPkzTkWM1E/eluq9gJ0GO0TvWg927WeK9QJmOmAHAEzoCsRNAMAIAs9OuzsaZkYD6wC5k0Q7MzX0mqS9TVLdxak5kzUf6zFhPXoSm1uL0Bb0T7RizaoXTtztnkBM0ZmAl2L2zM3MfLX3cgfsEV4t1Sah82SLKoQMHRMTo5WZXH2lixxld1b1qO9AO1C+0Qv6ni7XlucYn0WvwDQSQTNNjHy193IH7CVFGVwckJGBvJrF+V6YuLyXbl3m4tlBNFesJnRPtGLOtuuC+PHZH91XmYeMioT6HYEzTYx8tfdyB8AAAAAAN2LOc0AAAAAAACAAIJmAAAAAAAAQABBMwBWuDUTAAAAANDLCJoBAAAAAAAAAQTNAAAAAAAAgACCZgAAAAAAAEAAQTMAAAAAAAAggKAZAAAAAAAAEPDK8Btvfml+7zr9/bt6egU/8tfdej1/foOT03JowDxQarUFWbx4S5bMYwAAAAAAug0jzQBkVJR8zvxq5HKjcmhy2DwCAAAAAKD7EDQDkNGyzF+clvPnzM+VBamZvwAAAAAA0K0ImgFor5UleVITqT1fNU8AAAAAANB9CJoBaK/CoOzOVeXJo2XzBAAAAAAA3YegGYD22pGXXK0sj1fMYwAAAAAAuhBBMwBtNbinJLXykhAzAwAAAAB0M4JmANpoWEoDIrUqt2YCAAAAALobQTMA7VPYITn138DoMRksuE8BAAAAANCNCJoBaJ+VW3LjZllquZIcOjEtZ85Oy8nxovkjAAAAAADdg6AZgDYalv2jJWe0mYdbNQEAAAAA3YigGYC2GZw8KgM5kdrirFy9Mi3nz03LzEPzRwAAAAAAughBMwBtYhYBWLwkl28/kBWWzwQAAAAAdDGCZgDawywCwO2YAAAAAIBeQNAMQHvsyEtOqlJdNY8BAAAAAOhiBM0AtEUhn1f/VqXKbZkAAAAAgB5A0AxAW2zfntf3Zspz8xgAAAAAgG5G0AxAG7iLAEhtVRhoBgAAAADoBQTNAGRTGJaxqaPixMyeM6EZAAAAAKA3EDQDkNrg5LScOWt+ThyVfXrZTCnL4m1WzgQAAAAA9AaCZgAyq1UWZO7KNVkyjwEAAAAA6HavDL/x5pfm967T379Lnj17ah71HvLX3Xo9fwAAAAAA9DJGmgEAAAAAAAABBM0AAAAAAACAAIJmAAAAAAAAQABBs02s1+fDIn8AAAAAAGCzImgGAAAAAAAABBA0AwAAAAAAAAIImgEAAAAAAAABBM0AAAAAAACAAIJmAAAAAAAAQABBMwAAAAAAACCAoBkAAAAAAAAQQNAMAAAAAAAACCBoBgAAAAAAAAQQNAMAAAAAAAACCJoBAAAAAAAAAQTNAAAAAAAAgACCZgAAAAAAAEAAQTMAAAAAAAAggKAZAAAAAAAAEEDQDAAAAAAAAAggaAYAAAAAAAAEEDQDAAAAAAAAAgiaAQAAAAAAAAEEzQAAAAAAAIAAgmYAAAAAAABAAEEzAAAAAAAAIICgGQAAAAAAABBA0AwAAAAAAAAIIGgGAAAAAAAABBA0AwAAAAAAAAIImgEAAAAAAAABBM0AAAAAAACAAIJmAAAAAAAAQABBMwAAAAAAACCAoBkAAAAAAAAQQNAMAAAAAAAACCBoBgAAAAAAAAQQNAMAAAAAAAACCJoBAAAAAAAAAQTNAAAAAAAAgIBXht9480vze9fp798lz549NY+wKRWGZezdA7J7IC8581StsiA3rt+SFfM4aHDytBxSr69VZuXy9Qfm2a2oKGNTp2Rfrixz567Jknm2V/VcvQ8dkzOHS+bBmsrNaZl5aB601dZqL4nZ1kOb6q/Xz2ebNn8bUH+F8dNyfCS/jsc4Np0NPr9gg2zJ+vOuMaoqnzMqn8vmeXTKlugfWfQbe92WqPcuwEizTikclJNnp+XM5LB5IoL+IE7yum6g83ziqOzznfi03MCoHJ86JoPmcQO1zYh6vZbL7ZCC81vv0J2qM2cj8t5kh+R1wdWq8tx9onf1YL0X8m5+GpWlvG4X1FuovaRgWw9tqb8eP5/Z5i/dedDORtTf9u36tVWprrqP0fs29PyCDbMl629oTPY5F/N5Gdizw3kKHdTh64lOfE43UXlM3W/sEtbl2evXkV1kW6FYnDa/d53XXvu6fPbZ78yjTe7lq/LNA3tUg39FXtxdkvBr6mGZ+O/71YmiLHMX/yniNd2iKGN/dVR29+lvCGblby/+nbx/d17uqZ/Ki6K8+vt5mX/6uXmtz8vfy9e+9bbs7KtK5aN5+dew13StovzJDw7Izi/KsvDhJ/LSPBupMCT7v9MvfZ9+KO9/3OPfr/Rgvb98+oHT3t2fsmzT+Uta9za2UntJwbYe2lJ/PX0+U6zyl/I8aKnz9VeUvQf0a5/JR+9Ffcaj12zo+QUbZkvW3yvqHKevMaQq92f/Xp7SUDuro9cTnfmcbmTZb+wKGcqz168juwgjzTrmgZQr+v+SlIacJ5oMTh6VAfV/5WYP3FpVGJTd+msCM5TU34VfeXhNZm5HDetelvmL03L+3IWY13QrbyTQaqIhxoW9JeeblsrjrTAUt5frXUtX9za2VnuxZVsPttv1eru2yd/6HwvNOlB/9c+8R9wavWV1+vyCzWGL1N/KLbl8zj0fztNQN0Anryc2oE1b9xu7QZby7PXryO5B0KyDlh6Xnf9z+aLzf4OhY3LIiZjN9sR8CHTgQwztdYOiCcuEW316SMq6t0F7ScC2HjpQf1vGRpRlJ/a5w72dpPacA3DL4vyyNVF/6DUb0KZ7ut+4Fc4R+tZaPb3U2dMy1qP3kLIQQEcNy8TZozJQW5CrF/0TGprn9W2ZURN4F4oy+O6Ec1+zPqk4amW5vzAv82GTcTr3hY9KrjIr50MnDWz3pOEqD1MHZCAXNs+DX2B/EZOpSlMZhdP3iB8fEbl/xXzzVVDpOOpLhyqjuVm1v5A3Kqh9HxlVJ+l6gValsnhX7t1u/IbDXtIy0YL1EKwfVf/jYzIy4n6oaHr48o3AtzF+65+/NYWhg7Jf7Wstr1WVvrIs3rkVWvZZ612Xz+Bk4/GgJwp19rdDv3d+rU04THnWvOMhbXmm3V+jpnbado3t5blTH6OqPty/1tRxsNh0HCQ8B7Q8l9gpqGN1T+rJXjemHhJvZ92uN7Z9JmaVvyznwfZY//rz9hG1CIB3rKm3Wrwkl0O+LV7/83UbjvdNfx2ypifPL5l16DxhNOVr3a/PUuavTe0zff3Z1UOW8kxrcHLa/SI/RNQ5bE2a/LXhvGRbnmmvW31szi+p669N1xNuPltdD27E53TSfQb2Z33cNpaL027S9qsS13uG8sxwHeJI+zndhnJx8uvEMVytzxHdiZFmHWVu0cyVZI8vCtvqtkx98XDyxCln5Yz6AaCp99l3+JScHA8ZudbyW29vqGibJg0v7FAXN0lODo3CJ1PVx/dS6xODUh9do16sP5DOnFBl6U+HzmPTG+mT2bQcVyeltQsyLS8DI0fl+NTB9ky0mKZMmurBVz/6A+Ksqn/fCUzLDRyVI2F136n8eVT7PH5YfyD786ra38CoHDpxWiaGmtOYqd698ggcD+7+jsnEHv1h47aJOjPs2zke0pZn7P5U/sL2F+Bvp+vDtJdKVfJO3a9dIGk5da7QaW389mdZHper6v+85CMbhPowPaouTvSHeujFiQ19gasuHqMme436lmoD6yHpdtbtet3aZ8TxYMkqf5nOg+2x7vWn1PfR9JGrz8f6Al5/xoddSHbqfJ3teO+K6xBH755fMmlD/tLy52vdr89szoNtap+p6i9DPdiVp42im+8ItWpMZzh1/tKcl6py/07gOsS2PC2uW12W5xclbf1lvp5Q7XdMpzXJ9eBGfE5b9hutj9ss11lp6z1DeWa5DrH6nM5ULobOr/m1lzHSrMPcbxrya1FY1cCdiHJUxNz7u9IY6S2q9xpT7+V+IAS/RfH2E7n8tT4wYiP1WaiLntARdQmY/CZbtttEx0XtZyHvXGQ5ZaQ+VFecnaqT3JDIUkNk3aRNlZnzreUj77VKYVh9MKsTojry279seMoyMfWjT6aiTry5hm+g9MlbnxTVr0311+n8mTpoWoJctc+hMTmiL3xD2meTxPXu5U8fD+abRPO+zjfTzv6UYDmb9681lOe82lanN0l5Kuo952YT7q+BeY91OdYM73h2Hrh1cU/VhZMe59tMtX/9x2AavHKJ+lao1d9T89qL/j2QTl0P3rdbTeW5kfWQof5M+bVs1145Z2ifqY6HdkmavzqT3vVKT6gO1F+9Xat6C/tG3LT1tfOjx6u/Dp2vvXaW9ng3z2ub+zpki51fEmtH/tLq5PXZWv7SnAfb0z7T1F+WerApz/ZyR5/FXc9Z5k/9zeq8ZF2e3nkieF5udd1qe37R2lB/phxafh6Y17kC6Yy7Hqwz5Rqaj/WSfJ/Wx63XjlJfZ2Wpdy1jeVrUe5rPaftyaaSDijpY17jv3sJIsw5beVSWmvo/t10v16wOJKeBqwYa2hC9v7sXCY0TI6oD9vY1ubqoGrnkZffexghw/RuNyEC8OjDUf9GR+gy8iLPFhIduhD0m3Q3MtwlSUh9y+gSqPlB1GdV3utz0AeSO6lPlrU4aM3qYvz+BKw9kfnbBrZ+weeeySFkm3r39zjcV6kLh/EUvYKapfN1x0xm0YflTJ1n9IbJGtc+H1+TyuUtOWmIDZkrSevdGZeqT8uXraxdImrO/m+68gcFvZLxvbhrL00tvq/JU9IeF+rCL2l9svZq6X5djzfDai3NxqCcLrX+gK6reZ0y9S3C56oePxBn86pyPgsz5R73njbYEzFQ6xyfcC4+wdOp6UOe0y1dmnYtff3luaD1kqL+k7Tpr+0x7PLRLuvO1kuGzwVoH6s/7prZhEQBfwExfpDYHzDbgfG11vHfPdchWO78k1Zb8pda56zPb82Bb2meK+stWD+nLs7280WeqvJoT57DO32rVrdfQ81JRxkbDr0Myt+uU16225xdX9vpLez0Rms6460HPBn5OJ9mn7XFre52Vrd6VjOWZrN7tP6dtyyVo6foFOX8uuO/eQtCs01aW5IlufQN7ZWz8gHPCj7wt0/xdf7sSFV1uDMJ5zIeb+kB4HNFyB50hy+olccOsbVlfCBdlT0kdtDHpbuCdiNSBXrvpnsjiDUvJ+YTVQ5P1ZIUhP04nZx2YMkk6CaT7oWBOfjEBi8Yy3oj8LUvVaYCjcmRyWApNn8DqhNuyLhPWu+qEjjgHhJ4/IL4cg+16rTyD31Q2aihP3/6utthfbL16x8N6HGuGdxFxP+pDe2U14kNv1dRf88WTd/6pLES8Z2rDsn9Ep1N1itQFbuR7qou6hjaz0fVgXX/Jz2dZ22fa46E9Up6vtZTnwbboQP3V92HqR49ycM+18aMyOn++Tn+8d891yFY7vyTUrvyl1anrM+vzYJvaZ9L6y1oPqcuz3SJuefNkyZ/XLwo9L7kBi6brkEzlaXPdanl+8WSuv7TXEzbXg4Zp0209H7QS+AyNZn/cWl1nZa13LVN5Jqt3+89p23LZmgiadZx3/35J9ukDsRK9WqZ34nvyKOXJ1fvWOzKq7fvGaB2OAfeEZZHu+odywmi8d5KNOUk0MKuXbASvTJKVt1c/ZSlH5MsbWdTwobBB+Vu6fknmKlXnnvfjzsXuaZkYVxci5u+tJav3ep5jRs2EfyPjL8/wNhlWnvb7a+TWfXRdZuc7nhMdOH7exWPjPIv6gvRIi/NTat5Fo380TgIbXQ/29Zf0fLax7dNeyvO1ku482B7rX39eObv149w6Yr7xjb3Q3ZDzdfrjvWuuQ7bc+SWZDTtPdOj6zDp/bWqfSesvcz2kLc92M8dXVPqz5c87L+Vlu/uEYQIWIeelrOWZ+rrV8vxSl7n+0l5PqHzHvzDSxn1OJ/icsT5u7a6zMte7kq08k9W79ee0bblsUQTNNoAX7dUNvGlSy7qEJz7vROyPAIc918A7CFt/Y5FehhN2yiV5E59kDfcDVL3/zWlnCGncT1y0Pb20ZeLVT/Rkm94J0n8S3rj8LbvDcq+oi5BF3bbNhL3ORUiC24oS1nvrDwXzjUxTOduVp/3+/Ezdx+w7O5O/uA9174M/5IN36bG+hSEv+fqXT0Uz6W65jZP/Ky3PS+E2th4y1F/i89lGts8MUp6v62W5XukJ1Yn6W6uL3Oi0M9eKvk1sTt8KkRuV/UPua4I26nyd7nhPWGeb4Tpkq51fEtqo80Snrs+s89eW9pm8/rLWQ9rybLdWHees+Xv+3B1MUPKdL93bL8P7SdnbdcrrVsvziydz/aW9nrC8Hqy36chyWw8p9ml93NpdZ2Wt98zlmajeE+4jNC+W5bJFETTbSJW7Led6imfu9VcaRiCYi4+oD7eCOQhbf2Nho/UBGMVNd9ID0/5E1Pb5vFpK8CHmF/uBpsXnvfP5M1bURYi+t19f2F6ZlUpNX4RMRK4k5ElX7zHq30AF2l7L9m7blpK0de8163GsGaa9xH2oD77r3tYS+sHrzSfitZuhMed2iNrivPU3a521nvVgX3+J2/V6tc+o46FN0h+3piwzfGObXgfqr35bmbogVfvSIwn0nB5Lt+8684cNjMavftnx83Xbj/fNeB3STpvz/NI+SfKX1ia6Pos4D7anfbaz/uLqwb482yV7xzm+na1UddDMV//m9sva4oxlPylhu7a8bk0ne/2lvZ6wvh70ym1DPqdbn4Osj9v1us5qKVt5Jr8OaSX8c3rjyqU7ETRTF7x6eWs9X0LoUqzrwPvGJj5ybIYrB7558fNPTnjPN9w37sPNf+uIfeQ8RsuAT7R6uhNtmPwk66l/KJcGIzsxhaFiitsKE/LKJKHW7SM8753Pnzp29HwQ5lEDPdnoQnBEQ7h09d48iaXDWVnLzHcSaHveh2za8nRFpV+vKGMmoY1r6wkuYLLy2ksUPb+Ss/JN1C0kZj4Rt92YD1Y9P0xbRyMqXmd9ZEwG3WeaqXoMb58bVA8Z6i9pu87aPtMeD+2S7rhVUp4H26ID9beWLz1/mX8UzAO5FzPabMM+j1Id7110HbLFzi/pZMxfap2+Pkt/HmxL+0xdf7b1kL482ytpxzlDO2tYpESdl8zo18XY6xCb/Vlet2Y6v2Svv7TXE1FBJb1SYuz14EZ8TqfoN9oet9bXWZnqXclYnsnq3f5zOtv1p6fzcZSNsuWDZs6J1bTouA/rdoo76P3c2yhEBg6flgl1sVCnLwQm1clB3+uv3id8sse87HvXdyCrbXSjdpbprbgXJ5En1QySBQTDeB/KJRnxHXSFoWEZDKuUFCfZOvOhrDsxx6cONrxvwSvTw6cib6fJbOCAjPnq0d2nSod57GnZPrwLteBcDh3OnzPxpJ4PYsptnw3VpNub+VYjXvJ6946H3MgpdWLWf1f7NPk6ecJdil4Ltj3b8nRvF9DH37HGshw6qI4lswSzkuSCWZ9b6u+h0j3oP54zcvO3Vi5rSdUXjmsXEVELjtQ/cHN52RM16W47eJP9qro+NKXL1H9Oc9N6RtXjkcCH7maoh/TbJW/Xtu3T9nhoj5Tna7+E58F2Ws/6q9/yEDIiYiVutNmGfR6lO9675jpkS51fkmtn/hLr4PVZtvNge9pnkvrLVA825dlOCUYtZ29nvkVKzOjX6GsW+/1ZX7danl8cmesv7fWELhcdwGi+HjzT8nrQ6ODndPp+Y/rj1rpflaXe/azKM33/KO3ntHW5+GxEHGWjvDL8xptfmt+7Tn//Lnn27Kl5ZKMoY+rk6n2oOssWt3MOn1DePssyd67FSUsZnJyun/yb6W+2Q1bm0it3mRNjI/f1j/fqA0hiVvWy56Y3Il0tON8SOAd2Iz3HRdPEmSaPzq0waUbERJaNS89Fo1dgam+xBNpZQGP+WrcPr5ziyiVKu/MXVWd1an96ZaO4/aWp96jjoVZZkMXn6kOtqV1nKU/1QXzWfFsZVFPvV86H7C8o4j1qC3I1biWexEz+pKw6HKX6B1ejqsrbjMpb9HHSUAfreR4sHFQdGfPNfwhdjzeuB8tlI+vBvv6Stetsx3v646F90hy3rjTnwXZZ7/qLrx/N+3voZ9WGfB4F8pbgeO+a65AtdH5Jrh35S6nD12dW58G2tM809ZehHmzLs10S7T97O/P6D7Wa/iLC8tjRWuwv6txeF3XdanV+UdpQf8k+j7zrQT06yp0uIEx8Ojr/Oe3Ve/yxZlgdt9mus6zr3ZGtPJPVuyv953TGcnEE8ree/YdNYFuhWJw2v3ed1177unz22e/MIxufy9M/FmVvKS99+iT7/j/J6kvzp/VS+I/yvdF+6avclZ993OrsILL68bxUXhTlG9tVGvvMkzXVCf7ofbnxk7+Xj8PSu7okL4r6myFvA/X6xbXXf/OdH6q/PZOP3luSqOCyHVWWB96WnX127/3y6TOV7l1N6b73LysSzGbhW2PyVn+ffPrRz+VRmh2psrn35LdS2LVdcvUCdU96t2Z/LO990Lyv7FQ7+7As21Tedtbzpvap2tytn6qT2CfmCcfr8vb390hO/W3hw09C0+LWX1We3PtAngZf0OH8vXz6gbO/bV/bLn0qb94ea6qNfvrLn8iN27+Juehxpal393j4qrz6Ff3a38unn/5aFmf/QeVrVfb+4EBI28tSnivyyOStXm/62NP5+sU/y++/+Y5qg9UWbV2/x1dVffSr+nCf0fX+bwsfyMern7tPZOLmTz6akf/5vz50yjFfrwd14VT5tar3a6qNxe/r5Rf/QfZ+R52X9GTgF9V50Dzfdi8/kV/dLQfSqagyuf/LGfnZ7QchdbSR9WBff8nadbbjPf3x0D5pjltXmvNgu6x3/bU4Hysvn/5BCgf2yM7+V+XF3UBdbMjnkUpTyuO9a65DttD5Jbl25C+dTl+fWZ0H29I+09SffT1Yl2ebJNt/9na2+pWi7C+p81Kf6uD/9Fr4eaXOfn/W161W55f21F+q64lP35f/5/+905TO+nG0FHdu6fTndMp+o9Vxm7FfZVnvrmzlmb5/lOZzOmO5ODYgjrKBtvhIMwC9wXzr2NZv6LcQ802abNQ32WgzjgfE4HjHlsB5MDtvJEnCkUDYOJzXgXXFQgAAup4zT4X6P+6+e0TQ80HooeeqY9H2yf+xITgeEInjHVsE58E2qM9nVpbHFOKm5s0Nth7zVQMgaAagG+hv0M6elomGiU2VhkkuW620BIdvIlM9aa6eLHlAqhI+kTc2JY4HJMXxjl7FebCNiqrMmifV9+ZyIvC4+bWc1B1AJtyeCWDzM8POI+bSVLh1IJnwSUnXY3JXrCOOByTC8Y4exnmwfSInWFe4vbULeOf66EndAWSzxRcCANAVIifijJvkEs1elV1/oidddR+t3+SuWFccD0iE4x09jPNg+6wuuYspbF9b1KBejv/r/yNgtum1ntQdQDaMNAMAAAAAAAACmNMMAAAAAAAACCBoBgAAAAAAAAQQNAMAAAAAAAACCJoBAAAAAAAAAQTNAAAAAAAAgACCZgAAAAAAAEAAQTMAAAAAAAAggKAZAAAAAAAAEPDK8Btvfml+7zr9/bvk2bOn5hEAoFFRxiYnZN9A3jzWyjJ37posmUcAAAAAgHDbCsXitPm967z22tfls89+Zx4B0AYnp+W//WhM9n/rq1L58BN5aZ6vGzomZ/77hOw/UJQXd5dk1Ty95dTLYVC2PflAnjYVVLcrytjUKdm3s888NmplWQhrFwAAAACABtyeCfSUouRz5tdcXrabX9cUZWy05P5aq8pz97ctyFcOkpf8DvNrLxkak326LdTKMndlWs6fMz8Xb8mK+woAAAAAQAyCZkBP2eEEzWq1qnncqDA+IftyVfV39aC2unWDJ05AqSr3by6ILopcvug+30MKeX1Lpsrj7DVZIkoGAAAAAKkRNAN6SWGHuIOLylLTI6gK7tOuYdk/kpdapSr6RbXnW/XGTDPKrFaWxw9XnaBZ7ynKnlLezSMBMwAAAACwwpxmQC95/R35XikvtX9/Jn39JXnl03l5ZGJjhfE/l+/2P5NbCyLfVq/59KOf1/9WVyjK4H/6r/KjH/1QvndgTPbrn28VZdsfq/J09XPzIp/CQTn5N38l3yv+Vu59HBad0fNq/d/yF98Pnz+tMHRQfvBnP5Qj3/+hu68Dg7K3+B/kj9VPZLXFpFuFoWPyl382Id/7vkmn2raw7Q9Se7oSP1/X0H+Wv/h2Xiq//LH862pB9h7YIzv/8Cwi/a7C+Gn56798Z23us8KwTPzVn6+lW5XRi39X+QvZsV06VT1MNtbD3uJX3XJ5Xc/FNtZiHrZXZdefvC07ax/K+zH5AgAAAABEY6QZ0EO8W/Kqj9wRVGu3HZpRZovzInv0XF5lKT90/+LRwZ2TJ07JoYG8M1qtLleSfYdPycnxkFsYd7ivjR615t4uGjp/mtrf8cOjMpDzr+yo3m9gVA6dOC0TQ1G3TA7LxNS02rYkuYaE5mVg5KgcnzooDQPsGqht1XZSW5B7Tv5XpeoU1I6YbUS2bzfluuIG0M6cONqYbp2OptiUZTp1IPJscz3Uy8WpPzct0cxtult2NCEAAAAAZMdIM6BnFOVPfnBAdvY9k4/e+1jkW29Lvvqh/Orp5zI4OSX7cmW59ZOnkj/wtuz8IrCC4tAx+evDJdHrLNYqs/K3F/9O3r87L/fulqWy7VV5qz8vff27mkY3Fb41pv7WFz5qTSsMyf7v9Evfp8ERT0UZ+7Pvq7RWpXLzJ3J55udqX2Z/L16Vb5T6ZWepeX9OIOrsURnQ2y2+Lzf+UaXzPb2d+nnyW9m2a4/szPXLqy/WRtj5uaPt+swoM/2MGZGV+718GrmSaFH2emX2x3fk+Hf73TKa9fZdlhcvnspSw0g823Sq7f7me7JT/1pbkLmf/lh+ZrarvCi65aIjaa1WwBwalyNRowkBAAAAAIkw0gzoGc2junLbdzgjl0YG1NOL87JUf41/EQAz+kqp3JyWy9cf+P62LCu3r8nVRb2wQF52720c/VUfgRUVmGk1Eq1WlnsPl80DTe3v4TW5fO6SzF25IPOB0VSDk0dlQPRqkBdk5rZKp//vKw9kfjZuYn93tF3jKLtld6RZLFNmUpIjh/OqjC65ZVTf97IsNeTBPp3udkpl1lnl0j+Bv1MuN8vug8hFHIrOLa8nnfpsHk0IAAAAAEiOoBnQK+qLACzJii8YNPjuqHq+LIu3l9de4wtiFcYPOIGa2uIlmYkIsqw80gsLmCBcXdEE4KInmx90biVUL6k2BpXqwarcqByZHJZC032KyyErPg5LyYkoleTQiWk5czbk54TOa7i1fOrgYVBw0QQfU2aSy0vt5gVVRsG8BFmm0wQ39Qizq9cfuM9FqDwO/N25pVO/9ynnltec6BF810LyCQAAAABIiqAZ0Cu8UV0mQPX8uV4l84BvlJlIYW+p4TWaN1rsyaNWwaCAwqDsdt4setSTO0IrfCTa0vVLMlepSm7gqBx3gkunZWJ8OHpusaG97igsK2ujzJzgoY9TTjpo5o8H+nnlGhNUbGCZznrdOEHPcPU564LladLoqVXuJksrAAAAACDSK8NvvPml+b3r9PfvkmfPnppHwNamJ6g/PiJy37utceiYnDGT3l+9eMsJxAxOTsuhgeraa/TcYlOnnPnO5s7FjEwy76UDR5e9oFPYcw3MvF6+/YfSK3buHZORETdopINClcUZmQm8p5s/fXvkdOqAkJtv8yBC1Ps2l1k823S23k+CulJlOfaueo3Kq005AQAAAADWMNIM6AlF2VMyo5C8gMtqVSqVstxf8AJWrW+nDFeUsdHm2yzdUU+Nz/kVvBFXkSPRjJVlWbqt5zGblvNXZqVS06tLTshYxJCz8PnKYni3PbYQ/r6+0XKpyswinS3FrETqUWU5f0fPlxYzzxwAAAAAIBGCZl1jWCam3PmQTo63uzOO7hcSUFm5JTPXr8l8fbRR2CIA3txnJSkNOU80KYxPyD5nuwW55xu5FLcIgDPayiwu0LwIgGrLeh4z86jBygOZWdCT3TffLrlS1bdRiuRKg5G3cBaGik1/c+d0U/Tk+jowF/wxk+s3ztfmSRCoCrBNpyvqNtHi2iIBrYKQjvRBPgAAAABAI4JmXcLpMDs9//jOOLaohkUAIoQsAqAtPXaDRgOHT8vEkC8gWxiWsUn3VkMdhLk/G3aLZV72vesLgKltdHDXuT2x4gaPgiPRnAn59TxmU+7+Gtqy3t6Mamvy8JFU9P+5UbXtQRn0bVjw0nr4lOz3B//qo8zKMhc1uf5q1VnkQHI7mo8rbxGARIEqwyadiju3mq6HY43bDB1UZXqqfntp5EqkhjM3WoogHwAAAAAgHHOadQVvLiPzUI+YabG6HrYYM79Y3DxWcXNtxc/5FTHPljdnWhP39Y/36v355ljz8dISSbVxvYJkU6Aqcp+umtruhm87L1/R865pMXOvtZy3LULKdLpMOsyjBrWyzJXzciiiPNe454rd5ZTpBQAAAAA0YaRZV1iW+YWyOxpGd57vEDBDo8hVFX3ibqdcuj4tV2+qNuY0MqOmJ+SflavnIoI0D685q1+uaXx9fX8h267cvuDMX3Zfbd+wS73Pm5fCA2aa2qc775l/vzoItSBzV6blsn+7oWNuILC2IDdiA0ir7i2qubxsd5+oazVvW6Q06ax7IDOmTOq88rh4zYwca3Xbpb6d1GIlVAAAAABAE0aaAUCvcEa4SfxKqAAAAACARBhpBgA9wh0ZV5ISi4UAAAAAQGaMNAOAXhE6l1qZkWcAAAAAYIGRZgDQKx7OB+aZAwAAAADYYqQZAAAAAAAAEMBIMwAAAAAAACCAoBkAAAAAAAAQQNBsE9O3n/Yy8tfdej1/AAAAAICtjaAZAAAAAAAAEEDQDAAAAAAAAAggaAYAAAAAAAAEEDQDAAAAAAAAAgiaAQAAAAAAAAEEzQAAAAAAAICAV4bfePNL83vX6e/fJc+ePTWPeg/5627kD51VlLGpU7IvV5a5c9dkyTyLEIVhGXv3gOweyEvOPFWrLMiN67dkxTwOGpw8LYfU62uVWbl8/YF5NsTQMTlzuGQerKncnJaZh+ZBGNvtAAAAAKwbRpoBQE/YIXkdAapV5bn7BMIUDsrJE0dlny9gpuUGRuX41DEZNI8bqG1G1Ou1XG6HFJzfwhXy7usalaXcIvBlux02n8L4aTlzNqItAQAAoKtsKxSL0+b3rvPaa1+Xzz77nXnUe8hfdyN/6KjCkOz/Tr/0ffqhvP9x1Hipra4oY391VHb36ZFls/K3F/9O3r87L/fUT+VFUV79/bzMP/3cvNbn5e/la996W3b2VaXy0bz8a9hrjJdPP3Dez/0pyza93RdlWfjwE3lpXhPGdjtsNkX5kx8coO4AAAB6BCPNAKAHFPaWnJFTlccxtw5udYVB2e0UknuLpT+0uPLwmszcXjaPgpZl/uK0nD93IeY1YbzRf6uRt32Gs90OG4+6AwAA6CUEzQCgB2zfrm/vq0p11X2MZh0PLA7tlQH1X+r92W6nbz09Oy1nzp6Wsbh7SLF+bOsOAAAAmxILAWxi5K+7kb9eUpTByQlnXisddNH0xPGLd27J0g49gXte7l+5IPP1oSVmUv7arJx3Jo1X24+PyciIG7TR9O2BNwKjnfwKhWHZk3iy+uAiACn3V1Cvf7cxf1Iry/2FeZl/GD2ySs/ddHxE1vKu0jxx9IAM5Mz8XOo95mZVegI7LQwdlP2jpbXXSVWlr+yWZ1SBWFHpmfKlJ1Jg8YSISfmltiBXL0YvFhDUVD4J2W2n8nr2qBOw0WqLl+RyqlFxSTS2a7ceR1X5un+tqfpeDKnvNWmPI5dtO9MKqi6PqLaWqzfsqlQW78q922HHgs1xm7SNaSzSAQAA0G0YaQYAcZzRO6eclRPr/W5FTxx/6MRpmdijgytVqfp74OY2wNrz1bXtfR1vLTdwVI6MF80jPx1YOC3HoyarDx1F5FsEIOX+dFDh5Inm/EmuJPsOn5KToWl01Ue3qbw7k5+rNDcED/QbBiMTan/HD+tAiz/IoPbtledQ9P5SK+yQXKJgRqPwSfl1bGYpccBM85dPGlbb6byaX9eN165VexvTbdSpR/M3JafajK7D0FFuNseRYdXOnGDWtEqjP2Cm5WVg5KgcnzrYvKCDzXGbpo2xSAcAAEDXYaTZJkb+uhv56wW+0Tu1BZmbXRsJ5Yxg0R1y/SA4AsmMVKqpTrKoDnXOGQkzr7bVI390UEwHD9SvFW9Ei8cbMaZ/r0rl5ozce7hs3tc36iW4P93BPzHqdMrX9ueNvInZn0mn1jiCpigFta/jal86HeEjnkxaRaVlIe8EJ5z3uKPew9vvkMhSw0g1L39u3mbqf1P7Gxoz5Rm1v6xMXaYcLeYw5VS5Oa3SbJ5ryeyvqY5bsd1OnGCrDkq1GsVozddemtqnM/pLB7PU701ptzyOHDbtzNufGVX2yHutotI5ptKpj7Gm+rQ+bj1mvzZtDAAAAJsSI80AIMLgpOno606y6gT7b//SE8dfvll2HwQm/fZGKjkjUBYvqW11AMvr1C/L0p0FqZlHfoXxCTdgpjvdetL5esBMU9vdVvu8MusEHRr2Z+bqatyf+7fo/akOvgmA6OBB48T4ar9qX1cXq+r3vOzeGzb6y4xuk5IcOZxX73HJfQ//fhsCGT61shNsWaP2p8vz3CWZW5eAmeKNxLKYoN2tz2q6+eLM/pxRS2nYbqcsXb8g588F67J96iPwwtrnygOZmTXtLLejYRSX7XHkSt/O3P2VnbY0o2/D9L+pSue8SWcu39iubY/bugxtDAAAAJsTQTMACFM4KCO6p68DBKGjStYEJ/12byfTwaj4eaUaAyPDsn9Eb6c6+3GjVFSn3x900Nb2N514f4XxA04gQ899FTV6auVR2Q0ubN/hPuHnBQhyeanddAMorS1L1XnDUTkyOSyFpvvjlpvy1jY73NsC0wejirKnpMq3VpbHadLm7a+apFx8bLfrAO82yfuBoG3dympzUCnDceRI3c6GpeRE6PStonpRhJCfE6PuewbYHbc+pu5YBAAAAKB3EDQDgBDe6K24eazCRyAVzciYspQjOvj19/YHRrzgQOVRyonC/ftznmgStj8vAPLkUasgRAQvuBMTdAuzdP2SzFWqztxQx52gxmmZGB9unl+qzQbNnFnp8+vNF5du9JC7v+g6iWK73frz2lm6udbsjyMjbTszq1emZ3nc+nhtLNWIRAAAAGxqBM0AIETroJIZgdQURPBNyu8+0cR774bOtRccSD0SymZ/CQMgMWmyD0Itu7cRXrkkc4t6JJuZmN0JnrVxEYAGdgEfhwnCpBs9ZPYXUyfhbLfrBNPO4oK6Ibcn2h9HrrTtzLvFUo+61Leqxv00jiazPG7rMrQxAAAAbFoEzQDASkQn2xvpEjkyqc2d65bzKNnuryhjozpgobMYDFi0IQ8ry+4cbTqAcWVWKjUdPJsIX3kxs9YBkSixo6AieftLO7eV7XYdYNp1XFB38F33tsd0Aca4urFvZ8H5ylrKfNyafKQeKQoAAIDNjKAZAETKSz5kOi/dga5Pbh7oZNdHukQGDiKCBKtVd/6wkTEZdJ9pVmi+jdG7ZSzd/szcYlKS0pDzRBP/ogT3mm6Liwt0RBmWCT2PmXnUQE8iv6Ang48qb496jyl3XqqTaUaltQwsRquPLkqzYYIAUyjb7WzLJQWvXUfOtTZ0zF1ZMvTW0vTHkSt9O1up6sUr1HFUGoy85bcwVGw+jmyPW4/XxgAAANBTCJoBQIjnz93O98DhYzLo62EXhg7KxNQpEyBoDnDE38KleIGR4BxPK0vyxASyDk3pffqCH+r3wcnTcubEUTkSCIrY7m/psbti4cDh0zIx5N/XsIypfR13FiWImPTdIgjlLDyg5zGbcvfXELRQ+5wwo9riOAEWE5mIC4oEtQ4sRvFGF5VkxFfuhaHhhjYRRaex/jpdh/5yjpF2O9tyScNtZ7q96MCcP/hp2mZ9JdZrDSOtbI8jh02w8+Ejqej/c6OqrR1s3KfXtg+fkv2BYLH1cRs0cEDGfPXl7lOlwzwGAABAd3ll+I03vzS/d53+/l3y7NlT86j3kL/uRv663bBMnDWjYIJqZZkr5+XQiMj9Kxdkvt6LLsrY1CnZl1N/P9cYPPAUxt2AlJ5zqWli88JBORmxsp9WqyzIjev+IFa2/Q1OTteDFs2qgbz5DB1zgiR6cva4VQaDvLREqsw6KyyGByW8vJqH6rXnW6zG6HHzGZOfGFFpDq2/uoi2o1eQjFsZ1Wo7+3JJzuxDtQk9B10uooGGtweb48iwbGfedlFqqoxuNLSzjMetI1APAfHtBQAAAJsVI80AINQDmbkyK/cr7kgZR62qOr+X5OrFa+YWreBte61vJ4sd0bJySy6fc1eXdAadeWplua/2e7khYKZl29/S9Wm5erMsNf/OdB4XZ+XquegAU8tb9SKs3NYLALhl2rBLr1wjA2basswv6IUDFB1suZM0MJRt/rWV2zNOfaxxy6f5llU/3XYWpOLLZE3X4UKLUUpW29mWSxpeO7srly82t08dzJ27EpxY32NzHLls25k8vGbmyfPXmy+dTe0s43HrUPWgyqYhn4quP71PAmYAAADdiZFmmxj5627kD0BPMCMgJe2ILwAAAKDLMdIMAABE8uaESz3iCwAAAOhyBM0AAECk1rcmAgAAAL2JoBkAAIiQbU44AAAAoJsRNAMAABFaT5IPAAAA9CqCZgAAIMIDmTk3LecvBlduBQAAAHofQTMAAAAAAAAggKAZAAAAAAAAEEDQDAAAAAAAAAggaAYAAAAAAAAEEDQDAAAAAAAAAgiaAQAAAAAAAAEEzQAAAAAAAIAAgmYAAAAAAABAwCvDb7z5pfm96/T375Jnz56aR72H/HU38oeOGjomZw6XzIM1lZvTMvPQPEhgcPK0HBrIS60yK5evPzDPtldh/LQcH8mnTtt62WzpWVOUsckJ2afqY01Z5s5dkyXzCAAAAMD6YaQZAGxaRRkcPyYnp6blzFn35+TkQRksmD/7FPL+wIqnLOU0QaDCQRkxAZpcboeE7KYttm/X+6hKddV9vLGKsqe0mdLjKcrY1KlAwEypVeW5+RUAAADA+iJoBgCbUGHomJw8e0oOjZQklzNPKrmBUTl04pgMmseeldsX5Py5afNzSe7X1JNpAywrS/JEbydVqZSXZMV5st2KknfyU5Xq+uwgpR1uemplebwp0mMMjck+k665K169qp+Lt9apXgAAAAAEETQDgE3GuV3wcEmcmEllVq7WgyaXZG6xqp4tyaHJYee14bxA0GrKAMuyzF/U+7kgM7eXzXNtVhiU3TptlUeb4xbDwg6nnNOX1fpyRw5W5f7sNVkiSgYAAABsCIJmALCZFA7KkRE3YKLn2NLziq3UgybLsnT7gly9uSBX4+YbG9orA+q/yuP1mZMskx15Nxj4fJPcC5kkPapOTjq3x56WsfW6Z7WBuWV0s41+AwAAALYYFgLYxMhfdyN/PaRQlMF3J5z5vpxRSVqtLPcX5mX+YdiILDMfVW1WzjvBLT032ZiM6Fst3Rc4I8hu6ICYeewy26kXZZmU3p3YXuT+lQsyHxd0iVg8QGoLcjXhbYCFwrDsefeA7PaVTa2yoPIWvn38pPtr+a8tXpLLIaPd9G2rR0b9t6xWpbJ4V+7dDpalnyr/ycb602lcvHNLnu9ttQjAsEycPeoEIbWodLVXsP0AAAAA2AiMNAOAGM7cYidOOStK1uM0Wq4k+w6fkpPjRfOEj7kF0Rm95IxSMnOTmT9ruYGjciS4bX0eqwW5l2EVx/pE+y2iXuGLB6jdJ5rPTAeiTsvxE0edyeob8zYqxyNGZUUvAjAsE/WAYVhgSv992r1t1b8zycvAyFE5PnUwfOECr/xD0qjnhtvvLAIQs2CCd/tmR7m3126a0XgAAADAFrWtUCxOm9+7zmuvfV0+++x35lHvIX/djfz1gKFj8teHS9KnftUjw/724t/J+3fn5d7dslS2vSpv9eelr3+XbHvygTx96W7ieP0d+V4pL1/8X7vkbT0qSk/m/tMZ+dl7P3e2fVF82wmq9f3hmdz7eC08NTg24Txf+eWP5V+t4yXDcuBHeyRXuSs/8713mJdPP1Dp0fkxPy+KThDp049+Lo9i9++OhDq4U5eMvo30J3Jj5uf1snmhyibf3y+7d31VKh9+ImtFU5S9B96WnX3P5KP3lqS+Cx3Y+pvvqefd95ppGr1nRnvpvy++Lzf+UdXDeybNT34r23btkZ25fnn1xXwg3Wo7/b7619qCqoMfqzpwt6uovH6jVFL71H8ry0JDOn1efiJ/LOogaJ87OvAXvwl/XTsNjcuRRPUAAAAAYD0x0gwAQg3LhLl1sT63mPNIW5aV29fkqjMpf152720cMeaN4Mrl1P+Ll+T8RT2ZuxcIWpalOwviLFLZYFhKzj2AMaOekjAjo2xGKXmTzzePAmtUGJ+oj4i7qhcNeKjKw/2ToudduyaXr8zK3GzgFs2wRQB0wOzEqEpz1bmdtDlgJjI4qW+P1KtI6gUK/HO8KSsPZH7WLc9cvrEe3O2Uyqyz6qR/Qv2VhyqNN8tuPbRYBGDpursyaWMbWA9FKQyp8nDaXcZ2AAAAACAzgmYAEKIwfsAJuOg5rKLmFlt55AZdctt3uE8Y7i2IUbcZrgkNbNWq8tz8asWb2L4avd9wSSefH5b9zkIFZZmLm/ds5UHzqo+BSff1ra9nfAGz8PnXvGBiSQ6d0JPxh/w47xFQOCgjTgXGL5rgT8+GcW4h1Xk5JccPu+VRuXltc6wuCgAAAGxhBM0AIIQ399aTR+mDT3o+KnekUPi2hb3u/GYNga02zZ01uMd2lJI7j1arUVf1dPpHiyXkjcDT+XYWBPAWIYgL1JmVQNOql3HM/Gz+9GwoE0z01Cp3IwO1AAAAADqHoBkANPECXy0m0w+MnHJ5wafoEWPRk+FnZdJtM1rNBKcqj1us1hia52S8fOdGp50VK/UcYXP6FtfcqOwfcl8T5AW29C2y+hbJuB//qL7WQU8zsm4z3Ab58JqbhyuX5H5FFcfAUZmIKA8AAAAAnUPQDACsFGVs1B0p1TBSyRsZFTliKyIgt7Lqzq+Vy8t25wkbCUeLhUg6n5k97zbLvLP6pb7tVc8RtnT7rlTUswOjEatfGsH5yrJrHdzsuJVlmXfmu1vPegAAAACQFEEzAGiyLFUnglWSUtQIKN9k+Pd8I5XqI6MiR2xFBWseSFlHj9Q+R8ajAkTF2MCSF7DLMgosdmSdtlp153EbGZNB95lmheHmdNZvP9Xzl/lHhT2QezGjzVaqerEF9efSYGTeC0NR5ZKXfON0c0ZxbZGA2ADjsExMufOmnYysk/WQoB4AAAAArDuCZgAQYulx2fl/4PBpmRjyBUwKwzI2edq5vdAJAAVWiGx566UX2AqZa8tbVTM3ckpOTjYGnvSk+Sf1RPFT8SOyNB1gGvReVCjKoD/9obzRb40Bu8LQ8Nr7eFaW5IkJKB6aOqb+7i8bHYw6LWdOHJUjwSCTd1vn4kzThP8rcaPNHj5y/qaDajrv/vQUvLo4fKop4Pb8uRtsGzis0+j86tCrU05MnZJDTsQsPsDoBNbcSF9s0K6dnLnYNtPoNwAAAGALe2X4jTe/NL93nf7+XfLs2VPzqPeQv+5G/rrf4OR0PbjSLGzFx6KMTZ2SfbmyzJ0LX/3QmQB/JO/M0RU22bv393Bxq0xqwzJx1oyg8tMrSMatdKlE7Tc0nXq1x7AVK41aZUFuXG/cX9J8O7dtBlcc1atseosGhNBzo924/iCQv4iy0Gqqfsp5OTQiMeXp1aV5qPZxPmYVzvZw97m7HL/qKgAAAIDOYKQZAERYuj4tV2+WpeaMrDJqVakszsrVc2HBluyLAKzcviDnr8xKRb3HmqoTGArfp98DmbmyoLY1D5VarSz3F6JXkPSs3J6RuUrjPnU+/bee1q3cksvnLjmv9xeNDkbdv6nnKmsO0LXOtzvaLPS2Tz1RflOZqN1VFmRO3+rZFDDTdFnMyn1/nnTdqfRdvXjN1E/cbZDLMr+g6l7/qoNsd9Y7YKbp9mOzYisAAACA9cBIs02M/HU38gcgFWdEnUSOUgQAAADQWYw0AwBgE3AXkShJqaOLDgAAAACIQtAMAIBNwFspdGDklLNip/tzLHqVUgAAAADriqAZAACbwcP5wLxyAAAAADYSc5ptYuSvu5E/AAAAAAC6FyPNAAAAAAAAgACCZgAAAAAAAEAAQTMACKFvPwUAAAAAbF0EzQAAAAAAAIAAgmYAAAAAAABAAEEzAAAAAAAAIICgGQAAAAAAABBA0AwAAAAAAAAIIGgGAAAAAAAABLwy/MabX5rfu05//y559uypedR7yF93I3/drdfzl9ywTJw9KgO1Bbl68ZasmGdbs90umcHJ03JoIC+1yqxcvv7APLsVFWVs6pTsy5Vl7tw1WTLP9qqeq/ehY3LmcMk8WFO5OS0zD82Dturm9uKlvarKZ0aVz7J5HuvGtn22qV33+nl+0+ZvA+qvMH5ajo/k1/Hc1yMKwzL27gHZrco1Z56qVRbkxvX2X2d1C64H0QmMNAMARCqMH5ABqcr92XQXZPHb6YDatJxp8XNyvGheH1A4KCPqAknL5XZIwfmtd+jOw5mzx2TQPI63Q/L6yrlWlefuE72rB+u9kHfz06gs5XXrNHZxexkak31OLzEvA3t2OE9tJumO2+5g2z7b0q57/Dxvm79OtLONqL/t2/Vrq1JddR8jhCrTkyeOyj5Vrl7ATMsNjMrxqe4+91i3614/T2DTIGgGAAinLkaOjKiLkcpdmU8VMWuxXWFHwwVflFo1YiTJypI8qelfqlIpL/XYt6tF2VNSZZc0qOGVZW21979l7sF6X7l9Qc6fmzY/l+S+zt96BrS6ub2sVsWpfh2Mv7PZRhOkPG67hG37bEu77unzvGKVv860s87XX9EN5qvXVnuuotulKGNHR53ztx5RdbVeP9Ny9WZZlfF8F480z9Cue/08gU2D2zM3MfLX3chfd+v1/CUxODkthwbS38bVajv9jaK+DaO2eEku3+YWq0bmtlZ1UXw+wW0GXllyS0svSFf3Nmgv62X9627j2eZxK5RNp2xEWXZgn84IqlHJ0Uai9XQZcY7A5sdIMwBAs6FjcmhApLaY8tvLBNu5t2HoLxUJmDUZ2iuq+KTyONmFI7e09JCUdW+D9rJOOlB3G842j1uhbDplI8qyE/vc4d5uWHvOiSlKYW/JKaOePI44R6ALMNJsEyN/3Y38dbdez188M+G2pJ3EP8l2FhORR0xKLAkXGXBH14jcv3LBvV20MCwTRw/IQM4N3klNpWVWpSXkjQpq30dG1cWqc+uIVpXK4l25d/tBm24DUGmZ8qUlVrDMgmVZlMHxMRkZcS+uNX0bx43r0Wld//ytKQwdlP1qX2t5rar0lWXxzq3Qss9a77p8BicnnPlO1spjwd3fDv3e+bU24TDlWfO+7U5bnmn316ipnbZdY3t57tTHqKoP9681dRwsNh0HCY/XNo+CcEermgcBkSNUW6YhPi/p2meW4za7gjqH7Uk9GfjGtM/E21kf7xt73CZmlb+NbWfa+teft4+oEbDecaveKuLY7+TnWMfaS+K6D9S79Xkw63Gkdp34vJShXWe9LiiofL3bWH/6GvD+wrzMhy4uk71c0BsYaQYAaGQm3K4sJLgA8Uu0XfqJyMMnJdbXOcnmr6iPrlEv1hfnZ04cbbxY0+lpeiN9UTctx9XF2dqFuJaXgZGjcnzqYHsmnNVzTCW6cFSaysxXlvpC+ewpOeS7kNNyA0flSOiCCh3Kn0dd6B4/rAM0/ryqi9aBUTl04rRMDDWnMVO9e+XhvzBW3P0dk4k9+qI7MH9OYVB2qxc7ox3Slmfs/lT+wvYX4G+n68O0l0pV8k7drwXMtFyu5KR1rKHil+Vxuar+z0s+skGoToUz147q3IR20tLy5jcKFzlCteVolZhzT9r2mem4zUJ32E/L8ajJwM8G68/YwPaZdDvr433djtuI84Qlq/xtWDtbs+71p9T30XTo6s8pN2BWuRkWMOvw51gbjqPE0tS9n+15MMtxlPa8lKFdZ2lnOrh68kRz/Yn67Nt3+FT44lOZygW9hJFmmxj5627kr7v1ev6iqYtQPbdE4tE8noTb6YuOrCNSzDeNyeZlMt8S6tFvC3nn4tr5VvDOA1lxEqku9oZElhq+YTR5URe/zrfVj7zXKnq596PqwlBdMbV/XqiUZW/KUl9UiroAzTWMmNMXsfriUP3aVNadzp/3zbba380Z9Z5eWRfVReyYHNEdHpWWpCMZWqfLy58qGm8EgHlfZ0SCsz8lWM7m/WsN5TmvttXpTVKeinrPudmE+2tg3iPLcdGKd+w5D9y6uKfqwkmPM/pS7V//MZgGr1yiRni1+nubuKPPottJ/GgVJfLck7V9mrpLetxa89Kpfw/Un26f3uiHpnRsZPvM0K5Nu2p5vHvtL8Nxm+o80S5J81fXqXbm14H6q7frwIii+vkqeFx6vPpTf+/I59hae7E/jmwlr3vr86D1cWR7XvJkbNdJ25l5ndY4Mkyd51Uaj6s06vQ3neetywW9hpFmAIC6wvgB5yL0vrogTHPxknQ7b14OGTgqZ85ON/8k+GbY/aYx7FvpMOZbVSmpi1p9Iak69vpiqZ7I5UDATHfO9YWxujBSF08z+vYOf4ZWHsj87IKzil8u3+ZvFvW3r/r/hCsbemXpfGO7eEnOX/QCZprK1x03nUEblj91sakvpteoC+uH1+TyuUtOWlrdzpK03t38uRfGl6+vdWw0Z383y87vwW+mvW+wG8vTS2+r8lT0RbO66I/aX2y9mrqPHh2QXf3Y052Tc6ru6x0bRdX7jKl3CS7b//CRVNR/ue073McNVIdHd0TUe95Yx4CZ7py4x3H0KI7o0SpGqxEYtu0z5XFrqzA+4XZMw+pPt8/bKq1XZp3OvD8dG9o+M7TrpMd71uM27XmiXdJ9jikdamcNOlB/3kgeqTwKDZjpIEZzwKzzn2NtOY5spah72/Og7XFke16qy9iuk7Uz8zml6OCacw3oPNJUelUary5W1e952b23sb3Ylgt6D0EzAIBLXageGVEXBpW7LQMYDVJs517QxWh54eQtTV6Wx0nS6F2QqQue2s3wi+9Gw1Jyroz1rWohQT39Ux+t02bmYjbpZLheWToXgTEBi8aL443I37JUnd7LqByZHJZCU1RUXXi2rMuE9a7a4ojTE9bzqMSXY/A2v7XyjB8x1VCevv1dbbG/2Hr1OjLruDiG15mKDGyvrEZc/K+a+gsE0xQ3WK7ylvZW7tRibq10mKBaTPsYdG6dCivjjO0z5XFrZ1j263OsDhLEjcZYedCY1o1un9btOvl5Putxm/Y80R4pP8e0jrSzgA7UX30fpn70qC33Myhk1E9dhz/H2nUc2QqUUTT786DVcWR7XvLL1K6TtTPvc0qPho4ajbbyqOwGWQNfDtmVC3oRQTMAgGPwXX2RqS5+WlwUBiXfbm20yP0r03L+XMhPy/fwOs8Jv5X0LjZjLpYamFWcNoJ7MZt05IFXlmUpR+TLG1nUcHG8Qflbun5J5ipVZ+6P404n57RMjA+nmG8mWb3X8xwzOiT8m2l/eYZfGIeVp/3+Grl1H12X2a0de+nn2/GCSiXZ468w1ZF0g+WzyY6tLLwRL1Hl7I1WiWwfvvyH1EOW9pnuuLXkBf/9o3ES2Oj2ad+uk57nN/a4tZfyc0zpSDsLWP/688rZrR/n1kIzIkhVTnQgpMOfYxvdXry6f/IovI3XWZ8H7Y4j2/OSX7Z2naydeV8YtSy/Jpblgp5E0AwA4MzboOdlqC3Op7v4SbWdd4GT4tv1oJRLkye+2DS8C3g9eis0qOf7ifvWMT3fxWyisvHKMnryZ+9C0X8xunH5W5al6xfk/JVLMreov9E1EzU7wYkEt88krPfWF8fmm+mmcrYrT/v9+Zm6j9l3diZ/cZ2bmNtklh7rW4/ykq9/CV9s8+T/8Vp2TFqOxGh17rFtn2mPW0uJR5o02tj2maFdJz7Pb+Rxm0HKz7GOtbMGnai/tbrIjU47c3Hp22Xn9K1yuVHZP+S+JqjTn2Mb215S1L31edDuOLI9L63J2K4TtbOE+wjNi2W5oCcRNAOALU91gEdL6sIg7bxEKbeL6ZQnle7bXPsLsrbP59WSuThL+o1ty7KMz3vn82esLLtznOgOzZVZqdR0cGIifMU/n7Z9i1//Jj5wEWwuvm3LM1rri+6119gfFy2Z9hLXuXFHjEZ0QFar7q0rXrsxK+WmDrJbatUx8TrRUUG1Qsv6NVK3z5TH7aaznu3Tvl0nPt7X67iNOk+0Sfrz2Ua0sw7UX/02y7zo1S+dxUSuP1DH4F1nHsWB0fg5Tjfsc6xJkuPIVvL3tj4PrtvnXyvZ2nX64yiKuZZVGspuw8oFmxFBMwDY4ryJXNPOS5R2u/poEetvJX2d50QJTX8hu1LVk8Gqi/HSYOTFemGomOK2woS8IFhCXllGf8ManvfO529YJvQ8UeZRAz35/EJwBFO4dPXePJmvw1lRzcxzE7gI9jobacvTFZV+vbKWmTw6ruNpLsyzHBeteO0lip5HyFkBLOpWrJUleVLz2o1tkN1W645JXFDNf8tXcxlnbJ8pj1trXtByZEwG3WeaqfYdftxuUPvM0K6THu9Zj9u054l2SXc+UzrVzvw6UH9r+XKnbFgbFfZA7sWMNtuYz+mMx5Etr4wSvLftedD6OMp0XlIytutk7cxMLyAlKUWNXPQtZnDP9/mX7fyCXkPQDAC2NDORa+p5idJv517g6OsL246213kuyYjvlqnC0LAMhl2VpbjYrDMrBeqL9eNTBxvet6A7U5P6wvNU5G0jmQ0ckDF1se9x96nSYR574i6OHV6HJzgHS4fz50zAq+eJmjotE8FOjNrfhPl2N17yendvI9QX8afk5Lj+u9qnydfJE0fdC2MleBFsW57Pn7udt4HDxxrLcuigTEyZpeiVJB1P3QGsv4dK96CvHWTlHXteuawlVXf41jpTlZvXIr7x9+Y1y8seyyC7tcSjfvKy711f3nT7mnJv+apU3HoKnnva0z6VhMetNRO0dCY+n9Jtzdc2dFtRdXhGte8jgVtJN0P7TL9d8uPd9ri1PU+0R8rPMb/1bmch1rP+6rfELc40Tfi/EjfarMOfY+08jtJq/QVZUPrzoPX1hOV5qYlVu05/XTBw2D3P13ltRV/LqvwHF8mxLhf0pFeG33jzS/N71+nv3yXPnj01j3oP+etu5K+79Xr+PM63jyMSs0pVuPTbFWVMXVzuy5Vl7lxUx7w1d79uAMBPz23SFLzTq3AdLrm3fKQZEWO2i6LnXNErrrX3IskrH/MwoDF/rcvSK6e4conS7vxF1Vmd2p9ekSxuf2nqfXByut6J8atVFmTxubq4b2q3WcpTdUjOmlEGQTX1fuV8yP6CIt5Dr9QWtyJZYiZ/UlYdzZIMhLaxqsrbjMpb9HHSUAeqzlov2tEmSY7jyDbtrsD3eK9Oe3g9ZGufaY7bjAoH5WTMioC6fd+4HmwvG9k+7dt1suM923kw/XmifZLlz6+D7axuvesvvn407++hx35HP8facRzZcdtp3EqiPlbnwWzHkd15yZOtXac5jqKOd1dY+WYsF/QcRpoBwFZVX/3ubroLPavt2jOMfeX2jLPK3RrV2V+cbRhS7/GG1qce2fbwmpnPyL8f9+JvTt9C0saA0pplmb94Se435E3tU1+Qq302XpC1LsvYb0g7nL+V23qC9Vknb86X0kZN7V8v494qYKalqfel69Ny9eaC8626sw8nX3qunCXJt3ERANcDmTF5q/PydfGaeb/g/oL0e6j0+gpH1/v9hXZ9e+3mr1aelxnVxnQ5ru1K/e6UzwXVxuKPE29Jfn0LZycm//ckOo5Vmw5rH1fPuR2hev2FFGi29pnmuM1o5ZZcPhesP0W3FZXOy6Ed041sn/btOtnxnu08mP480T5pzmeuDrazuvWuv9YjebzRZqG3/3X0c6wdx5ENbzRVwve2Og9mvJ6wOi95srXr9NcF6jPMn0hdh77yaZSxXNBzGGm2iZG/7kb+uluv509zv3lTFycR36JFsd0O2FhmtEDbRnBtMWZEgaQduZmJ921/wpEWQGacJwAAjRhpBgBb0ZA78Xfq1e9stwM2mDN/lfqf+Ucs6Hlx9C04tU5N/m/U5zMry2MqDR3AeQIAEETQDAC2nKLl6ne22wEdoEdCnT0tEw0T3SsNk/2WZZG225pvQmc92bWeHH1AqhKcKLl91LllsnmSbW+uHAIYaBvOEwCAlLg9cxMjf92N/HW3Xs6f7eSlTHqKTc3cPuhMAROKW/yS8W6JNA+NdT3u4yb15jY5tBPnCQBASgTNNjHy193IX3fr9fwBvUkvcz8hIwP5tU6xnuy3fFfu3V6PBRx6UWPQTE/KvDh7TZbWufD0yLL9o6Nrq3tSb1g3nCcAAMkRNNvEyF93I3/drdfzBwAAAACIx5xmAAAAAAAAQABBMwAAAAAAACCAoBkAAAAAAAAQQNAMAAAAAAAACCBoBgAAAAAAAAQQNAMAAAAAAAACCJoBAAAAAAAAAQTNAABAVyoMHZSTU8dk0DwGAAAA2mlboVicNr93ndde+7p89tnvzKPeQ/66G/nrbr2eP2RXGD8tf/2XP5TCi3l5tGqeRMfo8j/+3ZL0fVGWJ//+iay+NH+oG5aJs1Ny5MCY7N1Wll89/dx51qu3/QeK8uLukrSn6ooyNvV/y198v53vubl0Y3sfnDwt/+1HP5S9xd/Krz5eMc9uBpbtZeiYnPnvE6rtjjX8bM46sT3+iqre/qv8aMez+jYAAGwkRpoBALqK7nSdOZt0dJHuuE2r17f4mRw2r0+qKHtKefV/Vaq9GCFZR+nqL9zg5LQcH8lLrTIrVy/ekqWweEhhh+TMr7XqsvlNZPt2XW9KrSrP3d8cbrpC2kbUz9RBKZhtRXZIXu8s8J69xC23LmrvhYMyMuDWdS63w1dXm4FdeynkTdttUJbyQ/PrZpLy+FujX5uX3MgpmRhynwEAYCMRNAMAdBETrEra2RzaKwPm1zi152kjAV6ntyyPN9MAlk0vZf2F0AGzQ6pSa4uX5PL1BxJZ/DtUx9v5xR9UKLr1ptTKS9HbJlFbXdveCxD4n+spXrlVpdotGVxZkic1/UtVKlnrut0s28vK7Qty/ty0+bkk93X+NmugNsPxt3TdzdvAYW69BgBsPIJmAIAu4gWrEnY2H17zdTKn5epi1Xm6cnPtOf1z+fbaSIhEej5Isl5S1l+AHg1WD5i1qLP6qJyGoILZv+If/aI1BiTcn6j24vxcf+D8TSvsLTntofJ47bmeUhiU3U4GH8mS+0wXWJb5i7quLshM2uN7nbWnvWQ7ltZb2uOvkaq7hbL6vyQj40X3KQAANghBMwBA9zAjx2w7m227xcyMokg/Qm2Ly1J/hYNyZESPUluQGymCIOEjWpLd0pa0vXTdrYtp0d7bqi3tJeO5sFOsj7+H885os1xpcJPdWgsA2GpeGX7jzS/N712nv3+XPHv21DzqPeSvu5G/7tbr+fPTo3eOj4jcv3JB5nXvpjAsE0cPyEBOd+yUWlnmZq+FzhtVGDomR0ZLkjOjB5xboRbvyr3bMbfNKQW1jz3vHpDdA94tPGo3lQW5cf1WYDuVlilfWmKpdJ5T6TSPmun5zY6qjmar13n0hNQTzrxI/jQu3rklz/fqMss7I5Bm2jafUPT+lnYckzOH82t15LMh9Zd4u/bVn3tbZjW0DMKEvr5wUE6eGJVcZbZhpFi4pO1FT+p+SvblvNepehwfk5ERdzSRpudeuxFzK6ltPdjQK47uV/taq5OqSl/ZbWcRO3PbWFR79/Kv8lkfARgskwip6qMFPUn+4ZJ54FNbcOa9a1WONuVip7Fsnjv7HVX7df9aU8frYsTx6td03EdpWcat68qmfWY//lLkEQCAdcRIMwDY4uqjHlSnRHdSzpw42hjk0B2lpg6LDoZMy3HVSV3rSGl5GRg5KscbJkn304Eh1RFS+9jnCw5puYFROX72tIz5N9S3QSYKuCit5vbxbqlMcouZ7tydPaU6fc1pPHTimOx3FgFo4wTcLfY3sUcHA9w6Cups/aXcrl31p8pnxBlWczdd5zlizrlEo3MStxfvNjmVfq8efQEzLTdwVI6E3mZmWw+Who6pfekAjb9OVJtz2tlpmRgKvxUuemSUTr8bMKvc9N8yuyyPy/rW1rzkIzNQlLGjo6qcyjKXNWCmhE+Sr5tAgvnMLMvFjmkvlarknbpfC5hpuVzJ2WfDeTCE/7iP1XKUoK/9uk/4ZGyfWY4/ZaVq2tAO9zEAABthW6FYnDa/d53XXvu6fPbZ78yj3kP+uhv56269nr81Rdl74G3Z+UVZFv74jhz/br8zKuZvZ/9O3n9vXu7dLcuLF09ladW/9L/qSOkROH16tMH7cuMfvdeqnye/lW279sjOXL+8+mJeHjX009wRDQd39qnf1bY3fyI3Zn4u7+vt9H62vSr5/n7ZveurUvnwE3mpN3n5ifzK+bv++a0UDuyRnB458j9+bLbz/XjbRHn9HfleKa/6cXfkV0/9+QlS+fub78lO/ava19xPfyw/M/mrvCjKN0olcbKgOoQLrfaZyNr+9MiyW7Mh+3M6tWH762T9WWzXpvorvPNDGen/vdyf/Xt5mqjA3XLpK/+D3PHXtdMGqrI4syRRIYS6pO2lMCT7v9MvX3zRJyU9GkfV09xPL5g6VOVffNuZD6zvD8/k3sf+CIJtPdhSx9+ffV+1XffYu6yOPbfsy6qdvaraWb/sLO2SbU8+CJSxaWN9z+Sj93zlpgOEut2a95t52HjL7MuvvS771Xv2/aEcXn5D/1n+4tuqfBdn5L3Y4zGZl08/MPkxP+rY0cHtTz/6eYvysy0XS6a99Km69fZZPw+qei+oes/19cnOr/020F78huXAj9TrKnflZ5GvcRW+NSZv9fdFl4OXnk8/lPfb1j7bcPxpr6j30WlTx1T8ORsAgPXDSDMA2NK8iZlLcuSwvv3KrEhY7zsty1KgMzw4qTpSenTIFT3Btv+1ysoDmZ9dEL2oWy7fODqjMD7hjEhxbpfSk3Or913bVO3n9jW5fGVW5mYjbqXKOPm+NxIlfgJqL3+KvoXoYuOtWSsPVRpvlp38tWsCbm9/Oth1+Xr4/rTwETOdqz/b7eqs689bcTPNSqXuJPBNiwU4C0PE3Wq5Jml78SZ1d0bULV5SbcZ/a50q/ztuuQRlLk9bqhzvNbQJdRzqdnbukpOWppF8YYsA6ICZvs1O3NvvggEzx8NHUlH/5baHDRMalonDJZWWdPPTpeHWX9jouAhpy8WS115Cz4Oq3mdMvUtuR/QoLnMsJZljruX8aREj0bK1z+zHHwAAmwVBMwDYyrxAhurw125GdH4bDEvJiSjpW4im5czZkB+nMx00LPv1JO66ExY3v5DqjEXO5WM6d3YTX5vAi9p/7C2V3m2AukMbc8tY0g5rS7796Tmv4oQGbzpYf3bb+VjXn3f7WGdXCWwZbDDc16l83YxfhbWxvbShPFNblqoT5RiVI5PDUmiKyCyHH3uBoIqe38pNW6v55VbN/pqDP4XxA06guLLQeq4xO2kCrZblYslrV/ejvhxYWQ0Nsjbw6qRFQFeXg3vsRJfDoHPrd/C9NqJ9AgCwORE0A4CtzOt8LV6SRBPamxXbUvOCO0nmE4vgdu5SjBxpEDdvzxpvFEjcPEhJRyAlkXx/EfnuVP3ZbudjXX8pRtW0jxc0UOmNDZiYoERMMLZex/720obytLF0/ZLMVarOHGvHnWDIaZkYH46dl8rf3p2J2fUIMeeJVgEpLxhVkj3+HRTMKqiV2WRt1kq6QKtNudjx2kurdhXPPZYSzKnojRKMLAdfevyH1wa1TwAANiPmNNvEyF93I3/drdfz5xkcm1Cdqqr82z/+n0Tz9Xjz4zijambM/DYRPw1z0CSeTyxKxLxKSUXO29Pom+/8sEV5FOVPfnBApaOcfF6eGMn3F57vTtWfdb3XZai/V1+Xt1Xd1VrOTdVGXntpOWeUStv39Txt0fPbeXX85N7anFjZy9PW57L68Qdy70lZXvzBnUNwZ/8eeevAoBS2PZNHIfvy0i/bfygju/uc24hvlbfL7t2llvOtrX5FzyvWL1986r2uKGN/dVR2q+Nn7uI/ZT5+Ig2NyxF1vqks/F3CNpO+XOyY9hLXrlqeq8yxpOcxzDyPo9d+fy3/e37tvTaufQaY9Leelw4AgPXDSDMA2LLsRz20fZ6llszIEduRaoFbzOwlG7HWNvWRImH763z92dd7hvozdddRSduLN4IyyUiekBd0/jgyVswcguem5fyVWanU9GqIEyErNnoj7lR5qHzoEY16zryl23ed+coGRlusnrhabZz3amjMmdewtji/rvNapZ7PzJO4XCwlGDU5+K5722P0bczJR9G1GhVb8EaURbzXhrVPI/GIOgAA1hFBMwDYstIHgFaqVef/XGkwsrNcGCo2/83rPI+MyaD7TLNCzO1QXnDCkndr4JNHSW6pzEs+bO5yKdYn7Y/vsA7LxJQ778/J8SSdzrzs3hvyOlUeY0fNvEGh++tc/VnXuydL/QUDLx2Q9BZc79bL1gGOxjrKXJ6pqTap5+syjxroyecX9GITIe2+Xm96/rJp35xtD+TeospDblT2D5mnwqwsyRNVeW4+izI2qo7DdZz831Ofj65VVMm2XCzVFwGIoOeLO+ScYGICRSbQleQLgLh5+fy32gbfq/PtM4wJ2HbqCwoAACIQNAOArarlKJkQZkU83Vk+PnVQBn29poIO8kzqjtip5o606Tw7E0tPHVPb+QIg6vdBtd2ZE0flSKsg08ABGVOdNY+7T5UO8zhc8hFZz5+7ncWBwzqNzq+OwtBBmZg6ZTq08R1WJ7BmesZxnU5t6bG7MmZu5JScHB92ysUrx5OqPJzVRpXQoEwn6892uyCr+uu8dIsAxLzOC3AE56xrV3km5Ey8r+frmjotE8Fgh9rfhA5mhanPmTfTNOH/SqLRZt68ZnnZY1bPXb/J/z3e8V6SEd/5pDCkjy/zwLAuF0tue1k73tf2554DvSBW5WbrFSb1uaWeH30O9R1XjfKy713fvnS+pqbl+EheKhX3fNcUHO5w+wxljp31by8AAMR7ZfiNN780v3ed/v5d8uzZU/Oo95C/7kb+uluv58+hV8FTnTTnlqs0Iz/MdlH0nEd6Jcimjk7hoJyMWXGtVtErSEZ1kIoyNnWqHkQK0nPvrE0qHv/aOr1CZtNKnqpDedaMJguqlWWunJdDIxKzamBg36oszrdYFXNwcroejPPT5bH4vBS9v07Xn+12jjT1F2S2lbD6Wg9eG1D1fS4ueOHlKfp1zmgeHZwIy1+m8kzPS0sktT+9Yqx/f7HpV7y/x7XBhv0mOB7aISqvYfmwKRc7XjsuS0VK9cB6o6pK44xKY9zxHHGOCjufRbYxd+XTx3t13uPPL1Ha3T4bmTyGnqMBAOgsFgLYxMhfdyN/3a3X86d5kz2nnmR5dUnuPfmtFHZtl1xfn3lSd6IW5Nbsj+W9D1bCJ6d++Yn86m5ZXhR3ST7XJ/Uta2W5/8sZ+dntBzGTWn8uTz8syza17U61raemtr31U9Xh+8Q84TCTW5tHkUIn2l6RRypv2762fW0/NdWR/eVP5MYv/ll+/813VJlVYyazV+n8Y1H2lvLSp4Ns7/+TrMbO1K2K8+N5qbz4qrz6Fb2/38unn/5aFmf/QZXjquyNWQSg4/Vnu50jTf0FfS6vvj4mu3f2yR+erE2mv27WeRGAukzlmd7Lp3qie7dt9/mOv5pq35/q9n37N03Bidj0Ky+f/kEKB/bIzv5X5cXd8GPi5Rf/Qfbq8tRByPWc/N/n5dNnznlmd72tqWN48X259y/NZWpTLnbc9iIfzcj//F8fBs6DVVXvv1b1fk0dC60m1tfnqK+qdtOv2o37jD6O/m3hA/l4NbCtamMvinpexMZyuPGTv5ePVUG49RuxOEeH26dfYfzP5bt6IYJf/lj+tRMNBgCAGIw028TIX3cjf92t1/OHbsBoizpvlGKHRiqhjUzdSdoRkdiavBFuHOsAgE2COc0AANiEnPmW1P9N82FtRSu3ZNGZQOtA+1YyxPrT82fpYGcHJv9H99MLITgBM/1FAQEzAMAmQdAMAICNoEfgnD0tEw0TgiveRNvOPEtlWSTY4Fi6syA1Pan5iWObbuEAGL4FPvTiGXoxiwE9f9Ys81IhnjO3nBcwYx4zAMAmwu2Zmxj5627kr7v1ev6wCbRYGMGbrDt8wYEtauiYnBytyuLsLVmiXDaZ8MUe4hd5ANbazfouLgAAgB1GmgEAsBFWbsnlc5dkrlKVmnnKoRceWJyVq+cImDV5eE0uXyRg1g305PRzVwiYoZVleVwuS+XmJblMwAwAsAkx0mwTI3/djfx1t17PHwAAAAAgHiPNAAAAAAAAgACCZgAAAAAAAEAAQTMACMGtmQAAAACwtRE0AwAAAAAAAAIImgEAAAAAAAABBM0AAAAAAACAAIJmAAAAAAAAQABBMwAAAAAAACCAoBkAtDA4OS1nzq79nJw6KIPmbwAAAACA3kTQDABiFSWfM78audyoHJocNo8AAAAAAL2IoBkAxFqW+YvTcv6c+bmyIDXzFwAAAABA7yJoBgBprCzJk5pI7fmqeQIAAAAA0IsImgFAGoVB2Z2rypNHy+YJAAAAAEAvImgGAGnsyEuuVpbHK+YxAAAAAKAnETQDgBQG95SkVl4SYmYAAAAA0NsImgFAYsNSGhCpVbk1EwAAAAB6HUEzAEiqsENy6r+B0WMyWHCfAgAAAAD0JoJmAJDUyi25cbMstVxJDp2YljNnp+XkeNH8EQAAAADQSwiaAUBiw7J/tOSMNvNwqyYAAAAA9CaCZgCQ0ODkURnIidQWZ+XqlWk5f25aZh6aPwIAAAAAegpBMwBIxCwCsHhJLt9+ICssnwkAAAAAPY2gGQAkYRYB4HZMAAAAANgaCJoBQBI78pKTqlRXzWMAAAAAQE8jaAYACRTyefVvVarclgkAAAAAWwJBMwBIYPv2vL43U56bxwAAAACA3kbQDABachcBkNqqMNAMAAAAALYGgmYAEKcwLGNTR8WJmT1nQjMAAAAA2CoImgFAwODktJw5a35OHJV9etlMKcvibVbOBAAAAICtgqAZALRQqyzI3JVrsmQeAwAAAAB63yvDb7z5pfm96/T375Jnz56aR72H/HU38gcAAAAAQPdipBkAAAAAAAAQQNAMAAAAAAAACCBoBgAAAAAAAAQQNANghfnMAAAAAAC9jKAZAAAAAAAAEEDQDAAAAAAAAAggaAYAAAAAAAAEEDQDAAAAAAAAAgiaAQAAAAAAAAGvDL/x5pfm967T37+rp1fwI3/drdfz5zc4OS2HBswDpVZbkMWLt2TJPAYAAAAAoNsw0gxARkXJ58yvRi43Kocmh80jAAAAAAC6D0EzABkty/zFaTl/zvxcWZCa+QsAAAAAAN2KoBmA9lpZkic1kdrzVfMEAAAAAADdh6AZgPYqDMruXFWePFo2TwAAAAAA0H0ImgForx15ydXK8njFPAYAAAAAoAsRNAPQVoN7SlIrLwkxMwAAAABANyNoBqCNhqU0IFKrcmsmAAAAAKC7ETQD0D6FHZJT/w2MHpPBgvsUAAAAAADdiKAZgPZZuSU3bpallivJoRPTcubstJwcL5o/AgAAAADQPQiaAWijYdk/WnJGm3m4VRMAAAAA0I0ImgFom8HJozKQE6ktzsrVK9Ny/ty0zDw0fwQAAAAAoIsQNAPQJmYRgMVLcvn2A1lh+UwAAAAAQBcjaAagPcwiANyOCQAAAADoBQTNALTHjrzkpCrVVfMYAAAA///27t6mgSAKo+ijB1vOLApAhpiIGhzQAQEtIAL6oAFiGiCBDggQEXKI7RoAwyZ8GfISzOgcaVcz4aRX8wNAw0QzYBSzyeTrv6mNY5kAAAB0QDQDRjGdTnZnM2s9zAEAAKBlohkwgp9HAGr7XjaaAQAA0APRDNjPbFFnl8v6bmZrF5oBAADQB9EM+LOj85u6uh6+i2Wd7p7NrJd6evByJgAAAH0QzYC9bV8f6/72rp6HOQAAALTuYHF88jGMmzOfH9Zq9TbM+mN9bet9fQAAANAzO80AAAAAIIhmAAAAABBEMwAAAAAITd9pBgAAAAD/wU4zAAAAAAiiGQAAAAAE0QwAAAAAgmgGAAAAAEE0AwAAAIAgmgEAAABAEM0AAAAAIIhmAAAAABBEMwAAAAAIohkAAAAABNEMAAAAAIJoBgAAAABBNAMAAACAIJoBAAAAQBDNAAAAACCIZgAAAAAQRDMAAAAACKIZAAAAAATRDAAAAACCaAYAAAAAQTQDAAAAgCCaAQAAAEAQzQAAAAAgiGYAAAAAEEQzAAAAAAiiGQAAAAAE0QwAAAAAgmgGAAAAAEE0AwAAAIAgmgEAAABAEM0AAAAAIIhmAAAAAPBL1ScvFxpHd2l6awAAAABJRU5ErkJggg==;" vertex="1" parent="1">
          <mxGeometry x="550" y="230" width="908.68" height="400" as="geometry" />
        </mxCell>
        <mxCell id="HYz5_1IJxc-w8e_tg_V4-3" value="" style="shape=image;verticalLabelPosition=bottom;labelBackgroundColor=default;verticalAlign=top;aspect=fixed;imageAspect=0;image=data:image/png,iVBORw0KGgoAAAANSUhEUgAABVIAAAMgCAYAAADBeZmOAAAAAXNSR0IArs4c6QAAAARnQU1BAACxjwv8YQUAAAAJcEhZcwAADsMAAA7DAcdvqGQAAP+lSURBVHhe7P0NlBTVveh//5A5f17GI2IPzosCg9HhJfI6UUlGULyYXDXKXIVZQ+79n6vHw4nMMuKjl7WQZZa44iOsx4PLeFxgDsmRk7MSWGh8BhNicuREAcegZMAoEZgYHUBnQKYZ9S8vPgfjs3fVrp7q7qquruqenp7h+1lroLu6d1fVrqpd1b/+1d6Dpkyd9qUAAAAAAAAAAHydY/4HAAAAAAAAAPggkAoAAAAAAAAAAQikAgAAAAAAAEAAAqkAAAAAAAAAEIBAKgAAAAAAAAAEIJAKAAAAAAAAAAEIpAIAAAAAAABAAAKpAAAAAAAAABCAQCoAAAAAAAAABCCQCgAAAAAAAAABCKQCAAAAAAAAQAACqQAAAAAAAAAQgEAqAAAAAAAAAAQgkAoAAAAAAAAAAQikAgAAAAAAAEAAAqkAAAAAAAAAEIBAKgAAAAAAAAAEIJAKAAAAAAAAAAEIpAIAAAAAAABAAAKpAAAAAAAAABCAQCoAAAAAAAAABCCQCgAAAAAAAAABCKQCAAAAAAAAQAACqQAAAAAAAAAQgEAqAAAAAAAAAAQgkAoAAAAAAAAAAQikAgAAAAAAAEAAAqkAAAAAAAAAEIBAKgAAAAAAAAAEIJAKAAAAAAAAAAEIpAIAAAAAAABAAAKpAAAAAAAAABBg0JSp0740j3G2u/Acmfp358gw8zTh+F/lrX/9q5w0T4tTmcxecIXUzxgnVZVmkrwva25/UbabZwAAAAAAAEBURRNILasvkUsvNU9SnDr+pZza+Vf54J0viyiYN0hG//1guUj6Q5AxS/04kDp7SZM0TTdPEgikAgAAAAAAID/6RSA1oagCegMwkJpmkNT8n8FyQdEHUstk4coGmVcp0rpukzzW0mWmAwAAAAAAAPlRdH2kHv/1Gdn5T+6/L+StX/9VTukXLzhHLps1yHofkKZztzxLEBUAAAAAAAC9oB8MNvWlnHznr/LHX9uJs8Ni1n9FYdgF5gEAAAAAAACAAa3obu3XGalt75iJbk7/nX63mV84SEZ/4xy54NJBiT4+dd+qH/7qC+n6yEzwNEiGTzpHLpupA6NOtuuXcurdv8qfm1P6ZJ00WKbOVJ+fTQD13S9kpyqfxmc5j+/8qxx+J/X9qd0HDFL1dI5c5C5rLaf/bffD1TJfFrDMp17/Qv64w2s3iHBrf+TtkBurj9SK3bLsgZ3SbqYBAAAAAAAA+dIPMlJtw8ebwNzx9AGnhs8aLDP/bnBSgFHTgdFL/65Epvp1B3DhIKn5+8Ey5UYdaHS/Rz2/VE3/P4Nl9IVmkhE9C3WQjK73X86LbhwsNZPMhFTq9eFmWS9NLXvpOTLl78+R4ea5W5man71uZkIvi7wd8qVypIwxDwEAAAAAAIB86gcZqYOkbNY5ctFVdnAu7fVJg2XmjTpA96Ucf/2v8sGOnkCrlY2pA4nqtQ9/+oUcTsqINNmW+qHOmEzKCO2Z5ym/DFmnfLbZmmY57ezMv0rXR8nzulTNS6/Du//0hfT08mkyUhOBUFX21z3LqddPB0q1TPWSXOYcVSd6ZP7UeXkJsY6Rt0N+2KP2M0o/AAAAAAAAekfRZaRecGOJzPw/7r/BVpBRB1FPvftFWpB19EwnkKhecwXvtJPvfGH6Vh0kF4y33+cYPuscE0TVQcIvUm6r/1K6dqiyP02dXw7Usrz10zPyRzWvniCqZs/r3XftZ8NSMmATjtuBT/dy6vVLlIulrJ/pS1bXS3IZp79ZVSd+GbChRd8OuSuT6gU3SP109bCzWw7ZEwEAAAAAAIC86he39p86/ld596dfyB9T+xy9cJBcoKOh6vUP/AKe7/xVjqv/hl02yHX7+yCJqedWtuavMmRaJgU8c3fSycRUy1026RypqR8sU/9+sBUw1tm4ermGlVnvSKGX0zt79GQ8+jKmBl8ji7wdcjB2pjy+vkk2rm+QVTeNk6rO92Xz0/SPCgAAAAAAgN5RdIFUfYv6zn+y/9563Q4SDjv+ZUoWp1FmZ6rKBefIlKQsVvefuX0/hdNv6KleHAAplb6tvubv1TL93WC59EYzIFNS36z5czJu/3/BjYOlzJ3lqvtaNd0BnMohCJskh+2QLx3q70P7IQAAAAAAAJB3RZ2RenKHncUol56TNuhTv2P1Z3qOydzU/Yh+YWXZvqX+dNDYuUU/bxK3/dsDPSUCmn9nAprvfuGfPdofHNwp992+Rhpv3yRrtnRLVeU4abprplSblwEAAAAAAIB8GlxeUbHCPO5TwyfYQcZTf/6rxI+ZicqpwYOk/OJBct5okeN7vpT/MtMtgwZJbOog+Zt3v5Cd//pX+eC1DH9JZVW5b+gBl9Tnv/ulfHrCnhqO+Qz1If/Pa8l9gqYbJDX/2x7gSQ/89M5/qHU8JHJSzfe/zLy913+QjJh+jpyn5/FH7+X8m7HnWPVz5sMv5WhKB6HDJ+hb7gfJKfX4b+xJij0Y1J//I2iZNbOOp9Rnp9a9W+TtkA8n5eA7e+WjsVfIFZedlrbmd+WgeQUAAAAAAADIl6LvI1VnpX6o01IvOEcuTh0c6aMv5bh+LXTGqipnsjUv+vY5/n12Xphdf56+A0SlOv6lxJMGtXKYW+PzadJgq9/VD/UAV6arBPsvfTCoQBcE1EPk7QAAAAAAAAD0D/1gsKkv5fBOO/h4wczUoKfz2iC56O8GS82sQTI8KZA3SMpmDZap/2ewpI7h1PXaX61MTatfz78fLKMnufsqVZ8zSZVTnzml3q8P0+RgbGo/pGVJn2eoeV2ml9E8TcxHzf8ia7Cp/LFH7R8kw3IcJf+U1beCWkf3cuv1S6rn6NsBAAAAAAAA6A8GTZk6LU8jDuWmrN4euV4PNtWW1nfnIBmtg4361vfXv5A/7khe5OGzBsuUqzIEDI/bo94fTh1Y6sJzZOrf2bf4e1PlfupRzpGx/Jfy7j/1jLSfcRnV8r37Z5FL1evJ6++st/9yOJ+bVi+B66aDpF/K8Z1/lcOeWbI23+XWt/E352k75KxMFq5skHmyW5Y9wMj9AAAAAAAAyL9+kJGq9WSlDrvqnLSsxpM7vpCdP/1CPnz3SzvL1KEDha9/IW/9q0/w7qO/yh//6Qt593VVzsq8dKjn76py6rWMQT9dXs33uJqPmw5Q6r5QnSCqppfxrV+nzMd6n+5X9AvpMqPs581H6rNVfWQy7IJBctGNg6UmtcsEF2u5df2Y5xa93G3msUvk7QAAAAAAAAAUuaLJSEU+mUxW+au89a9/9ekPdZCU1dv9qHpl+fYvZKQCAAAAAACgd/WTjFSEcqEerV/k1J8zDSqlXosPsBh65QxZUEcvrAAAAAAAAMg/MlIHokT/qF/K8V//VT54JzmgOvzCQRL7xjly0aW6P9Pkvlz7q+oFC2XVTSPNM8f7sub2F2W7eQYAAAAAAABERSB1gHIG78pI93XaK4M/9Y3qBTfIPTPGSVWlmUAgFQAAAAAAAHlCIHUAGz7pHLl45iBrUCn36P3OaP3xlExVAAAAAAAAAN4IpAIAAAAAAABAAAabAgAAAAAAAIAARRFIHTOm2jwCAAAAAAAAgOJDRioAAAAAAAAABCCQCgAAAAAAAAABCKQCAAAAAAAAQAACqQAAAAAAAAAQgEAqAAAAAAAAAAQgkAoAAAAAAAAAAQik9pkKuXfG9+WPdd+XzWMmm2lhOZ/RJPeWmknol8oWrJa71/9cbqwzEwAAAAAAAFBUCKT2ldJJMmeY/bB69ES52X6IArMDmPfLePM8s1ly4/qfWwHPjH9LZpn3Z6taLptRqf7vlO4P7CkAAAAAAAAoLgRS+8qJd+TlU/bD9sP75Jf2QxSUCWB2fihxMyWjuivlEvMwk+6Ow+ZRtkbLSCuOukv+fNCeAgAAAAAAgOJCILXPHJEndv9Aprb8QOYdettMQ2GZAOaRD6XLnpBZy2p56vbvJP42bum0Jr+3rmea/vvZs+3W9KyNvUhG6v+zXQ4AAAAAAAAUHIHUs8HYmbJ0ZZNsXN8kjy8oMxPhZJi+94cd9vOQYlV5uh3/YjuQGj6TFQAAAAAAAIUyaMrUaV+ax31mzJhqOXQoZBZfv6IHhVokd5g+UVO1H14n8w4dMc+8VMjEUbNl1ejxUm0+oz3eIj8+/DuR0d+XR2JxeebNNfLECfu1VLOXNEnTdPNEumXzQxtkQy/dQq77HG28SaT1ofvl93oeY2fJjXfVyyWVOuiodLbKS0+vlgMe8y+ru1++9e1aO0vU0invbWmWN57dkTFTs0zN47J6NY/plXZmp9K95wX57Q83ppRTy7LStSwZqeW8XS2neZZO95e6WC4JfJ+jWsYv+Z58LWUZ/9C8UeJX6jqrtDJbf91iXgQAAAAAAEBRISO16NlB2I01PUFUrTpWJ49Ma5J/GG4mFAk7S7NDjh80Azk9vDg5cKkfpgVRdYDz59K4yB1E1SrlkpsWS+PKRvHOo9XBydXSqOZR6wpQaiOn3yKN61fL18eaCZq+hT6rIKoS1G+qczv+njeCg6hjG+V/rn9UrvdYxusfvl+utAaaapW/EEQFAAAAAAAoWmSk9qGJY5pk4+hYxozUmyfojFP9KC7b2p6Xe47Z75tYOlkWj6+Xa6zgauaMVOvW/rtmSG2lSMeWTXLfs73VE2e1fH3lo1IrL8jGX11kBUa796yV3zbvkC4reFot4+tEDrS4t7WT2WmyT99w3quMnSVfv2uxtdzp2ZpmXlZcVJVd98/yhvpce83UfBbcJl+7qVZGdqpleSA1M1Uz8/V9PUDd/XK3Xr8tywP6RHXWT1HzeunpjYlsXCsDVweP9ZOoywEAAAAAAICCICO1mJVeJ/9ggqg6UOoEUbV9J96We3avk2fMyP8ZHdwpjz2wRhpvX9OLQVTNDN4kV8i3FlXJe+uWy89+6AqMSntKEFVk/BJze/xD98uv9S387mzVgzvk90+/IN3q4ciqanuaUbbge3YQVQcgb1dlE0FUTc3n2dXys4fWWoFLzzXOcYCnsqoq6//ujsw/ANjrp+xZK0890BNE1bpa1DKua7XWj4GmAAAAAAAAihuB1GI2vEys8GF8h3+2aTFxgpOVldK9zg5uZjZLvmL13Vor1z/8c7l7vcffw7ck3Q5vmyVX3qSjqK3yUqYszoM7PPtitZgBnqINNFUtl2VzO/7YRvmaXj8d7P2h/3z0cjDQFAAAAAAAQHEjkFrEJg6zewZtP3nM+r/oOaPPb1me3aBJZtT80ML0T+pj/Ndq1b9RR9w3mbcB/aiWXXmFXR+7d/oGe7PNbAUAAAAAAEDfIpCKvHGCk++9kV1Q0Aki6v5Pn7o9819SP6ROwDZyFme1XFCh/7cHxQoty24B7IG3MtVHlpmtAAAAAAAA6HMEUvuB6uGjzKNiFj04mdr/ae8zGaVRM1pzDuQ6sstsBQAAAAAAQN8jkFrE9sX3i5XLGJsoN1tTUpSOkkusUfsD6FH7VzbJxvVN8vgCu7uA/AsfFOzq6LD+HzljpvgtVVlddfprH3xoD0B1020y3p6Sbuws389MZJRGFC7ztlJGXmweJqnuGYiKgaYAAAAAAACKHoHUYnbiHXnZGpV/vDwyo0FuLrWmWiaOapDN0+rlGvM8k9n1M+wR7pWqm66XhWPtx3kVZRT8ljfkPf1/5S3SuLJRxruWq2zsLPn6ktXSuOhRubLOTHQc3CnvdeoHtXL9yvtVOVdGq3o8XpW7++HF8q0FAZmu0+vl63U977HnqZbDPPeWfeZtvMNaSLlkkV5G66GlrK5Rblz5qFxvDbSVj8xWAAAAAAAA9LZBU6ZO+9I87jNjxlTLoUPZ9as5kEwc0yQbR8ek/fA6mXfoiJmaovQ62TytTjxDgqcOyLaT4+WaWFyeeXON78j+s5c0SZMJ2ol0y+aHNsiGKH2DZlJ3v9y9qNYaaCqpP9Mgppyf7j1r5bc/3JEenB3bKP/Tc0R/W/eeF1Q5vxH9q+XrKx9NBJdT6T5bewbLyvzeBD0y/wOp85slN643WaepOlvlpd1Vcv1NIq0P3S+/z/f2AAAAAAAAQF6RkVrsTvxO5r3ZLM/E3TfMx2Xb4WZp3L1J1p4MvpF+e/NuabWTI6Vjy0v5D6IqkUefb1ktTz20Vt7rNAto6EDoSw99R37mFUTVDm6Un92+XF7a02nd5p/Q2Sqt65arcn5BVK1dfv/AcmlVZd26dXBTzbMniKqZLguCeGbi7pBfq3VLmo9az/fU8m18YLXpAiHigFcAAAAAAAAoKDJSAQAAAAAAACAAGakAAAAAAAAAEIBAKgAAAAAAAAAEIJAKAAAAAAAAAAEIpAIAAAAAAABAAAKpAAAAAAAAABCAQCoAAAAAAAAABCCQCgAAAAAAAAABCKQCAAAAAAAAQAACqQAAAAAAAAAQgEAqAAAAAAAAAAQgkAoAAAAAAAAAAQikAgAAAAAAAEAAAqkAAAAAAAAAEIBAar9TIffO+L78se77snnMZDMtLOczmuTeUjMpJ/n+PAAAAAAAAKC4EEjtb0onyZxh9sPq0RPlZvthLzDB0RnXyUQzBQAAAAAAADhbEUjtb068Iy+fsh+2H94nv7QfIpQymb3gBnl8fZNsdP5WLpSlC2qk2rzDT3XdTFm60lVufe+WAwAAAAAAQHEgkNrvHJEndv9Aprb8QOYdettMQ9bG6oBmgzTdNE6qzCRL5UipvWmurFq/UBaONdNSVC9YKKsWzZDaSjPBYsqtnOkbFI1aDgAAAAAAAMWDQCp8jJJLTBcCBWMFOe2MzccXlJmJ+VQmC+/SAc1uad2yVZY9tEYabzd/D22V1k79npEyr77GencStWz33DRSPdBlN8my1HKVM2TVkjyWAwAAAAAAQFEZNGXqtC/N4z4zZky1HDrUbp4NLDdP+L48EhPZ1vYDueeYmaiVVlh9j+47ccR+btjvj8szb66RJ07ofkoXyR0+Ac32w+tk3qHk8snUPEbNllWjx0u1+Yz2eIv8+PDvREa752O/JqMaZLPrvRnFm2Xqficj1lnOnuW+ecKt8g+xWCLbUs932f7fyT7z3MvsJU3SNN08kW7Z/NAG2XDQPM2XsWUyW7pku9fnjp0pjz88Q6o6d8uyB3aKe490lq1jyya579kuM9VRI0vXz5Vaj2WOWg4AAAAAAADFhYzUXvbuybj1/9hhFdb/tgq5d/wi2ThtkWwekzz9K8PVf6f2y2+d4GZkdnBzY01yYLQ6ViePTGuSf9Dz8ZBVEDWT4ZPlSTXfR1xBVE3Pd2MxDFx10CeIql08Mvl2/4QaucoK8L4vzWnBUK1Nnt3Srf4fKRdfbE+xRS0HAAAAAACAYkMgtZftO2UH0KqHj7L+t7hH3veafvKYydzs6Q/V/dd42A7OZnLzBCeTNS7b2tb1lH2zWbadinkHTI9tcs1HvU9PO9UijYlprr9ENqpbTO6oqZdrdGaqe55tB+yXh9XJYtfqptrevNvcXq8zOF8qWIZmtc5S1YNPLRqnnnXL5qeTs1Fl7AVidW+65y+y3ZpgcweK2zs+tv6vrHJ1SRC1HAAAAAAAAIoOgdTedmyfHZAcPqonG3N4mVTLAdmm46Fp00XaT7r7AIig9Dr5h5h+YN9qf8+xntv/9514W+7ZvU6eMSP/592pA/Jgyxp5wj3PY5vkQRP7Tc7MTXFwpzz2gN2HaPpt8Hmmb+M3I+ivelgPPnW+yJ6tsux2j1vsTaZqR8dx+7l1S74q5+7L9YNu6VD/VVVdYD/XopYDAAAAAABA0SGQ2uuOyXs6aDmsTC61J8jNsfEip7rkJX3b/7AJ8q1Se/pE9R7t4KlM/Z5mwQRkJb6jp//TgojLMwc2yS/NMzeni4PiNVKqKr4iX6/LIjO07itSax6GCoBGLQcAAAAAAIA+RyC11x2Rv5zU/4+X663b2k0/qCePyS+t2/5jconpr/TS4TqN9IC8lGNCqhOQzTmzdSA7uFPuMyPoL3tok6zZ8r50yDiZt6ihJ1s0RSL42bJLNltdEHRL6x/arEmZRC0HAAAAAACA4kEgtQCSB5waJZcMM0HOk11WX5z29MlyvY6jnuqSd9V/KJx2PQDVsy/KfQ9ssgKdVTddLwvHmhc1c/t9jy7ZYHVBsEEeazGT0m7jV6KWAwAAAAAAQNEhkFoA++L7rYCpNbDUqIlyjXps3b5/4h15+ZSaXjZJJpaOEit2lxhoKndJA1lF5eqSYODrkt/vtkfRv+JKV1bqweNiJZJO/4rMtiakq6463/q/s8PVt2vUcgAAAAAAACg6BFIL4cQxscYvGj5KbrZuu3du3ze3/etgZb4GmlKcwK3EJsrN1pQUpXZWbHbK5CumD9deN3amLF1pDwDld3t9bspk4ZKZSaPmJyuTr88YaT1KDmy2yet79P/jpN5zuWpkwU263PvyupNpaolaDgAAAAAAAMWGQGpB9Aw4db3uB9V1+/4v4wfUv2q6GWX/5XiOA01pJtNV98v6yIwGudkVCJ04qkE2T6u3smIze1tesnokiMkd469L+gwprZCbR2UYfT+i2fUzpLbSfpx2e30eVC+4XuZNnyGr1i+UpXVmQC6jemyNLFzZIPOs+acHNrc377ZH179J96Fa01NWlVu6cq49iNSev8h2a2KPqOUAAAAAAABQXAZNmTrtS/O4z4wZUy2HDlk5lAPWzRO+L49YwVIl3ixT979tPy69TjZPqzMBtgPyYIv3qPduE8c0ycbRMWk/vE7mHfIJvCZ9bopTB2TbyfFyTSwuz7y5xn9k/0yfkbSsFXLvjEVyxzD/z8tmmWcvaZKm6eaJdMvmhzbIBiuVN3+qF9wg99w0zuqX1Fu3tK5z9WHqUr1goayyMkg9dO6WZQ/stDOBU0QtBwAAAAAAgOJBRmqB2Jmntm1xE0TVnNv+tXwONHXidzLvzWZ5Jm4PdGWLy7bDzdK4e5OsNQNgZWQ+Y9up5Pe2nzogz7RtDwz4hqWzN1utTkVFOra8lPcgqtauB5V6aKts3pMyEFSner5nqyx7yDuIqrU/u0GWrdPLqPtRdXRL6xZVLkMwNGo5AAAAAAAAFA8yUgEAAAAAAAAgABmpAAAAAAAAABCAQCoAAAAAAAAABCCQCgAAAAAAAAABCKQCAAAAAAAAQAACqQAAAAAAAAAQgEAqAAAAAAAAAAQgkAoAAAAAAAAAAQikAgAAAAAAAEAAAqkAAAAAAAAAEIBAKgAAAAAAAAAEIJAKAAAAAAAAAAEIpAIAAAAAAABAAAKpAAAAAAAAABCAQGpBVMi9M74vf6xrkntLzaSCc5bh+7J5zGQzLV+KYf0AAAAAAACA3kMg9WxROknmDLMfVo+eKDfbD4uICcbOuE4mmikAAAAAAABAsSCQerY48Y68fMp+2H54n/zSfohQymT2ghvk8fVNstH5W7lQli6okWrzDj/VdTNl6UpXufW9Ww4AAAAAAAD5RSD1rHFEntj9A5na8gOZd+htMw1ZG6sDmg3SdNM4qTKTLJUjpfamubJq/UJZONZMS1G9YKGsWjRDaivNBIspt3Kmb1A0ajkAAAAAAADkH4FUFIlRconpeiA0K8hpZ2w+vqDMTMynMll4lw5odkvrlq2y7KE10ni7+Xtoq7R26veMlHn1Nda7k6hlu+emkeqBLrtJlqWWq5whq5bksRwAAAAAAAB6xaApU6d9aR73mTFjquXQoXbzbCDS/X8ukjuGxeWZN9fIEycq5OYJt8o/xGKJrML2eIss2/872WeepymdLPeOniVz3GVOHZAfH9gkvzxhJiQ48zNPU7QfXifzDh0xz7xNHNUgq0aPl+oMwc2ez4m4fmoemwPmkRBvlqn7vTNpZy9pkqbp5ol0y+aHNsiGg+Zpvowtk9nSJdu9PnfsTHn84RlS1blblj2wU9x7srNsHVs2yX3PdpmpjhpZun6u1Hosc9RyAAAAAAAA6B1kpBba8Mny5IxF8ogryKhVx+pko89ASxPHNMkfp9XLHallho2XR6bpUfgrzJT8uHlCk2ysyTLAmSrk+kWaR1846BNE1S4emXy7f0KNXGUFeN+X5rRgqNYmz27pVv+PlIsvtqfYopYDAAAAAABAbyGQWlAxuaOmXq7RmZtt66z+SvVfY9sB++VhdbJ4lP0wYVSDbBwdUw/isu1wszSaMk45nf1YPfpWubfUerfR0x+q+6/xcNy8noGanw6C6vklL2OLybQ8IA+aaelZrSHX79imxHumtjTLNj3tVEvSOib+fLJRte3Nu83t9TqD86WCZWhW6yxVPfjUonHqWbdsfjo5G1XGXiBW96Z7/iLbrQk2d4C5veNj6//KKleXBFHLAQAAAAAAoNcQSC20UzoQuUaeONYThNx3bJM8aGKcY4e5s0sr5N7R461H29rWyD2H3k66NV6Xm2cFKWMyJ5afrNSJw+zAnJ5f8jL+zsxrvFyfGux1C7V+eXJwpzz2gN2HaPpt8Hmmb+M3I+ivelgPPnW+yJ6tsux2j1vsTaZqR8dx+7l1S74q5+7L9YNu6VD/VVVdYD/XopYDAAAAAABAryGQWlBxeUb3aWqeub170iNbtHSSzNG3vp9qkbXH7Elpju2zMjmryyZ5dgvQG/yDoSHXb0AYKVUVX5Gv12WRGVr3Fak1D0MFQKOWAwAAAAAAQN4QSC1mw8vs27mH1cnGuu/LHz3/6uUa6835se+UndF5TU2D3OzuLqB0sjxZY2fHHjyVekv/WeTgTrnPjKC/7KFNsmbL+9Ih42TeooaebNEUieBnyy7ZbHVB0C2tf2izJmUStRwAAAAAAADyj0AqkiVuw7cHskoEbKeZgG282T879izTrgegevZFue+BTVags+qm62XhWPOiZm6/79ElG6wuCDbIYy1mUtpt/ErUcgAAAAAAAOg1BFKL2ckue/CieHP64Eupf7t/l9R/am7s2/CTBk5yBrvan9xPa94NK5NLzcP+o0t+v9seRf+KK11ZqQePi5VIOv0rMtuakK666nzr/84OV9+uUcsBAAAAAACg1xBILWYn3pGXT6n/Y7NSRuXvRdao/SLPvPkDmZcUrE0f7Kp3lMlXwq7r2JmydKU9AJTf7fW5KZOFS2YmjZqfrEy+PmOk9Sg5sNkmr+/R/4+Tes/lqpEFN+ly78vrTqapJWo5AAAAAAAA9BYCqUXtiDxx2B6V/45pTfLkmMkyMSnIWCE3j2mQzXUNcrOZkit71P6YXBLrhdH1M3pbXrISYdW6jr8upX9WtZ6j/Jdndv0Mqa20H6fdXp8H1Quul3nTZ8iq9QtlaZ3pt9aoHlsjC1c2yDxr/umBze3Nu+3R9W/SfajW9JRV5ZaunGsPIrXnL7LdmtgjajkAAAAAAAD0jkFTpk770jzuM2PGVMuhQ8k3kg8sFXLvjEVyx7C4PPPmGnnihJnsMnFMk2wcHZP2w+tk3qHkwZyc13ydOmCNlu/1uW6Z5pFQep1snlaXIftSpF3N7+XD2+WJY85n5LZ+CRnnfUAebNkkvzTP3GYvaZKm6eaJdMvmhzbIhoPmaZ5UL7hB7rlpnNUvqbduaV3n6sPUpXrBQlllZZB66Nwtyx7YmdKNgi1qOQAAAAAAAOQfGan9wL5Da2Tqm83yTDyeHDg7Zfot3R0cRM3aiXfkx2o+mVQPGy931CySJ0eZCfly4ncyT63nNrVebjpw+0zbds8gqqazN1utTkVFOra8lPcgqtauB5V6aKts3pMyEFSner5nqyx7yDuIqrU/u0GWrdPLqPtRdXRL6xZVLkMwNGo5AAAAAAAA5B8ZqXAxmaXSIo2+g1dVyM0TFln9qGbMLgUAAAAAAAAGEDJS0aN0kswZJtLe9U6GQaWOyLsnM2esAgAAAAAAAAMNgVSkqR59qzw5qkImmueOiaWT5d4JTn+tB+THZKMCAAAAAADgLMGt/Uhy84TvW7ftZ5Tl4FYAAAAAAADAQEEgFWkmjrpOFo+eIGOHxZJG0HdG6//tsSMZbv0HAAAAAAAABh4CqQAAAAAAAAAQgD5SAQAAAAAAACAAgVQAAAAAAAAACEAgFQAAAAAAAAACEEgFAAAAAAAAgAAEUgEAAAAAAAAgAIFUAAAAAAAAAAhAIBUAAAAAAAAAAhBIBQAAAAAAAIAAg6ZMnfaledxnxoyplkOH2s0z5Kz0Otk8rU6qzdOEUy3SuPt3ss88Rb6UyMKGkTLv/C9k8y+Oy4a4mdxrCj2/fIu4/LFSefy24VJlniZ8fFKWbTohtCAAAAAAAKA3kZGKs4wO4o2Sjf+o/hpKe4LNl51nT1N/Sy8z04DI2M8AAAAAABhoCKQORCd+J/NafiBTE3/Nss28BJePz3hkMX4hHxw3D1Fc4ifkvn85Jo2Jv0+l1bxU1NjPAAAAAAAYEAikAgAAAAAAAEAAAqkoHmNnytKVTbJxfZM8vqDMTMy3M/Lhx+ah2/EvpMM8BHLHfgYAAAAAwEDDYFMFVyETR82WVaPLpHpYzEyLS3t8hyzb/7bvQFATR10ni0fXyTXDzIQsyvSYLE/W1cs1IQabijK/iWOaZONokWfeXCNPnFATSifLvaNnyZxYLNFHZHu82fczZi9pkqbp5ol0y+aHNsiGg+ZpHs3+5ihpUgvU8Wa33PfGGXtiYiCjz2XNv3wq2+2pKUqk+rLhcs/0IVJ1vj2lo/2kNLeqla3Vn+k/eFL1ZaWyYPpwqTXl9K3dHe0n5Mn/+DzDIEm5zO+8pHJektbfERsiC2tL5YrqwYlBnTo+/lya/1PVic+gUNVXXiCrpknPsnh9RvunrnVNHmzq9zJEFvy3UlU3g61X5eMvpHXPp/LYn1OWLc0QWfqP50lt0GBTzrb1fV8Wg19FqJfo+xkAAAAAAChGZKQWUulkeXLGItlYM94VRNViUh2rl411TXJvqZmUUCH3zvi+KuMOamqZyuQiP/PTQdU/TquXO1xBVE0/ziaQ25sOffyF9X9ntytQFz8jnfp/9doha0IqO9i2ak5ycLKqerg03XaB1PsGLO1Bh1bNcQdRtcGq7Hmy6h8vkIXuXSEh6vx0AO+CtHLZ0AHRjbedJ/NcwUKt6vwhap6j5PErS8wUf76fof68Ap0X16plVe9PBFE19bh2zkjZ+M0hZkLfilov0fYzAAAAAABQrAikFsxkeXJavR2cPHVAnmlb5xoMap08ePiAtEtMLhluv9sxccytcocV0IzLNneZN5vlmVN6ekzumNYgN+uHeZD7/NQ6jG6QjaNj1no++GbyejYeftu8L9325t3SakWZRDq2vNQr2ahauzuwlfCFfOB1K7Yx+5s6Y1E/+kJaX+5ODHi07BefSuvHg32DltVXnudZrlGV22zNb7DMu+08ma0fukSdnx4VvqlaByW/kM3uci+fNLeU60xIe1pSNqoqt2qaXa71zU9lmXmPXfZzq2zVtPN8gr7aYLm41nzGx2oev3Ct6790y7LWz8373AZLrVpWnWW75hc9713zph2AlOrz+n5k+xzqJcp+BgAAAAAAiheB1AKZOGaWXKMfWLfXb5Injh2xptuOyC8PbZJ5b66Te46ZSVrpdbJKByQlbt0uf4+7zIm35Ynd60xwc7z8w5gKa3JO8jS/a2Ljpf3wOpmq1vOXJ5LXc5++5d/PwZ3y2ANrpPH2NXLfs11mYm/xGTXda4T1WKnUW2m19q3f7lvO2+Ofy2Obuk1QNIUqd48JwqWWE1VuQ6LcEKl3ZzVGnZ9SPdL+nNaXj8sGd7k/n5D7XtbBzCFyVVpwskQWTrezP3W5x95I7m6g/c+fmrKD5Yqv+Gel1lYPsW5jb9ykb3d3BxFVnfrc/m7d9v4fJ1y3x5+R7W8cl2UmmFo7ri+zUvNRLyH2MwAAAAAAUNQIpBZEhXyrzAQoD2ToozQp6KgML7Nvi4/vsPscTXNEnjh8wHpUXTZJJlqPcpCv+cWbZd6hlHUpJn/+VBr/JbUvzDOyYdMxafwPj8zJC8wt3e0nvPvP9BNYTs1zjz2/quohPV0gRJ1flipNsDUhNkSu0BmuH5+UZ/9sT0rz58+lVf2XtJyp2j9N73M1oy9k11+839/+FzvbU84v8Z9fb8u1XsLuZwAAAAAAoKgRSC2IUXKJdbt8l/wlU0ZmionD7JHr20+601RTnOyyM9vUey+1JkSXr/llLN8POVmeHabPy2xlVc4Zxf38wTLGmhB9fppzO3ntnPNktvt289gQWTrHzq5M6rNTcwK35w+XVf84SjZ6/p0ntdab/UVZ3kCueim4PNULAAAAAAAYGAikAgPJnz+VNVak2x4IKRHw0wM66cntn/pnVwIAAAAAAMAXgdSCKpOvRBhhv3r4KPPIg3M7/qkuedeakLtCz6+/qHKPLB9CxnJO1qPHKO5R56dvmdfswaUcZrCk/0ju59PiZMW261vRewZT8vzbdKIwfXtmqJeCKcZ6AQAAAAAAfYZAakG8LS9Z/STG5I7x1/n3LVpakfTavvh+OzgTmyX3egZgK+Te0eOtR+1d7/j3veoIuP0/7/MLa+xMWbqySTaub5LHF9jdDBSDRH+d1UPSRte3xAbLxR6j6PeUK/UZ7b5nMKOO9p4AZ9T5WaxR+0U2/+KY3JcU7EsfLCkh/rns0oNX+S5nb1HrcYF5mMS7XnwF3f4fPyOd+n+f91VfeZ7M86rPPqsXAAAAAABQjAikFsgvD7fYAaFhdbJxRoPcO8o96n2FTBzVIJunLZKNEyabacqJ38mPnQDstCZ50l2mdLLcO2OR3GH1vXpAfpxxcKdj8l5itP3JPcFa9Rk3uwOmeZtfNLPrZ0htpf246qbrZeFY+3GfcwJq+nb5huS+R6svO08ed26bTxU/Ic3WRh8s8267QJZe5hrkKTZEFjaMNAG8z6XZPUhT1Pkpdv+qg+XiDKPrp3MGvTLLeeUQqU4KHJbI7CvVfP9RLYuZki+1c0bJ43p+5nnGeknzhXxg6qk+5TOS+od1va/pm+73lcjCb14gq6b5Zf72Xb0AAAAAAIDiM2jK1Glfmsd9ZsyYajl0KDDvrP8rvU42T6vrCeSkicszb65JGTG/whXA9OJVJt3EMU2ycXRSFMgWb5ap+982T7To83Pm0X54XaRR+2cvaZKm6eaJdMvmhzbIhoPmaV+Llcrjtw23bzdP9fHn0vrxEKmt/kI2/yJ1lPYSV2DQi1cZJer8MpUzOlT5XXtOyoY/Jwcpq6/MFFRUVLnN//lp2rI65Tre7M5y1H6nTr5QyzJYqjzrxqdeUvgus74d3z0y/mXnyUYz2FYqvdzN54+UJs/tF71eAAAAAADAwDK4vKJihXncZ0aMOF8++cRKGRvY/ut92Xi4TT4cdK5c8n+Vyfl/Y6ZLXNrj/yF37dkiv/ovMynhM9nZuV22nS6RUcPHSHVWZdJ1fbJLtg2qkK+NUPM10+TUAXnmyD7ZefIzM0GLPr9RI66Q+SOGy8ef7paNn7g/MzsHjwyWcRMqpepvRTq2/FJWv3bSvFIETv2X/Lb9C/mb4SUy4XwnkVv3O/qZPPkfJ+Wd2FCZWyFyYN8p2Wtl/zr+Knv/dFL+8OkgGTnyb6RqqJmsyna0fyb/702fyatJ7zeizu/Ul3Iq9n/JFYky6f52qPrMccNk3Kcn5bXjZqLy8Yen5Dkzz/NUebUZbB+r+e635+u1rOdfNEwtyzny/xw5Lb/98K9maibnyOSvDpMJp0+r9f9Ytn5aIpNGlqjlsl/taD8p//6fn8qWLAKTepn/MFiVr1DlzTQrsLnv/yd7j7uW5fjnahskz0e/b82WbvmXd/8qg3y3X/R6AQAAAAAAAwsZqcCAYTI95aQs8x38qERmf1NnX9qZmNllkAIAAAAAAIA+UoGBIjZErjhfZ3RmGqDpjBz62B7VHwAAAAAAANkjkAoMMFXTzrMGtkrti7daD+SUGFwpaCAnAAAAAAAAuHFrPzCAzP7mKOu2/YwYHAkAAAAAACA0AqnAAFN9WaksmD5EKs8fnDR6vzNa/+//fCbDrf8AAAAAAADwQiAVAAAAAAAAAALQRyoAAAAAAAAABCCQCgAAAAAAAAABCKQCAAAAAAAAQAACqQAAAAAAAAAQgEAqAAAAAAAAAAQgkAoAAAAAAAAAAQikAgAAAAAAAEAAAqkAAAAAAAAAEIBAKgAAAAAAAAAEIJAKAAAAAAAAAAEIpAIAAAAAAABAAAKpAAAAAAAAABCAQCoAAAAAAAAABCCQCgAAAAAAAAABCKQCAAAAAAAAQAACqQAAAAAAAAAQgEAqAAAAAAAAAAQgkAoAAAAAAAAAAQikAgAAAAAAAEAAAqkAAAAAAAAAEIBAKgAAAAAAAAAEIJAKAAAAAAAAAAEIpAIAAAAAAABAAAKpAAAAAAAAABCAQCoAAAAAAAAABCCQCgAAAAAAAAABCKQCAAAAAAAAQAACqQAAAAAAAAAQgEAqAAAAAAAAAAQgkAoAAAAAAAAAAQikAgAAAAAAAEAAAqkAAAAAAAAAEIBAKgAAAAAAAICEf/+3Z6w/JCOQCgAAAAAAAAABCKQCAAAAAAAAQAACqQAAAAAAAAAQgEAqAAAAAAAAAAQgkAoAAAAAAAAAAQikAgAAAHlWPnmufHdxo1xungMAAKD/GzRl6rQvzeM+M2ZMtRw61G6enc2myPwHb5Wa+Kvyk7Vb5aiZGixqOSAPJjfK8nkTzJMebZtXyHNvmyc4S1TItYvvkm/EutT2f05t/yNmOgrl8oa75ZaaMom3PS8/2vSWmdqP0b5EVj7nbrmzrqxv6+os3n5O/Yu6Nnvh+a2ytz9enPXT7VeYdrBCzWe+1B17Tn70Mue63DjXDvvlhUc2yl4ztdgV7fmW82a/0Zvn6QF3PYg+8+//9oz1///9v++w/u+3yqfItdfMlvHquIiZSfG2V6V5k3/8LNNxREZqESmfM1tqpEteUxfcYa63fcvpE+mDK2T54rlSbiYl0xcu6vUH858toU8MvfG5fUsHrHV9Bfw1TDHvPzuUl6kvimn2y34u1s4+k69VX4T0gzKpmXihNamYDMx2yaV8rtSpk70Wi13o0+73L7QvUVXIxAm67rqk6yN7Sl/oy+3Xl8f75Q0rrC/H+sJb/8CdGkS1l22FzJ9sJqTxuz4r7HVIvzz+CtYO6uCp+jJWd1eG7YjsXChl+toh3iXH7AnFr4jPt5w3gxXH9WAvnqcH4PUgik+/+l6ljonvLrpVvqGOCyeIqsVqrpY7/e4cCjiOCKQWC7Wh6nXmQtt2eSVUFNW/XOJEGpsgEz1bUHPh0vZOnn/9NSeG/nRBlI3Jk6TGPMwkfqwPv7X2gaMvPyWPPrLC/D0tr8XVxIG27ZGdj7pEb359UfjatmL79XuAtktuR/fKAWsDdEnb/r0D4u4E2peonMDEftnXhztC322/vjvedRD1FnWxEG952spe8Kr+UaP09VmmL88+gaUCX4f0y+OvgO3g3k12ndTM6ydfJItV+YX2F9v4R/3nvFXE51vOm0GK5XqwF8/TA/B6EMWmP32vqpBrb73aOs9YP3An2scV8pPN+9Ux8op3LCzgOCKQWiQuv0Zv3P3yQsjU+0zlrAt1tXPHpUzGT6owU13MhUv+A3/OiaEfXRBl4+2NrgsTdeC1dFmT9e0Y7uln9y1eA3TbIztHt8qPrOPgqXA/CBXE2bBvHpFX1tr1/9yAbIdoX7JWlIGJQm6/vtlXdHZGIojqewxOkQlWNLRLuvwWzm/79el1SH85/grZDqp5vbpf/T9B6uZ4XGcjK+WTJlj7e9u+/nT7cX8533LeTFckddKr5+mBfj2IvteP2pbyy2W8dZKxb893L+9RdV3lf4xkPo4IpBaDyY3mwtsnGu4nYzlzoR7fb0XSY6PSb7N1LlziXXluYE3GREEviHS6tnVL291ybYHuXwjOKDkL9cW2B7LBvtn/sQ2zd6F961JR3SFRyO3XR9ch1h1C8VelOdMXV+fLc4a7gbINLBX0OoTjz9vbr1gZf7EJl3P7bERcT/cijtt0xVInxXieBrLVj9qW3vqxjsGm+pzpYF3CDhQVUE4HFhddLdLytDTLfLmzriutA3f79rMueW2dR/ZYeYVcfs18q18I64Jfi++X1159RV5JG0BmisxfPFtqYvpCKIh/R/Llkxul/mq1oydm2CVtLdtlx8vet8b1MINtmWeZM0HyxZlnUMf4ZjvFn5dHraxhVa9zrpW6OvuA1nSKebPP7X/RmUEQXNtPd6bcsm2r7L1Qd0Jf5r3dc6Szce6skxCfHW050+ZTrrbHra59UO2rLzyvtkvaMkSvl+j7ZxjJ+4se8XnW1Ver9bJfjav1avFcL1vkegl1vNuc21e9ZHMMRq3PcrVOE7PqKDw/7VIh2dt7gmuZu9S6qW2u90+vSlF16DWghA7kZHc+CXs85NqeRT/+tLDtS+j6zFnx1OexSbqu8juARa71Gfr8UODrkFzXL+M1lZs5bjO1k9l9VrbXIfnRu9vPLeRxlHM7qBY16/OKt9B1E1G05QxZnzm3S2GZ+ZmBpo6FvO7RCnJ9Fmk/c9XlNrEGOdH981nHgVqnV9QxnDbNZzuEvR50RNk3s6/PXNavR7jtF2X/zM/1YLT9zP/4y+t5OtL+qUWpz3wI2y7lJpfzey77Z/jjNlq9pB3nef5efOf/Rw829ZZs3vlffXQchZXtMZ+ynCGPo8HlFRUrzOM+M2LE+fLJJx+bZ2eZyd+W70xXjehL/yq7wvwgFVTukivlWxPK5IM9v5JdJy+RWRMmyKDuV+SdxHsrZNLsr8no4Ydkz4t7xf0Regf/X9/57zI9NlyGm2mW4WUyesLXZNLg/dLa/pmZqJRPthqnpPf6UQfyq394T06Ypza9sy+W69X6DE+eocTGTJQZXy2RtrQyLnr+tWMS8z91+A/Jy9cbnHm2bZdf/CnDYV8+U7519Rg5tX+btJ6aKd/9f90q08eo9TQva8NjE2Vsap3mQgfR9XxStt/w2BgZX3u5lJ8zRjVe6ds9H8ZdeaOMz/azc1hO93wGqZPHkvpaibl3nuFdciC1XMb5Vaj56Ubda3457p9hOPtLPC5/+9UbZZ6+kHGvljoGdd0MPvCGtHvMMEq9hD7eLU77YZ6m0O1OT1uTKmp96pP97bLwm7Uy2mMbzpidUi85t0sFprbDknkzkreXWvrE8dB9SNVp8nYo/+q1MmNM+hrG9/xatgW1J1GOh1zaszy0S6Halwj1mZMo69dr9Vkh55aq+Q1XF+zPZVFX2chDfYbZfgW/Dsl1/dT2+B/f1NcEv5F/fyPzVwHnuPVvJ/2vz5Jkex2SJ726/RwR2qWc2sGw5xUfJ/5WX2erY/kD93V2PkVczkK3S5FcIl/77xMl1rZf4rP/TuZN122XeUnJfN1TuOuzaPuZWbf4ICn/5iyZ5qyYWqfhf1shX1PTxrumjf7b47LDOZZzvB50hDpvhq7PHNbPEmH7Rdk/c74ejLifFfA8HbkdLPjxrkRpl3IR+fyew/4Z5bjNoV6ifP8LM7+r/0e9vgdeugaPTnqvr96I94SR9TGv6mV7T72EPY7ISO1TaofS2QQhfjW3BZdL/mXCvL/N+bVJ85qmqMbGicQn/wKlLmDnXKs+U7+WKUsi7DqZ9zu/Rryj5ucUKp8i1956qzUKeNCvdZc36H7J7BFy8/+rmQdTT4GZd8774l0isTJ1saF/EXpF9h7VZfSF8V12Vl/qdojMqU9FbYMXnu/5pc36BUgti/UDUOh9Lhs++5SnXJbT/Nqns7FfLZM7df3q7b7N2XdUvU4W2ZuU8dIzv8QvbVnNLz/7Z9bM/mJT89z8nOxQ62HN0vp1US2LXlDPOo5QL675RTvekwVnUUWtT7Nu1kZKqRe9Xs6v5777tZlvr+z3+eCsn71uzyW2kdoOk681+2f2mW7B+2PE48F8fvj2rGd+4Y93h/kMz30/VZ7qM2sR169P6zOMfNRniO1n6kUrzHVI7usXJusr63YyaPmd/aeQd+H06vbr2a/DnadTmPkHt4O5nldc9BdScxdY/rdF1OXsqc/CtEsRmbqzliV1/TJe9zjrp8oU4vosVTb7mXvd1PL/RB8LppwldZp7Hd3vC1UvbqaOMr7HEaE+c1m/qNvPfFb0/dPMN5vj2hJxORPllDDHX76Yegrc/3Ouz7AKXS9Rz++57Z82e57h2jMldL2YdYz4vTib+f3Tv+mMVJH/+3/fYf2fKJ/1dopYn3kRdlldzPb0Wy76SO1D5XNmWzvUa2rnDbNRsymX6G/IesNbsr9N/VczqWdUUc+BptSOZg5+vcMkd8arGoGXN5qBDXwGr9JCdpx9eYM+qFSjrRqw53RKt7vQ0bfkledftUYBj5Vl7sR/7yZ7hEq/EXLzrbzMThUP6l/WeV9MnZz0Bfaja3VavVPmiOzdZq9fvtj1qegGWjUWTqOo6c6Uf7RZD4qg9EbH0J77lLfcltN0bi0TVEOvb4lRX1z0dk+8UdVr0smiZ376xPKjTf7zi6eMyJev/TNbzv5inbh0x9bOyVdT83vOzE9iF3r0xRa2XvJwvCepMPP3H0Alan2Wz5lvnWA960Wvl1rWH6173roQ8Jx1r3bon0fqAlZfcPVQ66n3z0eetuosKEBj7z/B/cxFPR6itme5He9GiPYlIcf6zFbU9evN+rTK5Xt/z6U+s95+hb8OSYi8fs7ItdmMvGzayUzvzXL5nf0n7/3ceynA9ovaLqXKth3M+bxSIFGXs9DtUlRO33Vhr3vs9Svc9VmqrPYz0wemtW7OsfBRl2mfXdMM9/HlbIew9ZIkxHkzUn3msH5Rt1/O+2fI80PU5czm+LPrKc/naSPrdrDAx3s29WLJd72EPL/nun+GPW5zq5fo34sjb4cCHUd5EXJZ3YKOIwKpfaXcDErQtj3cl7msyjkDTXXJMXuC7N2nD4gJMmGy/TzRwbXrAtwO0KppqiH1+zXg6Dt2w+81eJXFfG52nfk6I9dOkFsW6YGiPP4Sv1IXE/OlSTUI+wN+NbED2qo+dKOWIUshm4ucQGrfqLM2oH3xkkmvdAztsU95ynU5nQZRnfTjm+2TVEau+enMmEySl73w+6fzA4jvjyRHP/K/oAlZL3k53pM4ozf2tDvJotbnFJml2zx9AlYne99mT52I3RcCSUK1S33hiHRZFX211DdMkfK0b0XqIijwPJFlMCfy8RCxPctXu5Rt+2LJR31mKYf16836tOoqH+cVSx7qM8vtV/jrEC3X9Qsxcq0zcmyG92Y3KEL21yF50dvbL4d2KVm2Qe08nFcKIuJyFrpdykG0656+/v6Q3X7mBFXaXnWtm9M+uaY573Pv2zldDzqyPm9Gq8/o6xd9++W8f4Y6P0Rczj45T7tl2w4W+HjPoV2KLsr5Pdf9M+Rxm2u95PC9OPJ2KMRxlC9OOxh6Hw4+jgik9pHLr9E7jLowCtiBU2VVzivy/vY7YiWlTpxiPb18os4YSI6wOwf/gXeCTrj+vD7Xlxntrf8JChg5nAw9/UXHu06dL0zBFznBEp+VIVsj6JeVXNjbPvhLXc7L6TSIGb6ouUWeX8H3z+CMzoxC1ks+jvckpt3xreeo9em0ZxlGuA4Sql3qI3s3PS0vtHVJrOZWudO60Lhb5s9RF33m9WDZBXOiH3/R2rN8tUvZti+O3OszO8Vbn8nlcpVrfWa7/Qp+HWLktH5O25fNRXoWF/ROHWRe/myvQ/Kjt7dfvtqJbNvBfJxXCiLicha6XYou4nVPn39/yG4/8zqWvdon+33u4yvH60Ej6/NmxPqMvH6Rt1/u+2eo80PE5eyr83SPLNvBAh/v0dul3IQ+v+e8f4Y7bnOul0J9L3YpxHGUL86yhr+uDD6OCKT2hcmNVn8j8ZZXwl3AZVvO80Ld4/b+pAM9y4M/45eAcA2IcxLRt3/p2/Iz/WX6lazgnAvbwBNU8Bcdr4uQqJzP8m8onAyW7LZPOGbbZ/GlLtflDNsgRp1f4fdPs79k+sKUYd8LVy/5ON6TBV1sRa7PEMvgLdqFTeEdURd7T8mj69QFX4vO2CqTmjp10Wdd8GVxq4u5UAn6dTj68RetPctPu5R9+9Ijx/rMUvHWZxZfnkPJpT6z3X75aJeiHu+57y/ZfNF02kH/92a5/Flfh+RD72+//LQTSpbtYO7nlRTO5+U7KBJxOQvdLkUX7bqnz78/ZLWfOVlY7jr2OkbM+5LqPLfrQVu2x23U+oy+ftG3X677Z5ZtlBF1OfvuPG1k2w4W+HiP3i7lKtz5Pef9M+Rxm2u9FOp7cY/CHEf5EW5Zk2RxHBFILbgKufZqtcPHX5XmUDtL9uXsHTb9ALFv7y+TsvLsT67JzDIo3heLWTQgHnqlP4zelO2FrTkAAy9yohzckQSfMKNzPjsfX+oyLWcv1FniVkvveinY/mn2l0z7lZ2R7tWo98a+FHS8J8v2Yqvwx3u0dqnPHFUXfLrPO31Rse55aYvrC775cm1AapzT7ud8set3PPRae5ZNu5RD+xKxPvPHZ/36tD5zEKk+c9h+aXrnOiQhyvqZa4IwfNvBydfa/WEGLX++A4EZFXL7+Qg4Tzvy1g6GZH+R7aWgSK8odLvkwwQVol339N33h6z2MydgknQse7RPXgHRnK4HHeGP21D1mcv6GaG3X877p8fyZSH/+5nP8ZcnWbeDhT7eA/VuvYQ9v0fdP3M7br1kqpfe2EZB26FYjqNsRN+nsjmOCKQWmNNpfFJ/MlkIUy4R0Eh9o9UBuO7g/3Jrp0pO6TZ9iIirH9UU7g7vd3hdLDonyywd7dIDDqgDa8Llvun15ZMrAm6tmyLzF+s0/RXy3TxmGWWS7S8/9gGYqbHsjRNGmZR5dhunR140HUuHuKjKWhYnj2RRlzNqnfkMTGKNFGif1FLnl5/9M3vO/uL75dJkpHt/WQtbL3k43pMEn8gj16cZuCBWd60rmz6F2o6+2yFku5RMfelvuNtuXxrsblHyT7Vhut8m8yyJ7pj+VfMDWEA3tb7tvqfwx0Nu7VmO7VKo9iU/9RlO+PXr0/oMJQ/1mfX2K/x1SF7Wz2mjsviSkGgHPft37QkyBn3JCpuBkpOCbb/w7VKqrNvBXM8rSbwyCvMkp+UsdLsUnnMnix89erTXdU+hr89SZbWfef3Y4XUsebwvt+tBI8R5M1J95rB+UbdfzvtnQb+nFvI8nSzbdrDQx7ut+K9fct0/ox23Uesl6jbKYTv0SbwnImdZI+xT2RxHBFILynQa3/Z8Vn1Y9AhTzgQ0vA6oo3vlgLoii03wvgXXzlgVqZl3t8xXO3SCvohtuFvutDq8z9CBsqNmtlzrKl9ulZ+bfhFo+m3VHUDfuVi97jqC7DJqnvPuklk+F+SadbCboznTAZo/2f/ykzgA/a5hnAuODH2UhHHsmN1Q1cxrTK7LyXNl/uK7TOOt5pfFRVVUehsk5l2uGmP3fmTktJwRGkRnv47V3SXfnTNFzVM11mb/+u6iW+0vdUrahUQe9s8w7P1F14v+UcB94tcntbtleWIk5I3pvwDmUC85H+9aNtlCUevTtFtWJ+WL9T7jXlZTN2o71gf9kJJtu+RifemvsbdLTJd3LXO+WIOz6H6bFtvbIWkWahnnm8BKZk67NEHqXPVQPlnv7+aJEfV4iNqe5bNdyqZ9yU99Zi/q+hVDfWYjn/WZzfYr9HVIofeXRDuo5pnUzuvlU9svux+veiMDJVhvbr/I5+kk2beDeTuvaOZYDZsgkZWIy1nodikq57rH2e49i2qv251+1z0Fvj5Llt1+5hVUyXZaTteDKbI5bqPUZy7rF3X75W3/7OXvqYU+TyfLvh0s9PHeb65fcto/wx+3OdVLhO9/edsOBYz3ROX8WJf52sFLdsfRoClTp31pHveZMWOq5dChdvNs4Cqfo3aUOpHX1j0VaqT+UOXK56qLzqsl1va8POoxIJX9WXbD6fV5lzesSBxA6bzL9Kjo+SLgQfeNkRYIntyYaFi8xNV66BFcvWeZMj+fdc5N5nVKUF98fpI0oqpTbr+88Ij3hY6zLTzrJRJ1UnjQ/IqUKq6WY3+Z3BJh/8uOz7zT6kXLYTnN/qI71A7Tj4rffh1ve1VajqkvKAHz85N5/wzD7C/qGNNZ4zGf/c13vfNcL7ag490l2/lHrU+nXTNPU+nt2LzJ70tshHbJ6GkvtRD1EVLyfDyoetEja2aatd9neK1f+OMhl/YsH+1SmPYlP/WZvSjr19f1GU7u9Rlu+xX6OiT39XPab+/1SZVxfnobrk3dJzKvU4JPfeauMNsv8nnaxa9uPdv5nM4rDlM3vVb3SqTlLHS7FIVz3OxXX7InJJIiknWpeT2n5uV/3eMnf9dn6bLZz+z9OXl/t6e569erzp16iXg9mBDuuA1bn9HXzwi9/fKxfzqfYZ6m8CwXaT+LcvzlT3btYD7qM6zC14tfXST4nd+j7p+Rjtsc6sUsZ7jvf+Hn9+//9oz1///9v+9Q/xbqOMqdVzuVrWyOo8HlFRUr7Id9Z8SI8+WTTz42zwYodSH0v+onyPC238i/vxFiS4Ytd8mV8q0JZeo42Cat7Z+ZiT1OnDpPJtWOkeFySPa8uFdSf2v46E+vSFt3hYwdVSbDh5uJcXUhs+c30vzTX8qfTphpnj6T9j/sl8EV1TI65hRWxdVBufVnagd+z0xw+2iv7DhwXMqrR0ksMUN9QL0qW5//V3lRrbP/LNX8Pq+QSWp9h+sD/zf/KR9lXL4oLpGv/feJvhewCR/8QX7zJ/f2MeXUcr36h/c812HclTfK+FiXHNjxhrTnZbmPyjuqLgf/7aie+tfb7qWfSvOWnXJy3JUyY0yX53bPnZ53idqOY9R2tKfo7f7mq2/Inz5K3Q+jL2f5V69Vrw2XD/b8St4JsRL2fl0i556j53dSPvhgt7Q8/2u1f30kk26YLaOHex8Pue2fYZj95YPfyBP/tk261TFUpurGmWNifnvTj2ktt3qJerz3yHr+UevzxHvSun1/Wr3oE/5rLz0nv3j5rcztRNh2yehpLzWffSQPTrS/YdWLPiaGu7e72hYf6OPi5b8EXlycaD9k1c/4xDqq7djyG9nxenqdhj8ecmnP8tEuhWlf8lOf2Yuyfn1dn+HkXp/htl+hr0NyX7/P5NxLrpXxo4fL6QPB53M9v7T101++1HXehn/7T3nfTOkR9TokXwqz/SKfp13CtIO5nVds5XMWyPXq3Nf20r/KrnwdcKkiLWeh26Uo7PnJnufk35/9Q8r66eNht7ou2KiOWe/rnsJdn6UL3s/Ud5PZX0vZZ820U+769apzMy3i9WCPcMdtuPrMZf2M0NsvH/tnob6nFv487ZZdO5iP+gyr8PUS+fwedf+MdNxGr5do3//Cz+/W/1Fv/f//bd6s/i10vCcqr3Yqe9kcR2SkFkj6r3TZiVoOQDbMr3K9mU2SDZNxIiEzSouD88tktF/8ip/zK3Mf7yMFUSTHA9DfOFmDbb1xZ8zZrkjbJSfDhm2OfOrX14PAWWqAH7fJGalw0EdqIaiLLX27UrzllXDB0KjlAGTF6j9H/Z+v/n+icvpwSepDqr9I9I+6X/YNxMibGUW7V/q/KzLFcjwA/c7RrdKiOwHrpb6Uz2bF2C7pQZCsIKoO7hJERR716+tB4CzFcXt2IpDa6yrsUVjVxVZzqF8oopYDkKB/IXzwbpmf1Om34nRubfV9sl9a+vgYC+zwvSioNqkhvWNyp++2ARl80/uPyTjKT/9QfayfHA9Af7R326tW32jfWKTaSTMNWehn7ZLVb5oTRCVzH3nWP64HAbhx3J6duLW/l0XtqDn/HTwDZyFzq4UO9HkrhtvRnVvji7wLj0wdhQ+4L5QVcvmca6Wuzg6i/migZBz1i+MB6MdUO/ndq7uk5fmtspfjKDv9pl1yztXqlNdLA2PgbNdPrgcBuAz845Zb+70RSAUwwFXI5Q3zpa6mrOeLmu5Ue/922fFyMXwR6j/9UuoM1FlXX90zum5R1WP+XN5wt9TFdDBEXRANuG/KxX48ADj79I92qXxOo8zqekU8R5EHckY/5UD/M/CPWwKp3gikAgAAAAAAAEggkOqNPlIBAAAAAAAAIAAZqQAAAAAAAAAQgIxUAAAAAAAAAAhAIBUAAAAAAAAAAhBIBQAAAAAAAIAABFIBAAAAAAAAIACBVAAAAAAAAAAIQCAVAAAAAAAAAAIMmjJ12pfmcZ8ZM6ZaDh1qN8/OZlNk/oO3Sk38VfnJ2q1y1EwNFrUciluFXLv4LvlGbL+88MhG2WumDlSXN9wtt9SUSbztefnRprfM1H5scqMsnzfBPOnRtnmFPPe2eQIAAAAAAPoNMlKLSPmc2VIjXfLa8+GCoUHlyifPlfmL75blD66w/9Tj+ZMrzKu9o3yOnl+jXG6ewxauXi6Uspj6L94lx+wJA1f5XKmrKbMexmIXSrn1qH8rL7PXJ9l+2U8QFQAAAACAfolAarEonyv1dWUibdvllVBR1MzldODuznlXS03MFdRRj2vm3SXLF8/tpYBVhUycoOZ3NgQAQwlZL+UXio6jSvyjgZ9lfHSvHIjrB13Stn/vgFjfoy8/JY8+ssL8PS2v6fXjmAAAAAAAoN8ikFokLr/maonJfnkh5C3NGcs5QVYdnNr8dE9QZ93zdlAndrXc2TDFemt+OZmUZ0EAMJRw9VI+aYIVSG3bNwBucw90RF5Zq/fPp+S5l4+YaQMJxwQAAAAAAP0dgdRiMLlRbqkRibe8Eq4fzIByTiAu3vKcPPe2Kzh19C0raPVCy6vywrZeCNJNniRqsc6SAGAIIetl1Cg7CN71kf0c/RjHBAAAAAAA/R6DTfU5M6CQhB0oKricdVt/XVnkwW3KJzdK/dUTJKajsZYuaWvZLjtefitlflNk/uLZyd0H+MrTwEnlc+W7i66WWNvz8qhnFq/fQE1metwup/uPnXW17vrAfjUe3y8tz6v35yVtMJd6SV3+Crl8zrVSV2cHxzU9KFOzWge/Rc1+++XOrscJrnXtUsun6nLbVu+69BmISbIeME3VR8N8q1/Vnvp41Z7fhfqzy+S1dU+5urtI3u5W+VD1GXZ+yexjUTK+BwAAAAAAFDcyUvva5GvlGzGRtlfDDTCVTbmjXV3W/zVXh+0LVQcAV8id89xBOK1MaupulTtT+1bVfXlmFSxU8tVH5IV2QCt+zC9d02egpvLLZbyaHlevX9vg9B9rXlNisQlyy6K75dp8dB6bU724ll8HjR+8S25xBf20WM2tUj/Ha9CwkNsvV5Mb0/vhVfOK1Vxt1aXXwGbeAzGp1c2mf1SnPlxBTc2eX6PMn6gDtF3S5f4gZ7vr/SVsfWacn1o/r/mlSGQXhzrIAQAAAABAMSEjtU9NkfkP3io1WWfhObIt52Q1qofx/fLaq6/IK+5b/D2Zz3ayF995S446MyifItfeeqsdwPXNco26TuEEZtv6ZawmZULqvmOfkx2qTqzlVOs3X62fFVj1zXSNKmS9mOXXgVQ9OFhMbb8XEpmyOjtSB/bUw7TlzHX7heXsY3Zd9nQhUSHlk6+Veh3MVcsSmIlptkvwcjnrp6rGyQg1n2tl4FrzU1Lr2Xx+PKk+X1Fl9fJmU5+K+swXns9yfknMZ+R9nwIAAAAAAIVERmofKp8z2wp4vfZ8uIBj9uX0AD5PywttOng0Qb5hjdTfKJdnSEe8vEEHjfbLC+v0oD+uIJym+1Z9/lWxxqkq88qEVAo00nxg/6E+GauJTEgd+NIDGzlBVE2t33Nm/SR2YX6zNkPWi9O/rZXR2vK0PLrW3d3AEdm7zSxnipy3X1Tx/VZAuoeq17c3yo8eUftfFrez29sluD9Ye/3U7Nqelx9tSu42wJrf5v3W49TMVme7J9ens7xB9anoIOha//ll3K5m2/tnTwMAAAAAgP6AQGpfKTcj6rdtD9dnYuhyR2TvpqeskfrbrAiafev6/Mn2q8mmyAQraqTfs0KWP+jxp7M8rff6MAHM3h1Up8Lc9r5f9vnUweXW7dbqLV3JGbhOANY3CH30I8+AWs5C1ou9nOr9m1fIjzKMYp8cnMvD9gvtiHRZ+9XVUt8wRcrTos9q/wvcTytk4gS1vhm2p0Xt+3VWFPVVqy/TTLy3u67Pp7OvT9f8fhIwv4zb1QnqpywTAAAAAADoXwik9pHLr9EBrf3yQshbfaOWs7It166Qn2zeL3HdV+Y8j35AzcjiubADmMGZhTkx/V36ZwGaQGvacrimBwb38itcvTjLuV/2+9zm7mSsJgXn8rD9oti7yc561n2M3mkFcO+W+XOmhMjodfqDzZytm1jnDP2oeme2uuvTO5jpVZ/R55fM3vb+2xIAAAAAAPQPBFL7wuRGqz/GeMsr4Uavj1rORd+O3NyiB6Eqk/GTkm/vdm5/1lmQjz6S+c87q69AgcqsB5pKzXA009ve8a+/XumaIGy9+AyU5eLVtUHu2y8qJ+v5aXmhxQTq9aBWVkA1iy4ETAA4KFvXWecD7/gtu8lsTavnaPUZfX5uZttnmDcAAAAAAOgfCKQWXIVce/UEsW5PDhXMilounTOaf2zUhdb/qaL3n5lFoDIPnICh363S5U5mZmow1EzP1FelnfEbHNQLJ2S9BAZzMwdm897/abaOHpG9L+t+UVeYriR0QHV+euZzimyyOrOSyFROCVr67Q8JUX8ACA7Q9rwnn4F5AAAAAADQFwikFlj5nPn2qOmvhh1gKttyehT1FbJ88VzfW6sTgciUgGIiwDrhcv+ykyv8b9l2AoC9zCt70GGN5j9P30qdvn5BAVgn4zfvt2GHrBfnlnL/YK53AC/n7RfaFJmv+0U1z5LoriRe1QMxlUmZd7w+IbE9szog0jOpLeVT5NpbTf+vKUHLRKZuyPq0+S2/HunfDESVKUiaRfAeAAAAAAD0DwRSC2qKzLIGinpengsVqAtTrmfwnzutEfrdQScd/Llb7tSfJR63LL/9jrTp/62yc5NG9y/XgSpddt5dMstzoCqXmtly7eSe+dpl1eeZ5/lRJt+4xhXEU/OYv3iFtW5tbXZAMTVgagfs1OLNWyHfTerD066X5SYA27Z5Y+9k1GZZL5kCxRYnOJfad2e+tl+WyufMlhrdL+piPXhZSoBWbw+dQR3IyQadIHWubgDKJ09JWn5t7z57hPxY3V3W9tP7trNe3110q/VDg5YaMI1an8eO2ftRzTx9HFkPLeWT56p97S4TdM8uSKqD24nPUMt9uWs/AAAAAAAA/cOgKVOnfWke95kxY6rl0KF282zgsrIl60ReW/dUqJH6o5TTgcFbauzAYbouadv8lHdQdnJjIqDoJd72vDViuvdi6GzYuxIBrVS6785wAWQfvsvYZdXRvkle9WWWTb1H9+EZ81nGeEvmUd2jCVMvznv3ywuPeAd07f2hzLs+c9p+4TnL4kvNT494n2l+fp/htX6XN6xIBDDd4m2vSsuxCXKL33aPVJ9TZP6DJus0VVx93v4yj/ml8vmM+Kvyk7XhstIBAAAAAEDfGlxeUbHCPO4zI0acL5988rF5NkCVz5X/VT9Bhrf9Rv79jRDhk4jlPvrTG9LWXSLnjhouseHDzdQuibftlq3Pb5RX3jOTUn20V3YcOC7l1aNc5exA1dbn/1VeVMtwwkxL95m0/2G/DK6oltExV9n4ftn6s6f85xmWWsbuCt0fZs96tbX8Rpp/+kv5k1q4cVfeqF47JHte3Cs9uYKXyNf++0SJffAbeeLftqny1VKmyjufkFi/vZ+ZKfkUpl7McqrXXv3De551ba9flxzY8Ya0p74hp+0X3on2N6z5Df7bUTLcXZ/xLvngpZ9K88t/CQwWnmg/ZG2P1O254/X0Zf3oT6/Y+/U5+r0n5YMPdkvL879W6/WRTLphtowe7rPdI9XnUXnHrFtiu6n1atPrtWWnnBx3pcwY05Uyv1T6M0rU9hijtoc9RW/3N199Q/70UW/sawAAAAAAoLeQkVogdiadf1acn6jlkKJ8rnx30dUivZJxir5nMj/J9AQAAAAAAL2EPlILwQxiFG95JVwwNGo5pHEGcPIdaAr9mtVfq/o/rd9YAAAAAACAPCGQ2usq5Fo96E78VWkOlQkZtRy8BA44hOKmM4ofvFvmJw0SpjiDaFl9rO6XFo4VAAAAAADQSwik9rLyOfOtQYbaXg13u3HUcvDijAzfJV1UZj9WJjV1t8qdD66Q5c6fHq3fGlRNDzRG9xcAAAAAAKD30EcqzgL0nzkwVMjlDfOlrqbM6qbBogd/2r9ddrz8FtsVAAAAAAD0KgKpAAAAAAAAABCAW/sBAAAAAAAAIACBVAAAAAAAAAAIQCAVAAAAAAAAAAIQSAUAAAAAAACAAARSAQAAAAAAACAAgVQAAAAAAAAACEAgFQAAAAAAAAACEEgFkNnYmfL4yhtktnkKwF/1goXy+JIa8wwAAAAAMJAQSO2Hhi5eLeVrfy6xxbPMlH7uqvut9Un9G3GVeR19p+4GefzhGVKlH4+1pgwQZbJwZZNsXN8kjy8g6IX8qpo+VzYSTAUAAACAAYdAan8zulFKp1RaD0vKL5IS61H/VlJphelStMrnr5uHiKBC7p3xffnjjOtkopkSms5EXTROquR9WfPAi7L9oJmeVyaguXKmVJspBTH2UrnCPoyk6qavkG2LvGl/doMs29ItMn2uPL6gzEwFAAAAAAwEBFL7m8M75fOj+kGnnH5zp5yxJvZvZ5rvl6OLv2P+lssJvX5HPxwQ69Z/lcnCu3QmardsfuhF2W6mDhgH35VdnfbDji1/GXjrhz6lg6lr9ugg/fWycEBlcgMAAADA2Y1Aar/TLp+t0AHH++WT5nYzbSAZLYPL1X8EUvtU9YLrZV6lDjK+JBt6JRO1r3XJhgfWSOPta+S+Z9vMNCB/tv9wq7TKSJl3V4GzrQEAAAAAvYZAKorLVVfKUPXf6d077OeIaJRcMsw8DK1GFtw0UqRztzz5bJeZ1lsukIvNLfbAwNImz+pb/CtnyII6MwkAAAAA0K8NmjJ12pfmcZ8ZM6ZaDh0aiNmV6UquapTSG66QoeVO9KhTzry1S078aqOcPmwmuemBmG6vNU9cjr4g8RUbs8jarJahi79n9avq9Kd65q0X7PlV6c+ukhOP3i+fJeZdLeeueFRKj66Vo2t1MFOVr79NSr9V6yq/Vj5Rr3nPO+z8kpXUr5bYtyTje/Jh4qgGWTV6vFRnCDa2H14n8w4dMc9UmTFNsnG0yDNvrpEnTqgJpZPl3tGzZE4slsg4a483y7L9b8s+8zzB672nDsiPD2ySX+rP8hOmnFqnzQHrlKCWc6paTk91N8jGReOkY8smuS+rQGqZzF5whdTPGCdViaBot3TsaZUnm9ukPTWjVQ9g9W33ezPYs1Uaf5icMapHRV91k8jmhzbY2bJja2Rhfa1cMX2kPSiW0qHKPanK2a2K7oe1wcqw9eK/nqac7JZlD+xUn6XWc8n1Up80n91qPvo1b9VqXe8JWNfs69nb7CVN0jT9fVlz+y65SC3fPLV8uv5b122Qx1rUOqRNs4ol86rDzvel+elMfeOG3O4JUcspPsu561e7ZEOLfx1G3g6R6sVF9zOsB2vz2I8BAAAAAP0PGamFdNX9Erv9FlcQVauUkim3yIjlq2XEVek3gHoPxCRyJpv+UUc3SmztozLCFdTU7PndLyNm6ABth5xxByxHz5Qh5erzO9VEp7wriKqVTFksI+o9blbNOD+1fl7zS1FSqesm83tydfOEJtlYk2XA0YcOqv5xWr3c4QpwavpxahDV973Dxssj074vm8dUmCnJopTLZZ0cs782Tv3bLbveyCa4VyNLVzZI002pQaqR1sjlqx5eKEs9BtzJFNAKQwdVNz481woUuo8U/ThvP81UjpQxY816ps5n+gxZ5TNQ1uwlC2WVHqwrT+ua2flSr4O+avlsI6X22zNl4ZKUaYtuSBtYy7cOK8dJ08NNPgMmRdvu0cvpgLD/cs5b1CBLfbI+o26HaPWSwumLdzoDmgEAAADAQEBGasGYTM/yTjm9/p/lk9ed9a2WkqtukxG362BlZ3AmpslQPb3+O+ozzDRPs2TE2sXWbfKJjFDzuSXqM+z5KamZrebzzxxV3/7LK6XkaKt88pNfqLJ6eXW2qQ6UqodvORmrjp756c/85CdZzi+J+Yy0z86jUQ3yx5rx6kFcnml7Xp44ZmecThx1nayqqVNreEAebNkkv7SmJrMzUmOyLX5Arompzzil3ntgu/zyhJO1WiETS4/IPnemqGt+2w7vkLWHerJVraxYHdDVy+JkuTqilkuYLE/W1cs1p1qkcffv0jNkfTnZmzrDMXiQKTs7VHcDoN6flKVXJtV1V1hZgLI7U8ZljSxdP1dqO52sz2DOPFv3vC+109XnW/PepebtzEPNe2xX5sxGxfmcwIzURACuWzaveymR+aizHHWATmtdtyY509Nk9aaXmSn3LNKDeGVXv9mwM1L1Iz0wmM7SdS93+rSkZXUtZ+uWVnn2WSeL116/e3QAMvEZ5gUl6naPvL+Y5bSzQZO39ewF10uT/kyvOo26HSLWixd7nV0Z1AAAAACAfouM1EI7uktOJIKoWruceX21xBcvl0+yuJ3dzlDtlC867Od+hi52gqhrJb42udsAa37rW+3HKZmtTgZsic6a/e1yObpitQmiau1y+lcveAZBnflZAdYV/vPLOIjU6IusYKuVDdtLJg6zs8i2ta1JBFG1fcd+J/PaDqhH4+X6UfY0PzqIqm/7n7pb317f8xkiKUFUqZB7R+tgqD2/e1zBUG3fsU1mnjGZE3Nnl0Ytlw+mz9LObjlkT8hKx24d3DJPLF3S3vKi3PeAHswpJSiWJzqIqoOgjQ/ogJx7HsFB1NB04O/2DUm3j+v10yOza5VVydmJ1VXnW//rW+mTy+yU+9a9rx6Nk6vy3G9mz8BgXfL73d1p0z5076qWMlmoA5eKdcu/K1ioWdvPWtaRcsWV3tmXUbd76HLqtWUPqdc8tvV2M0K+zsq9KGWE/GjbIfd6STdSLr7YPAQAAAAA9FsEUgumXc4cVf+V3yIjFs+SktH21B7tScFHb9UydFqlFYzN+N7RjVKqs0Z1ZmhAZueZTneIQAdSrTQ2Ob1+ucSbk19zSwp2uuYXD5hfxkGkqpxAqv98C2HssIDgZLw5qe9UX6WTZI6+1f5Ui6w9Zk9Kc2yfbFP/VZdNkon2lOjl+kD7G++LjulX3XS9LF1QI9UpgaxetWdrrwVpk3XLZp09aZ65HeqwA5ZRpAZfc9XZkV4X7mlpyzr2UrnCCprvlme9+k3VWv4i+ieQqhmXqtanR9Ttnsv+kgiOjy2T2XUzZemShfL4yoWycb2TkRstWJm2HXKoFy/tHR+bRwAAAACA/o5AagGdXrtcPnmr0+pjNLb851K+drWMqJ9l3/KeldEyuFz9lymrUympvcIOSGboR9U7s7VaSvTnS6t8npQ12yPx2a5gZ/T5JRtq9aGq520/7w37TtmBpWtqGuTmUuuhrXSyPGndSi9y8FTmIGn7Sb/oZorhZXaQZVidbKz7vvzR869errHe7BK1XF84uFPue2i3tHaOlNqbdB+XTVZga+NK3ddl7wZWOzqOm0fFxwmeWX2SuutA97Vq3TKeHOTsExebvj8rZ8gqvc08/+aKx1B30bd7DvuLvh1/6Ur13ocbpGnRDKnVfZdWOv2/eou0HXKpFwAAAADAgEYgtaDa5fTa++Xoo8vlk9+2yhmplKHfWiwxK6AalNekXHWldft8xqxOxc4q7ZTPW/0yO01ma9qgTsGBWuez3QHR6PNzM0HcgCBxzo5tkgfj+oE9YFMiMDnNBCbjzf5ZoPB2cKc89sAaaXxok6zZ8r60dnZLR2VPoOzxJTV2YPhs0uLc9m8PTJQIwD1sAnB7tvpnO/YXUbd7lHJ1uj/aGVJrNTWqzJatskaVX6b+Gm9fk+hiIU0RbAenewEAAAAAQP9HILUvHG6X0826X9TvyNFH18rpozqg+j05N+12/2TZ9o8ayIzMnxa0NIFa/2Cmk7EadlT9bDJps8u2zQ8rkprU76E9qFOzNO5P7o80Jye77HnEm2Vqyw8y/7kHhIpazsuwMrnUPMzOcflAjzKuR6q3J2TvoO6v8kV57IENct/tOlC2VVrVZ+nR2O8JGuE8yvyKnumn1PrXoQcv2irLfpjc72af+KDbXrY9W61gZMa/TAOBRd3uWZdzskf1gFF2n7i631LdV2p7Un+pfkJuh3zVS5Ju+eAD8xAAAAAA0G8RSC2IWXa/qOZZksM75JMXdW97lTLYup/Un535mW0Qs1KG1Hrkg42eJefeeYu9LClBS2egKf+M10zBTr/l1yP9O6P5ZwiSmiBubw40ZRnVII/ERJ558wcyLykomT6oU85OvCMvn1L/x2bJve5uBIJELeepTL4S6jOcQYnSB+7xUl2XIdv0YJs89is9KI9IVdUF1v/+sptfv1F3g9Vv52Y9QFJS8C198KI+c/Bd2aWD5tNrZWHIuo+63XPaXzrfl9+7BozqUSYXmUdpomyHHOolXZl8fYbufuBj+TBpcC0AAAAAQH9EILUASurrZajuF3XFahlxVXVyQHX0LBlxQza97TnZoLVS6uoGoOSqWTI0JZP19G57hPySbz0qsXr9uiqrA6iLV0ts+WIptT4nPWDqddt+EifYmdIX6plOHXUQGXr7/UnLUnJVo4xY8aiM0ANRKdkESUumzez5DLXcQ1V95ZM9an9MLsn7aPdejsgTh+3R9e+Y1iRPjpksE5OCmhVy85gG2VzXIDebKbao5dzelpesxFv1GeOvS+kPVpUf5b/+2/+Q5YjkY2fKPYvmyqr1C+3bsccmv7/a1Q+lf3+mbfK6dev1SJl318yUfiz1oEIBy1Ck7Nu5R8rFWY/q3he6ZIMVuFR1/7BXH6Wq/hfcII+vv0FmmymWqNs91/2lcobco5fRPNXLV12nlm9lg8yzBptKF207RKwXL87AVXv+4jlYGQAAAACgfxk0Zeq0L83jPjNmTLUcOlQUOVq9pqR+tcS+pb9R+3hrrTXifabb2v0+4/T678gnKQM0DV3880QA0+3MWy/Iic4rZMS3RE48er98lohtVsu5Kx6V0vJW+WTxajltpro580+f3ywZsdZknaY6qj7vzSqP+aXy+YyjL0h8xcaM9RJK6XWyeVqdf1ac0n7qgLx8eLs8cSx50KmJY5pk4+iYtB9el92o/YZTzpea3zMHNskTJ8xzI2q5hIzrekAebNkkvzTPktXIUj2YTuduWRZw67IeAGjBt03flX6CPmfsTHn84Rn2AD9p3pc1tyePmF+9YKGsummkdGzZlNOo/cGfUyYLdZCusls2P7RBNnhkFPp+RsZ1snV0vi+7frVLNnhmWWZv9hJ71PrWdWvkMdPfp7NcQdM0Z7ovtZybn34xaf2jbvfI5TIto1q+NbtFmm4al7ZuuWyHKPWSyq/OAQAAAAD9ExmpBXKmWQ8ytVZOvNWZnM15tFNOr18eGETVzjT/szXqfw9V9rfqMz1GuT+99jsSX/+CnNbz0/N46wX55FE9n51SkseBpmw71Gfb65bgrNeK1ebzgrok0J+hlveoeaqcOdoqJ15Mzn7N2Yl35Mdxu49UP9XDxssdNYvkyVFmQo72HVojU99slmfUfJOCiadMv6y7vYOhUcslnPidzFPlt6n3u+lA8TNt232CqFqbPLul22QAZs7ka2+xBw5atk6PxG73RenQASrdp2VQMNYeyV33j+lVflf/zOQ7+K4070len1RVleNk3qIGWVpnJvSR9mc3WP2TblbLm3Roq+1h9SP6QHqwMOp2j1xOLeOyde+r95gJmnm/7jN1u18WfQ7bIUq9JKuRBToQ27m7/w8sBgAAAACwkJF61jGZn/nO9OwXKuTeGYvkDmmRRt9Bmirk5gmLrH5Uw2aeDizB2ZjwY+pOMmXilsnsJQ1WJmmumbXw07fbwc4U5vgBAAAAgIGEjNSzjNVfq/o/tZ/Ts0LpJJkzTKS9650Mg0odkXdPZs5YPTt0yYand0uH1U9kFn1BoofpF7Nj97sZMnG75FBH5kxJ5KgPt4O+pd8Ozr5EEBUAAAAABhACqQPN6EaJrV0tI+pnpQ1qZQ02ZfWx2ionms/eDODq0bfKk6MqZKJ57phYOlnuneD0S3pAfnzWZqMa+pZ7fTu1jJOmlQRTw6q66XpZWleW1ketHlRp4RKn/833pZls1F5V6O2Q6Ft1z1YyjQEAAABggOHW/oFGB1KX35IcRE3SGTDo08B284TvW7ftZxQ0iNPZRg/Yc9dIaX76RdlOdl1WnAGgMtJ9fAYMVoTc9MV20IHUe6pa5b4ftpkpAAAAAICBgkDqgFQtQxd/T0qnVPYEVPXgT282y4nm4EGtBrqJo66TxaMnyNhhsaQsNWe0/t8eO5Lh1n8gO/YI9eOksnJk0qjxzijxv2/pynDLOfKF7QAAAAAAyBcCqQAAAAAAAAAQgD5SAQAAAAAAACAAgVQAAAAAAAAACEAgFQAAAAAAAAACEEgFAAAAAAAAgAAEUgEAAAAAAAAgAIFUAAAAAAAAAAhAIBUAAAAAAAAAAhBIBQAAAAAAAIAABFIBAAAAAAAAIACBVAAAAAAAAAAIQCAVAAAAAAAAAAIQSAUAAAAAAACAAARSAQAAAAAAACAAgVQAAAAAAAAACEAgFQAAAAAAAAACEEgFAAAAAAAAgAAEUgEAAAAAAAAgAIFUAAAAAAAAAAhAIBUAAAAAAAAAAhBIBQAAAAAAAIAABFIBAAAAAAAAIACBVAAAAAAAAAAIQCAVAAAAAAAAAAIQSAUAAAAAAACAAARSAQAAAAAAACAAgVQAAAAAAAAACEAgFQAAAAAAAAACEEgFAAAAAAAAgAAEUgEAAAAAAAAgAIFUAAAAAAAAAAhAIBUAAAAAAAAAAhBIBQAAAAAAAIAABFIBAAAAAAAAIACBVAAAAAAAAAAIQCAVAAAAAAAAAAIQSAUAAAAAAACAAARSAQAAAAAAACAAgVQAAAAAAAAACEAgFQAAAAAAAAACDJoyddqX5nGfGTOmWg4dajfPzmZTZP6Dt0pN/FX5ydqtctRMDRa1HIDiUyHXLr5LvhHbLy88slH2mqkD1eUNd8stNWUSb3tefrTpLTO1H5vcKMvnTTBPerRtXiHPvW2eAAiFdiJXA+e8Uj7nbrmzriy5rmh30QeKtl2KejxwHAFA1shILSLlc2ZLjXTJa8+HC4YGliufIvMX3y3LH1yR+Ptuw1y5vNy8DuSJ/oKz/MFGudw8hy1cvVwoZTH1X7xLjtkTBq7yuVKnvoRosdiFMhCapPIye32S7Zf9xfolJIfzw0A/3mnPigTtRB4MlPNKhUycoOuuS7o+sqdo/a7d7Udo530UcbsU9XjgOAKA7BFILRbqhFxfp05gbdvllVBR1MzlrAuERbdKTSz55BiruVpuWXS3XEswFXljvuCcDQHAUELWS/mFor/vSvyjgZ9dfnSvHIjrB13Stn/vgFjfoy8/JY8+ssL8PS2v6fUr0mMit/PDQD/eac+KBu1E7gbMecUJCO+Xfa4V6U/tbv9CO++riNulqMcDxxEAZI9AapG4/Jqr1UXufnkh5K0hmcrpL8n69ifrJL/5afmJc3Jcp06ObfodZfKNW+cOiOwOFAPnC85ZEAAMJVy9lE+aYH3hbds3AG5fDXREXlmr26Wn5LmXj5hpA0nxHhO5nx8G+vFOe1Y8aCdyNWDOK1kFhDl284d23l9/aZeiriPHEQBkQiC1GExulFtq1Lmq5ZVw/VZlKudkqqovya+tUyf5t4/0nAiPqpP/JvNLY2yCTCSSinyYPEnU7niWBABDCFkvo0bZx637tkX0U8V6TOTj/DDQj3faMxRKAfa1AXNeubDMCqTGj2VYEY7d/KGd7/+iriPHEQBkxGBTfc4MACBhB4rKVM4ZVECdADN0EO5kJMVbnpYfJX5NNWXjz8ujVpZrhVw+51qpq7OzGTTdqXqzes1vWcvLp8jEa2bL+Br7gleLt72qymRev/LJjVJ/tZqPU0hnSrVslx0v+88rnCwHWyifK99ddLXE1HradeBSrurjmvlWv0iJxYzvl9defUVeedvjF+lMn2XJcplCKp88V2apuuy5ZbdLbYP90rJtq+wNqMzst4PuW3F22m3B3vK0fpHrM3m/tuvnarXs9qtxtQ1bnlfvz8uOlku9pC5/hOOv14+jHqH3M7VsXgMZSNYD5an6aEg+/nTbYs3vQv3ZZVZgsKebk+TtbpUPVZ9h55fMbmMl43sKz9nHwp4f+uB4N4q+PesX7ZJbbvt1WLQTfd1OpO5/vb1+vVefxybZ7VJw2xWuPqOcN9Pmo/ubvtXVhqjj94W8Hr8ht0OkdikP7Xyo62TXvrJN5Fr13eEbqpz1flV3r6jlSZuWVp9h6iWH9cu5XVJVE+n7UcjtniJq+5JdOa99yEPgvggA/Q8ZqX1t8rX2F9pXszsJJ2QqV365jNdnW3Vy35Ghg/CjXV3W/7FRF1r/W0xZ69d+feJ78C65xXXxq8VqbpX6ORXmmZs+2asT76JbrYue5DJXy50P+vW5py9sVsid6gKl5yJWK5OaulvlzsX56n7giOzbr9e5TMp8P1BdFNyqTvb6AirlZK8vtL+7SNVHyrrprK1vzLtLvutVJ4HZE86tM3nsg0gt553z9Jdx94WiWg7T7+H8yV7bTgu5HfQtdlldjCr5Wr+o9ens1+r1a/U+atWPeU2JqW2Ytz6Dc6oX1/KHPv4KdRwZEfYz74EM1Opm07+YUx8ebcstixpl/kT9BadLutwflEt7lnF+av285pcikQUWqnHvZVHPD31xvGv9oT3rD+2SIw/7dSi0E+pZX7cTOZxXoqxfr9Vno8zS/Vmq67NMg9+Eq8/o5033fHTQKa2/af15+dqmUbZDlHYpx3Y+/HWyWQaZJPPNdweLev/4a/RnJU/7xjVT7MeOsPWSw/rl1C5F/X4UZbuniNq+ZFcut+9VANCfkZHap9QF3IPqwivEr5m2zOXsXxEz/2JvURc81q+r7l8IzbS4uoAQdbERs35Rf0X2HtW/IusLAX1CVw/TflV0fpXUj7vUvJ9TX9Kd20VVOScbIW2ZzbroMvrX/3fekqPOi+VT1MlXXXSozwxcl2w565eUhevi97pTV0pyJkWFqu9rVX3bFzOpv9wGbgt9kZTXX2md7WBvA33LrjO9fPK1Uq/WIeaxnLlvh6j7cjiR69O1/dL2TyuLRC273nfzth0cIevFLL++gO85/pyMlkzHX4GPo8j7WQqzXYKXy1k/ffyZTAzzuVYmkTU/JbWeneM5dHvWMz/9mS88n+X8kpjPyPs+lZuczg8JIffryPpHe9Z/2iWnXpTI+3UYtBNF0U7kfF5Rwqxfv6lPZ35R2gmzb+u7wl4tswKx1rXhNucz1HpOFtmb2OdzEa1ecr/+NPPNWN8uZrtrWV8nO8ugH6syP9FlXJ+TNi1pWXPdX0KuXyqzTMHtktMO6scp7bzeTwK/HymR1k8zn+G7jf2EKGfqIfT3KgDo58hI7UPlc2ZbF3CvqZNjmBN45nJmBEr1epffj9Ap3L9WO7+4Wr/YqpPeo2v1xbZz4jsie7e9KtYglSnK58y3LxL0CV13vJ64SNBUuZc3yo/WPW9dCLiX+fIGfZGgLrLVhdVz+hYq94tH35JXnrfnFyvzyFyI4u13RI+jkpSFm6AuHNTJXq9Dc9LJ3kxX9AXTj/RFnfVMU+up1u0nLeoLg5TJ+EnJy5n4Rdc3IUB9yVD/+WcMRKS+uOgLtR5qOd9W2+CRp626Tv3SmvN20L/y6/97uVP6qPWZyCTw2j/V+j1n1k9iF+Y3azNkvTgDgiQff/ZrmY6/gh9HjpD7WSp7uwS3Vfb6qdmpi/ofber5MqFZ89u833qcmhkStT1z5md9aVNfUPzml3G7mm2f92M7J7mdHxIKdLwnFHl71l/apbzs11HQTvjXZwHaidzOK0rI9evN+rTK5ak+7flFbSecTMoJUj9PByuftq8NE5+h1jNpn48u6nbI+fozVDsY8TrZLIPVBjplPuoy29k1zXAva87HX47nsWzbpdy+Hyl90b6EKRfpexUA9H8EUvtKuRnso2174JeIJIHlnIs7dXIP+FznYjfe1XNysy+89IVQ5l8Ok0+uU2SWXiZ9QapO9r6zVRem7gsBXW6CdZWgb19cIcsf9PhzfqnOm4+ky7oyTv9iageo1bqndJfgTNe/pvr96nz0HfsCP/lCosLcNrVf9vlUyuXWbTnJ2yA3R8z6XS31DVOkPO3bt7poS1uWPGwHczHcu53SR69P5wuF748WRz/y/GKXs5D10nP8qS8iIY6/wh9HUfazVCaol2F7WlSbV2cdgLofscz16L3dQ7ZnrvnpL3GZZNyuzpfUvB3b+ZDb+SGhIMe71h/as37SLuVrvw6FdkLr63Yi0nklh/Xrzfq06irp/Jci6/rMsZ1wgnCxMolvtoNjvSLydsjD9WeIdjDqdbJznkm67nbm65qWdj7Kx/EXqp1PlWW7pPazSN+P+rp9CVUu/PcqABgICKT2kcuv0Rdo6sQacIJMlXW5eHrfRcm8MpPMhZf6/P0+F4VOZkPSydW5oGx7x7+jcS9mRMjCcr7YpYxGrS5a7AD182kXgc6X3QPvhLwQSfRF6PdrsVPfwb9oh7F309PyQluX6D7I7rS+INwt8+eoL7Hm9TR52A72BXl+1yNN5Pp0TS/wlVy4enEff9aENJ7HX58cRxH2szRO/2yZs0ES65yhHzLvzJBo7Vn0+SWzt33mvvz6TKTzQ4+CHO9G0bdn/aRdytd+HRbtROb67P12Itp5pXjrM7lcqqzrM9d2wgk0ZQgc5kPk7ZCH688w7WDU62SnnHseXvO139ezXaPvnz1CtfNpsmuXon4/ysf6aVHbl3Dlwn+vAoCBgEBqX5jcaPUPFW95JWTgMWI5L4mLLPevqc6Fgf+XbK+LnsQFZaYsAQ/ORbHOknj0kcx/mbIawtq7T98OUyZliR/FK8S/I/Qsv+x61UFgvTj1HfSLdlhH1JfXp+TRdeoLbIvOADCDJlhfYNNvUct9O2RZR7mKXJ9meqYLWediN+iiOJSw9RLt+Our4yjsfpbGfJENygYJ/oLmCvp5bfeQ9Rl9fm5m2wcGLIuU5/nBUaDjPaHI27N+0i7lZ7+Ognaib9uJQq9fb88vU3An+/rMtZ1wgnD+y5sfkbdDztefYdrBLN+btkxOVrC7nNdnmfe5tmv0/dMRZv08ZNkuBW8Hb7mvn5b98ZAsfLlw36sAYGAgkFpw6uRytboAi4ftLybbcs4tFmUyyp7gyc5sVRcB7tstnF/os/kFO8qFh4+899sYxPS/lJjv5Gut/ouiB6jNtlGSMizMhbpf9kR5YH3n6Kj6Aqv7XtJfBtY9L21x/QV2vu8I0NG3QxYBgTyIXJ9meqYL2cTxEOkWLz8h6yUwaJL5+Cv4ceQIuZ857O2p1iXc94t0iaBfykV/r7VnwYGCnvf00rEdWbjzg3c2TGGO9zRF2p71v3bJTzb7dQ5oJzwUoJ3I8bziz2f9+ll9Rmsnoq5Db/Cul9yvP83n5q2d97hO9szW9JhvpB+UgvaX3NYvb+1SZEHrpznvCVNvWoRyef9eBQDFj0BqgTmdjoftLyb7cuYWC5kgdT7ZHnokT2vE1PirssP1y75z4eX/pc3nxO2cQOuulcvtKenK02/lO9qlO55X5SZc7nubX/nkihC3AGbp6F45oBbYnm9QgLqnPidMtiakcXck765Pr6wLh94GepRXLewv1f6myHzdD515lkQPXPJq6i/Gtpy3g3OR28ui1mfQFwon0zvK7U8ZhawX51ausMdf4Y+jaPtZqsT2zKohTB/IzWKNrGwHm1Iv+iO3Zxa/5dcjTpsBIDJ9ycgiSOZNtUcNd1v9831X1XH+hTs/eLaJBTre+0t71r/apRz361BoJ3qvnche1POKLfz69Zf6zK2dyLQOvSF8veR8/RmqHYx4neyVrem1DX2zOnPYX3I8j2XdLkX8fmTro/YlSrlQ36sAYGAgkFpQptPx0P3FhCvnjIgaq5sv89WFYIL+MqG+pN9pdXyePsBFpgsvi3NyTc1SMidQq9P+xY1yebl7nvqEf7csX3Sr1Kd+cTcjPeqBKO5cPFeVs6Zayp1lnXeXzPK5MIvO6c+nTCZmEaC2b1kRqZl3d6j6tJXJN65xXSSpMvMXr7DKtLXZF/K+X6RDsjp11/3QLbaXM+nCTM/XZAOkydd2qJkt17rqxy6rPs88z4/w9Wnv13r7rZDvJvXNZ/ZN84WibfPG3vnlPMt6iXz8Ffg4iryfJXEyepIDeuWTpyQtv+Ycf7G6u6ztp9sXZ72+q9oV68uZkvrFPWp9Hjtm70c183RbZj20lE+eq/a1u0xwS5XL4kuG/lKR+AzdFrrbDw/Wl80ae3+N6f0mpS7yoac+w50f0vTy8d6/2rPib5fyuV9ng3bCft4b7UQYhV6/flOfubQTThAuUxArT3Krlzxcf2bZDka5Tvb6MSnbaXnbXyKdx7Jvl6J+PyqG9iVcuXDfqwBgIBg0Zeq0L83jPjNmTLUcOtRung1c1q/AdSKvrXsq1Ej9UcrZZeyLj3TqYibtsyrkWnVy/kZsv7zwiPcXN+czdZ9SaQHd8rnqy4rJ+PAQb3tVmjd5nFQnNya+MHqJtz1vjcCb75NxUv2oeTwa0IfP5Q0rEhcu6bzqU/FdN/v9+yZF2x8yybzdFbWuegTQ/G4HZ98xT1N47i9RRKpPs2zqPbpvvpjPMuoBI/Lbf6gWpl5yPP4KfBxF3s9c/D7Da/38jj/drrQcU19Q/LZ7pPpUXzYfNNkeqeLq8/aXecwvlc9nxF+Vn2QYuTe5TnzalTzQX95uMQHbdF2qTvQo1OZpmgId70rk/ayQ7Vm/aZfysV+HQzvRO+1E9gq9fv2sPqO2E6Zc71w3pIpYL5HaJbeQ7aAS9jrZfn/ydHuae//x26dy3V/Cr59bmHYp2vejPjgeEqKVS6oTdewEfa8CgP5ucHlFxQrzuM+MGHG+fPLJx+bZAKVOpP+rfoIMb/uN/Psb/qevNBHLnWh/Q9q6S+TcUWMkNtxMjKsvyHt+I80//aX86YSZlnCJfO2/T5SYOkG/+of3JO1lZdyVN8r4WJcc2PGGtKe+4cR70rp9v3RXVEuZmqEzS33Cf+2l5+QXL7/l+Zny0V7ZceC4lFePUsuZKGVdWGx9/l/lRbXOnuVydOLUeTKpdoxaTnVBsvY/Jeg33Y/+9IqqzwoZO6pMEouZsT4VtW7dFbpfNqeAen9Lz/vt+jwke17cGzj/bOntrutz8N+OkuGu7RBXy/rBSz+V5pf/4n0RlNN2+Eza/7BfBqttPzqxrnqe+2Xrz9RF3ntmQq4i1afZrz/4jTzxb9vS9s/E+u39zEzJpzD1kuPxV+DjKPJ+5nKi/ZC1PVK3547X05fVPv5Ue3aOfu9J+eCD3dLy/K/Ven0kk26YLaOH+2z3SPV5VN4x65bYbvpY1+u1ZaecHHelzBjTFXDc6s8oUdujp/3V2/3NV9+QP33kv6/1tEtaftsGt4/+pM8Pqj2boNozM02z95eNAcdsgY53pV+0Z/2mXcrHfh0O7UTvtBPZK/T69bP6jNhOlH/1WrUsw+WDPb+Sd/J1sPiKWC+R2iW38O18uOvkCpk0+2spx6SZdsq9//jtU7nuL7mdx8K0S9G+H/XB8ZAQrVzY71UA0N+RkVog6b+yZidqOQQwvxBLQTIK0GfYzgOcyZzIWwZXMTCZMlKIdXIyTzjHFBTtUoENxHYCAIoI5zUAZxn6SC2EyfagEaFHL4xaDpnpfqL0bTbqSxUdoQ9szkAbgf2AoV+y+mFU/6f1G9ufmdFuC9O/2Fuyo0X3xab7b0vtJ9A8QN7RLhXWgGwnAKBY8L0KwFmIQGqvq4g4emHUckjj6txdd9SuB56okS4JHEwF/V7gwBcobjrD4cG7ZX7SYDxK0gAW+6VloLSRen11v3ZtYQckjO7oy8/Ja9YgEVfLLYtWyPIH7b87b52bXOfIG9qlPDvb2gkA6Et8rwIAbu3vbf4d62cWtRxSeXcoT72eDZxtz23L/Za5VcxvkAYdjMo82EJ/USGXz7lW6ursIOqPCj5Igx49eL7U1ZQl6jquf8TjNuheQLuUd2dNOwEAfY3vVQCgEUjFAJd8wtcdprc8r7688oXqLEC/eANDepDPGnRh/3bZ8XLmEb/7Cz2Kfl2si7bprEC71DsGfjsBAH2P71UAoBFIBQAAAAAAAIAA9JEKAAAAAAAAAAEIpAIAAAAAAABAAAKpAAAAAAAAABCAQCoAAAAAAAAABCCQCgAAAAAAAAABCKQCAAAAAAAAQAACqQAAAAAAAAAQgEAqABTS2Jny+MobZLZ5iuJUvWChPL6kxjwDAAAAAEBk0JSp0740j/vMmDHVcuhQu3kGnAVGz5Jzv10vQ6ZUSomZdOatF+STtRvljHl+thm6eLWMUPVx5q21El+7w0wdYOpukMcXjZOqzvdlzdMvyvaDZjqKjg6krrpppMierdL4wzYztVDKZPaCK6R+htpXKs0kUfvM7WqfMc8AAAAAAIVHRuqAVyE3j2mQzTO+L3+sc/6a5Mkxk2WieUf/ViH36nWbcV3/WZ/RjRJbvlhKXUFUrWTKLRJbcb8MNc/7o5L61VK+NsI6qDrR9aGVlF+UVC8Dhs5E1UFUHRB7gCBqsWt/doMs29ItMn2uPL6gzEwtjNlLGqTpJncQFQAAAABQDAikDmSl18mTMxbJI6PHS/UwM80Sk2tG18vGGQ1ys5mCQqmWc++8xQoUWpmXi78jR81ffH2rnH7zF3LafmM/VC1Dp1WKHP0wfFbt4Z3y+VH9oFPVwc4BmJVbJgvvmiFV0i2bHyKrsL/QwdQ1e0SqbrpeFo41E3tdmVxUYT9qXbdJGm9fY/7YbwAAAACgrxFIHbAmy5PT6uQaHUA9dUAefHOdTG35gflbJw/G4yLDxsv1o8w3dhTG6JkypFz9b25fdwcMz7y+Wj5p7s9dXIyWwXrdogRSpV0+W6EDyvf38zrwVr3geplXKdKx5SXZQCZqv7L9h1ulVUbKvLtmSrWZVhCdu+XZli7zBAAAAABQDAikDlA3T6iXa/SDUy3SuHuT/PLEEWu67Yj8cv8aaXxzndxzzD29PxollyRl24YwdqYsXdkkG9c3FezW3ZLaK6xs1NO7B2AfoFddad3SPyDXLSc1skD3tdm5W558lsBY/9Mmz+pb/CtnyII6MwkAAAAAcFZisKkCmzjqOlk82mSKWuLSHt8hy/a/LfvMlB66/89FcofoYOjv1OsVcvOEW+UfYrFEZlR7vEWV1a+5lF4nm6fVqffE5Zk318gTJ8z0LE0c0yQbR0tP2dLJcu/oWTInab7N3svs9d5TB+THB3Qw10zwEqbcqAbZnNZdgQ+1nFPVcnqZvaRJmqabJ9Yt1xt6IVtwloxYUS9Dy4M6O2yVTxav7rmt3+pH9RYpeWutHPUceKlazl3xqJSWp5Rzph91ylXL0PrbpPRbta5BrdbKJynZsG4lajsMzWogrGzXTUtZzqvul/Lba80Tl6MvSHxFFgNujVbr9e3vJfcze7RVTrz4C/nsda+2JPd6iazuBtm4aJx0bNkk92UIpNr7ox5QaJdctOR6mTd9pJraLa3rNshjLWWyMG2aVSzZ2BpZWF8rV6j3VZlJHZ3vS3PGga28Bjbqlo49rfJkc5u0572c4rOcu361SzZkyMKsVnV5z7cz9x3qWc+R6sVF92/78AypKtDAU9a+ULFblj2wUxiGEQAAAACKBxmpBWMPirSxxh1E1WJSHauXjXVNcm+pmZRqWJlcWjrZ7u/UFWjUqmN1sjFloKWJsQn2e+I7QgdRU+mg6h+n1csdqfNVf6lBVN/3Dhsvj0z7vmwe492NQJRyWQVRi8Hoi6Qkq0Bjiip7wKUznYft52l8bqM3XQdY5XQwdu2jMsIVLNRKpiyWEfXumnZUWyPn+w6EtXa1nDvaTNDCrFvKcpZUOuGsZGey6B+15Kr71TKq9UpZRimvldLbH5WY17rlVC+5mf21cerfbtn1RjbZqOdL/coGEzDVRkrtt2fKwiUp0xbdILPNM4ceZX7jw3Ot97lrt6pynDQ97Jd1XSNL1fzSBzZSnzF9rqx6eKEszWs5HRD2X855ixpkqU/W52xVbpUerCvk4RStXlIcfFd2dar/p38lrd57TeVIGWMeAgAAAACKAxmpBWJnecbUo7hsa3u+55Z6nYk5vl7usAKDB+TBlk3yS+sFzWSkurJXn1FlnzBlJ45qkI01463H29p+oD7Teig3T/i+PKJm1X54ncw7FP7WfWdZt8UPyDUx9fm6j9UD213dA1TIxNIjss8dpFXL8kdrWdT6Hd4haw/1ZKvq5VylXvPMkI1aLmGyPFlXL9dYXRikZOYG0bf23zVDait9stjybpaMWLtYhmaRdalHv499q1JOr/+OfPK6mejml7FqMj3PHO0UKa+UkqOt8slPfiGnD+vjSwdKdQBSPUzLdHUyXPXjTjXff5YTr7ebZXRlb/oue/br5skst+/6OlyZrMkZpNWqzm5TdaZf65QTj94vn7lj0JHrJVdlslAHRit1pmnmwYJ6MqSd7GinrPe01nVrerJSTdarfl/rllZ59tm2RCajlcWpA5CJzzAvKDrIuMrqdkAtX1J2Zpkqd4WV/Sm704+NqOUS2blWNuguVc55XWe3Xi9N+jPFo65c67d53UuJrNXquplq3fQgXj71G7FevNjrLL2UuZ6sJzs58z4DAAAAACgsMlILofQ6WWWCqDogmNQv6Ym35Ynd6+SZU/rJePkHn6xNK5jZsiYRRNX2HdskD8btx2OHpZc7eColiKpv+a/7vvzR/ZeSzeqmg6g6GDvVo4/VpCCqDviOdgK6av1cwVBNL+e8tgPqUUzmxNzLGbVcnhzcKY89YI+I3ftBVEVncOr/sxiMqaRSR8865YsO+3kan4xVJ9PTyhT97XI5umK1CRZq7XL6Vy94zruk/nt2EFUHQvWAT4kgqqbKNa+W+KNr5ZOf+ARJQ6ybF3u5M6yvZZaMMEFUHXBNHqxLLa9ext/qtMFKGVKbnFkatV5yd4FcbG3KbjlkTwjUMyBVl/x+d3fatA9TDmsrWKsDl4p1y78rWKi1t7wo9617Xz0aKVdc6Z192bFbBzXNE0uXXU4dH5mOjdDl1GvLHlKvPaCDr+7Xu2S7GSFfZ+VelDJCfnXV+db/ev3ct/63t+w06zZOrkrLZM29XtKNlIsvNg97RZlUL7hB6nVAPcQ+AwAAAAAoDAKphTBcfTnW//vean9EnjisA4Yi1WWTPAKbcXlG9xVqnrm9e9JEUntDvDm7jNbSSTJHZ82eapG1Jis2zbF9sk39l7R+Ucv1V4G36zuqpcQKau6S0z5vHTrDZGV2ukNDOmCoo3Y60Lhcbb7k19ySl2GWlH5Ll2uVTzJlkx7e4bs8zrpFG2iqWoZOU/PPsL5aSX29NZjVmd8u981aPdO6y1r+kkp3HwRR66VvdHakByDd0w512MHVhLGXyhVWsFaP8m5PStPyF7V11WaacandFhntb7wvOnZdddP1snRBjVSnBDD9RC2nJfpOHVsms+tmytIlC+XxlQutQd/sjNxowcrKqpRgaA714qW942PzqBfoPljV+m9c3yCrdHcJne/L5qfpHxUAAAAAig2B1AKYOMz+gt9+0i9aqJzssr806/5QrQm5S8tSPfE7mdfyA5lq/TVbAcpMMi6vmxMoHlYnG1MzXhN/9XKN9WaXqOX6KTv42SmftwaER0x/nv7ZnSbQmpbB6Uxvlc89B1wSKam9wgRzXa872aRvveEatCocZ90yZ5T68envNYWTpRtYf2ki1kt/cbHp+7NyhqyygnFef3PFDr2nOLhT7ntot7R2jpTam3Tfpub9K3UfpxkCpFHLKfp2/KUr1XsfbpCmRTOkVvddWun0/+rNCWJafcO6P3tsjSy1bt1Xe0ZqADqXeulj+jD60H4IAAAAACgiBFIHICdLtXr4KOt/FAMnmNchZ4KSHrMeaCo1gzM4IOnZZUDWmbJ+Qqybl6uutDJNM2ezZjkPz3WJWC9nC6eLi4c2yZot70trZ7d0VPYESB9fUqNq30OUcnU3yCodPLWqW5XZslXWqPLL1J/uYsO+td9Dy4vmNXuAqEQg9GETCN2z1T/rNE+c7gV6hQ5Mq/VvvF3XZbc9ENZdM73rHQAAAADQZwikFlDGwKaTnXmqS961JkS3L77fzm6NzZJ7S61JvcvJpo03m2zXDH/uAaGilvOSx0ze3pFd1qXm9Ofplx1ZYgKPaZ/lNz0hx4CnL7NuETNas+sfNRvVcu4Ndn5hUt31Wb1ox+UDq9vWXhyB/YNuteTKnq1WMDLj3wMZbhc/qPspfVEee2CDHdR7aKu0qmXXo/Dfk2lk+6zLOdmjesCoTWpZVJln26y+UtuT+kv1Y/qLtf516EGktsqyHyb3f2rJV70k6ZYPPjAPe4Wrr1hG7QcAAACAokMgtQCCA5s9gy61d70TbuR5LyfekZetwaticsfoyb3ft6gzv7CB26jlPJXJV8J+hh61X99ivL5JHs8UKMqHPA00ZY3m74xan5JB6gRg/TM7fYK5Hfbzkm/dZgccvYyeZS+/F2fdIrLXNyiI2S5njur/a2XIVdaENO4Bs064+lCNXC954QwOlT6AUt4cfFd26WDt9FpZGHIe1XU+2abawTZ57Fd6MCaRqqoLrP8dUctZOt+X37sGjOpRJheZR2nqbrD6T92sB6pKCoKmDyKVkEO9pCuTr8/Q3Q98LB8mDa4FAAAAADibEEgthBO/kx9bd9vH5I5pTfLkKFffpaWT5d4Zi+QOPeiSHJAfZzO4U6Aj8sSBFhO8rZeNMxrk5lL3PCvk5gmz8tj3qDNYllm/MZNlYlJQU81vTINsrlPLYabYopZze1tecup2/HVqPa2JNr2e7rpOMbve3GKs6EFzcg+2+HP64Mx+MKZKKf22K3g5epaMWPFziX2rUk6/paND6Rmrgbenm8zMM2/uTA4YHt4pn5sg5YgV98vQ0a4QmXo8dPFqKV++WEbUB9xoPKVezr2q5z0lapnPXdzoH5y1ONmgtVLq+vySq2ap5TBPjNO79bBAIkNvXy0jXPPRdXOuWkZdN3r9T/wkecCsyPWSJ9v/EHZk+LC6ZIMVuBwp8x726qO0TGYvuEEeX3+DzDZTLGNnyj2L5sqq9Qvt2/DHJi9ftav/0Y6O49b/lqjlHJUz5B69jOapNVJ9nVq+lQ0yzxpsKp19W/1IuThUHUasFy/OwFV7/iLb7SkAAAAAgLPQoClTp31pHveZMWOq5dCh7G6s7L8qXAFTL3F55s01KaP6O2W8XrNNHNMkG0fHpP3wuvQR9kuvk83T6vwzx9Q8t7U9L/ccSy6X8TMzcMr5OnVAnjmwKW09opZLyLieB+TBlk3yS/PMbfYSZ5RwrVs2P7RBNvRSttnQxT+XEVM65cSj98tnQbePX3W/lJus02R2+dO1OmgoKZ9VLeeueFRKy1vlk8WrPW+xt7JZdSB2/XfSR70f3Six5bf4ZpaeeesF+WSt34j+zrzN0xSe83NxliuVVzm7Hs2TNF71m2O95EWNLNWDGnXulmUZbiF39sfWdWvkMdPfZ/WChbLqppGB0zRnui9rJPgXk/ZxPfDTgm/3/KDgyWO5I5fLtIxq+dbsFmm6aVzaulmj2j88wx48ykeHKr/rV7tkQ0q2a5R6SeVX572jTBbqoLJk3l8AAAAAAIVHRmrBHJEndv9AGttaZJt1270jLu3xZmls8Q6U5sQapX+dPHj4gLR7zfPNNWlB1FzsO7RGpr7ZLM/E1eebaZZTcdl2WM1vt3cwNGq5BL2eqvw29X63dh2AbdvuGUTVtjfrUcftxx1bXuq1IKpIyD44X18tn5isU1unnP7tWokvtoOE3rfC5zig0uGN6vOXW/NNKn+0VU6sXy5x3yCq1i6frVguJ5KWWeSMKvvJo8HByTPN/+y5vu7b8x2n135H4utbzW3+xtHk+kmWY73kRZs8u6XbZGL2XhcS7c9usPon3bzH9A3q6DT9iD6QHixsb7EHjFq2Th8Ldh+kDh2Y1H2ZegXzIpdTy7hs3fvqPWaCZt6v+0zd7rcNDr4rzWq9MtEDNM1b1CBL68wEI0q9JKuRBToQ27m71we0AgAAAAAUNzJSAaDXmSzDyt7NfB6YssnQLJPZSxqsjN6OLZvkvmezGbwqO3amcCG3GxmpAAAAAFCsyEgFgF7XJRue3i0dVn+dWfTJiR6mf9KO3e9mCCp2yaGOzBmrUehb+u3gbG9mrPuonCEL6novgxkAAAAAEB6BVAAohIM75T59W7uMk6aVBFPD0gPCLa0rS+sLWQ9utXCJ0w/q+9Kcp2zURN+qe7bmNcM1WJf8frcdFK5d1CAb1zeZP/YZAAAAAOhr3NoPAIWkB066a6Q0P/2ibOcW/6wkDwznI4tBo8LQgdR7qlrlvh+2mSmFVb3gBrlnxjipSgzo9b6suV3tM+YZAAAAAKDwCKQCAIpedd1MWfDtcVJZOTJp9H5ntP7ft3TRnygAAAAAoFcRSAUAAAAAAACAAPSRCgAAAAAAAAABCKQWgM64BQAAAAAAANB/EUgFAAAAAAAAgAAEUgEAAAAAAAAgAIFUAAAAAAAAAAhAIBUAAAAAAAAAAhBIBQAAAAAAAIAABFIBDAxjZ8rjK2+Q2eYpAADoP6oXLJTHl9SYZwAAAMVp0JSp0740j/vMmDHVcuhQu3k28Az09UOA2P1SfkmtedLj9HvfkU/i5klf0gHIh2dIlXma0Llblj2wU/rFnlt3gzy+aJxUdb4va55+UbYfNNNRICWysGGkzDtfpOPNT+W+Nz430892vVkvzmd/IZt/cVw2FENbAgA50IHUVTeNFNmzVRp/2GamAgAAFBcyUoFeVjI0LUSptMrnBD7yQweCdRBV3pc1D/gFUXXQaZRs/Ef111Aq1WaqXHaePU39Lb3MTPNUIrOvPE8edz7D+rtAll45pOez+jVTP+66CSM2RK44335YNW0IWcGO0PWS43YAekWu7SeQnfZnN8iyLd0i0+fK4wvKzFQAAIDiQiAV6GVnPrxfju76jvlbLidOq4mnP5Qz9st97+BOue/2NdKY+Nsqreal4lcmC+/S2bTdsvmhF2W7mZrRx2c8smy/kA+Om4epYqWytGGkNE0bIlUmKGYbLLXTzpNVDecROIx/Lrs+th92vPl5dtvhbEC9YKAJ234CIelg6po9IlU3XS8Lx5qJAAAARYRAKlBQo2XwUPXfqSIKpPZj1Quul3mVIh1bXpINvXI7/xBZettwqdUB1I8/lzW/6JbGfzlm/rplTfsXIucPkasuK7HfftY6Ixs22fXCbf1u1AuQq+oFN8jSJTPJ0j6LbP+h/kF3pMy7i+0OAACKD4FUoJBiV4qOo57u3mE/Rw5qZIHuS61ztzz5bJeZ5ueMfGgyA5Mc/0I6zEMvs795nli92358UpZt+lS2x93h7zOy/T+Oy7JfdMtjf+7vYfHBcnFSti36BtsBIVkZ8/bt9Y9f2Vs/6ERrP/NlTNU4qZ0+UsaY5zgbtMmz+hb/yhmyoM5MysbYmbJ0ZZNsXN9E1wAAAKDXMNhUAZxtg02VDJ8lQ6vqZcjISnG+1p3pfkE+eXej+jrmY3i1KvM9KXWVkdOtcqLjF/JZ3KvuquXcyY9K6am1cvRdHZRU5S+6TUqral3zXKvmucNzniWxRvXeK2To0EozpVO9f5ea30Y5fdJM8hJ6OZOVXLRaYlUiJ/50v3yWaT4uJbH7ZYReLx2BtXTK6Y5mOfGh97rlrkaWrp8rtSEGm6qumykLvj1Dap3qlG7p2NMqT/6wLWP56rob5J5vj5OqRLl0HVs2yX1egVJVduOicf6vp5j9zVHSVK1vse6W+94wNRcrlcdvGy5V8rms+ZdPk2+9TrwWbTCf6isvkFXTpKdsbIgsrC2VK6oHJwb26mj/VJ78j8/T68jrvR9/Ls3/qYO5ZoKXMOUuO08en57aXYEPtZyNajltziBH5mmKpPpNYsqJDkqfUOtcYgWq65Pq46SqD/2at2q1zPcELLP//IM5+0jry8fksT+biVqsxMqKak8KpDvvd/aPiPWS83bomX/Y+gzDXld9nJyUi9R85qn56Fu6W18+rupKLUvaNKtYskj7te6feLhaL3cdfaHW7YQ82aqOnbyXU3yWc9eek7Ihw48mkffPqMe74uyztt4beCx0+5lHs5c0SdP092XN7Vl23xJKtXx95aNSe2StPNUs8vX6eqmdrk5Ina3S+vRq+b3MSp/mcfdDWd398q1v14q6NDA65b0tzfLGszvE7+xUVtcoV377Crmk0inUKd17dskfmjfKgQx3WEQtp9d1/JLvydfUuow0U7r3vGCXu/h+uXtRlbQ+dL/H+kUtF61eEpyBMEMMPGXvK+aJ1eXPhl66WwUAAJzNyEhFHlXL0EtXS+yri5MDjUrJyFskdsVqOXe4meCiA4Wxrz4qI1LKyNBaKb3kUYldlPiW2GP4TBkyVOTMqcPqcaP6bFXeFUTVSkYulhFeZfX8LrnFFUTV1LzVMo746moZEfMoo0RazhQlw/Q8O+RMVkHUWTJi8s/VsrqDqFqlDK1aLLHJjcnL0SfKZOHKJlm1yB1E1UZK1fS5smr9Qt8+zmYvWajKZQ6iZjL7a+PUv92y643gIKp26OMvrP87u11BjPgZ9bVOUa8dsib0qP7KEDuo0X4i58CEDqpuvM0ONDmBEk0/Tg1y+b73/CHSdJt/1lmUclkF7/Lt/MEyJjbE7nc2dVmrh8sqn4GWZn/zAlk1J8uAY0TOPlI5MqklkYX/baSsum1kSh2WyEV6WT7+XH6f4/6R8zpdEL4+oymReh28VfOxDZba6aWy8Jsp0+ak9xscbb826+XRP3FV9Xlqm+gB3/JZTgeE/Zdz3pyRvoMqRd0/ox7vhRa2/ew/Rpsg35Vy48OL7YCpVlkrl9TfL/8zZVpt/Sz7ccIsuXHlz6VxkTtYqFXKJTctlsaVjeos6aHuflXmFlcwVKuUkdNvkesfXi031vkctVHLjW2U/7n+UbneFQzVEuW+pu+96JDjqUHHjOXu9y8XtV7cDr4ru/QONv0r9EMOAACKChmpBXB2ZKSaDFEr4Ncpp9/7ZzkRbzcZk65s0dMvSPxtV2Zq7H4pv8S6eTolg7RaSlSZmCqjPy8tg9OUO3NaXWUPrVSf2yqf/OUXcvqkrmcd0NUBT/VQfaadsepwltNexk8SWaRqfrHbZIQOWmaYnxZqOZPMkhFXLJahacvkxbxX16XOPu1W83M+d/gsOfcri626Pv3ed9Q6mOl5k31GavWChbJK314v3dK67iV5rMUENcfWyMK75lr9l4oeTT81k8hkk1oZI6rcBlNOZ7bes0gPHhWUfaQDuA3q80NkKekRpucMSck2NFl9iSzJHp4ZWCHoAMmqaYOltf1zqa0eYvex+p8nXd0DlEh17ExyZpxZRiur780T8uwbPdmqVrabDtR4ZZ1FLZcwRJb+43lSa3VhEC2D0Vlf//pyMijNU708L3+ayPDTy6kDUVpaRqhr/ZLLlKp1y2NGnDMfd+ZnIutO8ZqelCWaLrhe3MJshxzqM4KezEdnP3LPP31a0jxd2y/M/unUnX3suLMz1bFz2XAr+1Pa0+s1ajlnOe1s0ORjdfaV50mT/kyvfc21fqH2z4j1kkTth0v/m92Pc9S2KitmWbNtP/OpVzNSdaDw4VvsIOGetbLxhzukq05nWdrn+7Rp6vlT6rltlty4frFcos7TVpblG+p9TkBx7Cz5+l2LrR8Y31v3Hfl1i5luMVmwlarcun9WryW2upTV3Sbf0sFH9ZnpWZ5RyznLqXS+IC893ZO5amWMWuUU9drGBza6MkV7yiUyUEOVC1sv6exrDMk+s1Tf2n+X/cNutnerAAAAhEVGKvKi5KLv2UFUHSjddb8VoOz5Otcupz9cLfE/rZVP/uK+vX+WFbjUdEAwnnQbviqvy3TodIRKGTIyOcuiZKidu1Ois0o7lsvRt1ebIKqm5tfxguuzPJzeZQV6e6j5xdX8di2XT9KCodGXM8nwi9TXTpNFG2DopTqI2motyyf6Fn738pzcIZ/9xV6/kqEZ5tfb1BeWe0wQVX/JSQRRtYNtsuGBTbLZSlcaJ/UpfZVVm7St1nXqy5GrXHvLTrlv3fvq0Ti5KmO/aBfIxTpI29kdMhPKZ3Tpj71GorYlZWBpOoD2j3afhIm/DFl/OoiqAxyNHn2sJt9eXCILdYBHsW6NfqMnqKK1//lTue9lHbAbLFd8xZ2lFrVcH9IBrn85nnSbtF7ONWbBkzNC1f5inuv1Sy5zwqybHvDLnpaTP3+ujjrlfPtWfssFOlNQTdfLljZdNT8mU69PhazPXHS8+akJ6p2R3+vB1lKmpfelmfv+qbsoSL7FXR07utwmPYhXyvHpErqcem3ZL9RrXv0hv3Hc1GeJXBSzJiZE2z/zdNzGT8hjiQHN/OsiP8K3n+HpH/LsPi6dP/tW7XHSlDJ9aZi+M/1cfFFPMFAHTPXjDz5UZ7WUaUZ3R8/5e/wSHSxslZceul9+rW9Vdwf6Du6Q3z/9gvU5I6t8zg6du+SNRDBUa5eultXys9uXW5/pdau8JWQ5ezkVHQR+IPn2f6vcOqvVEznyYdK6OuW6Vbmf/dC/XPfunR7lcqiXNCPl4ovNwyAHd8pjD6yRxtvXEEQFAAC9hkAq8mCWlFr3Z7fKJ+5s01QndyT1P1pyUb018NKZjuW+WZW631L9eSXDRtsTDPsWeR3YXC7xD/2/wqUHLdvVNPXf0FtkxKWzpCStq4H2tD5Sc1nOJMNMIPV00FfOWTLE+mZXKyO++nMpv8Lj76u3WJ/Vpy4eaQWSZE+rT6ZIl2z4lQ6KilTNuNQ30OinsirPA0X8+VNp1MGmlMCKNap6hozCnLV/ml2AIzZErtDx5Y9PyrN+2YMm0FdVPaSnPqOW6zNfyGadJWieuTm3D0eRn2DhF/KBDgTq7gfsCTJ73BBVt1/I63rZzh8iXzdBNCd4lhZoL7jeqU8/XuvrnpY2zxz2z/a/fG4NZlQ17TxZeqV6LSWA6SdqOS3x40asRGZfVipLv3mBPN5wgfWDiZ2RO1guvsB6Ryhp+2d/O277qv3sZWVV9o+y7/3KlVFpgqvuac77ujuc8/cs+YoV4K2V6x/+udy93uPPyXRN0y7Hj6j/Km+Rby2ZJWVp3d+0+/R1GqHc2Eb5ml5OExTO5L0/uF53lfttQLmeOtFyqZd07R1eo5wBAAD0LQKpyJ3JtJTuN+S0NSE7djC0Uz7vDgospqpWZfX/rfK5zwBPJSOv8A1ann53uXzS3Wn1oRqzApWrZcRFs3wDk9GXM9nQkTqrVS+z/dxXzB7Zv9g5WaUdHV4pSsYH3VZAQyqTR1x2vhzVLrpBZru/DI6tkaXWLf+qxjuKI5skLQASPyH3/YudAdb4L59agY5Mss5YNBmOcv5wWZWa8Zr4O099PU0RtVw/0m4CdVbfm+6gmO5rdY6d1ZefgKaTUelkEDr9oJ6R7dbn9wTRxpxv3+b9ul8QDLZc9k99rP3ipLR+PFhqp+m+Tc37G3QfpxkCpFHLKfp2fGsU/NtGStOc4VKr+y61trW/SPvnWXDcRtMmj91uZxQ6f2v26On61v7k6Y8F3BaejZj1I3CndH9gP9fGW/1+Jk+z39cqf3HmWXelneUZ0YEfLpeX9nTKyOmLpdEKOK6WGxfMCuw3NGy5siuvsIKWqVmjbnaQOHl9o5bLtV4AAAD6AwKpyJ2TaZnFLes9nGBowMBLnp89WgZb3Qh8aGWBenGCn1/o7NM07XL63fvl6J+WyycdreozzOBNVkA1Ne8nl+V0M5+TYZkdTrcFuhuBo7sy/2XKxi1qLS+aL8fjpOlh1+2aD8+1Awd7tsqzefiSnAsnsy4oiIIC+LNzm7o9AE8i0HSbCTS1f+qf1ReSs93tAPpgufh8Eww//oX1o4A9fYhcpZsKNb3/DrLTTzi3rv+iW9a8+bm0qjrvUMekEyB9/Js+2ZpRyl2m+5W1+xvV3SW0vqn2O1V+mfrTP5w4XSWkKeD+iXxysifdgyVVywUV+n/3NPO+zg/F+R00kcm67jvy1O2Z/372rNeO0y4Hfni/PPXQcnlpS6t0O4MwWYHRTPnH4co5geL33vDbeavlshn6PckDRkUtl3u9JHN+sAUAACgmBFJRxKrlXGsQp5TMUidj85RfUDLL4OdJ03erDkr+aa2cPq0Dqt+Tc9Nu9w/is5xJTPDXd5nT9Wn/pyFUVWW4z9W5/d+zL1OrFzq1ldy6pXXLVln2wzb1dTGT4/KB1S1tcqZrPjm3B0t1qSwMcWtwZCZQZw1olMh49flzD+wStZyX83tuaS8+doAzeX/Rg/R8Ksv+I7l/yVwkbgvXAfTLhliBMCubMP657PrY3GYdKxEdQshv35AuRb0dQsrX/hnX/ZR+Ko9tOm5nhP/iU2m1tsd5ck+mke2zLudkj+oBo+w+jXW/pbqv1Pak/lL9hNw/83ncIpqxpn/UPW/IAWuCZkbxd09z3pfSh6iWfT+fPg62y4Fndf+m35GnHlor73XqwOj35Otpt+2niFoujVlfV5A4K2NnyiUZyuVcL0m65QN31isAAEAfI5CK3JngYEnVbf63pA9PvXXe9FUqtTLEJ0jlHsDqhOtKPZGx2e3Xb5dfxuosu19U8yzJyR1WdqpIpQy2grCO6MuZxAR/s8naPXPa/ipecsFM72VVSmLVvq8l6NFrV9qZno+nDPaUlYAgZfsb79uBgOm1stDzy1uZLPy2fZt+x+53kwMBdTdYA4hsfmiN3Jd0u+YGeezZoCCq1iUf6r7i5Hy5KPQXxyyZwJnOSpxX65P1lk/O/MIGbqOW85Q+kE5RuOw8q3/KzXogoKQgU/ogPTmLnxFrjLTzS2S2lX3q3L5vbvvXQc5eH2iqSLdDFDnsn9WXZTju1Oc+tsfumzM1azxqOcvHn8vvXQNG9VDbxDxKE2X/zNdxq0ft110R/OMoeTxTQBnpTF+o7gGknFvTk6Z5vK+rwz5Pj5wx0/+2+rpqj9dmyY26f1PzLMnBHfLrX9nXISPTBleKWk7zm17dMxCVR5BYl7vkSo8jyRp53/RzmlIuer14KZOvz9Bz+Vg+TO371VdNz3XPkhozDQAAIL8IpCJ3J3fK51bnqLUyYvL9MnS468JbPR566Wop/+ritNvmT3fbvUsOvWS1jIi5y8ySc1UZ59ayE0kj/auvsxlv21ecoOXxncnl9KBRul/Uyfb8kr5yqnmOMFmlqaIupxcdHB3qZLzqunF/niNu+podeota1sae9yslzjwveVRKA758z66fIbV60ZSqm673CXZ6Mdme1mj7NT0BibE1yf2ZHtwpzdbt+SNl3sMLZWmd66uReu/ClQ0yz5r/+9KcMnqufbveSLn4yuy+TnnZ/gc9kNVIuSKHz8jsjGz4z5N2sLj6PFnVoPs/dO01ejCab5bat+7mhZqfFeAZLPNu8+rLUc3vyvPk8X9Uy2Gm2KKWc/tcXreiPeoz/ltpSj+PetCdvg3Q2AM7DZaLM41enjc9A05dpQNtrtv3t7+v67lErrJ+H/hCdv0l6IgPq7i3QzQR989YqdwzRx13/3iBfRu++9hTql39jyYFtKOWc5w/XO7Ry2ie6uWrvkwtX4Nq5zyaay3a/pmP41a187WmKwJFD65VkOz5AjvU8b607vG6qyE36QNIZT9NWt6Q9/T/lbdI48pGGe86N5bpQOOS1dK46FG5su7/3979AFdR5one/0WcdYE7DpAgSVQSHA1/lv8MDmMkgouzpYyScoAKd+vu66zDiimvTDnrW2q5pdZ4xSqvlnqtiMvO6N16d0mBYxFdx5rRHRWJOmrAURYhMkMIkoAkBJ0Fxh2R93m6nz6nzzndp0/3+R++n6pAnz6nT3c//fS/3/n185iRRtWKZrlIt2+67mG5JjmgqKa75nveZ5So0w32WSdzuWj1jxOXsbFFrln3gFxlNW2QFDhW9rxnX/eMXfqA/PWKhWpaNU+zXn99382xa4uEDqq0iOXiqe5ima/ns+N3np3pealfMS9+3eP7Iy8AAEB2KmbOmn3aDBfNxIn10tvrukAdZob7+llGtUhlmp7kvxx6Xj7bmxpo/POL/1W+YaU1eOmX4//xY/nPhMfz6+W/zXhARv95l3z27sOenVudfb4d3NRtjCb3su+852voSRnc+0YOljPZQvnG/JtTM3b/+LwMfugRgK38sUy4yD9E96Vazs88ltOtaW2rlfVpG5KOezb69K6fqn7FKnlwqccK73hFWh7rNi+0KlfA1IvPfOsWyCP3zbUf+/fR179P3v23d2Vjp19XFw1y+zNLZF7/drnjzrdzm5XoVjlaHvn+qDTLekq6Xv1cHkrKYqu/dJw8OHuE9L0/lFmv/YYzna9jX1i9tCf2nh19upi06/mFtP2jd8/wjuD1PVtW6WDUmFPS8fPk3r9tvt8RuA10UOwLeXfHCdnomU0YTtN3nR7aFf3otdMrecJyBJeJFroeZLwdsijPCJwy6Xr1iKrr9jjn+4PGac54Xx71U3f8tGJOPFDo6dgJuSPp0ffI06VbRrV8uh3U1tnnpKxbNvUzSrm4JdRVdSzyqwtINXntv8pVc/ql654fy1vmHGWP65KXb3jYPNpfL99Z94DMq3GPMxp/LLes9j9PD+140urxPvkMVrXiYWlZmuY6RE2ne9jPzXQL5ZpnTNZpsn61Tttr5aqlar92lYHDLgvzwmVox/PyXt983+milksy5zqka0PmHYslX7v0vbhJbkv6IRcAACBbIyZUV99rhovmG98YI599plOAhqfhvn6WP+2Uk31dcmrUNDl75Nfjqc5/7JLjvU/IZwe3yVdmlNuXR38uX3xRL382slbOcqKwf+yXP376/8lnuzfIH/9kxsXMkJF18+XsP74nxz/d6fmdfzbhBvnzkf3yRd+v5L+Spv/qD7+S48c+lYqvXSBnuZbzSzXP/+pdp5bzA8/gZPjlTNYrXxz7mpx97mQ520z/pSqbk30vyx9PetSNk29Zy3n2uReoz3/djNQB1OflD7+/T/5wuNdz3d32Hxohk6bUSK2avO/FF+ThN9NGehMc27VT3vtalUxrGCuxuffvk47Xfic7D7i/54Ts/Pd35b0jI2RsrT0v25D07eiU/3Xn67LtMzPK7bM/ysm6Wplfk9COQoKvf32sTJn3FzLpyLvypmeLCIPS97WLZcnci2Ta1/bJL3dlvn6hnPyT/LLrv+TTEWfJ+X9+tnw9Fg0/JX09/yn/69//U37xSerWGHP+SFlSfZb84dAf5ZcHg7ZW3LGDJ+XZnlPytVFny7ljzoqX/7FT0rX7P+XxX52QbR7Z2FGni9HrqaafVHu21P55/GEFHQD69Vsn5MWj6dcheH3Pkhl/MVKm/Plp2fPRSdnpsSy+33HytJys/DOZr9bLz9fVtpkyaaRM+vyEvHnUjIxov9rJl0+yd9SuHZ/Hv+/kWTJz3jl2wOzYf8nP/+NPEnRkD10PMt4OWZRnBHXfHK3KXx0GeuLl63x/0DgtSv08dvRP8uZ/nJD3Pq+QsWPP8iiPP8gzb6Q+Oh95OrWM731+tkwb69rPdSBTff7eN07K/lHnWPUied2yqZ/Z7rf7j1WouvI1tY5q3d7/TB7em912PnPUS0PzX6pzVrf8x/99y7Tzacb953vy7r/vVGc3bYbM/B/zZWy/e5xx4C15Z8enUjXlAhn79diWswKN29bfJ6/+sjfx88aJXb+yphsx5gIZWfN1cc6CQ/390t++Tn65+QPPIGO06XrlYzNNrZrGoj7/e/35p1+Sk3/xVzK9oc9VBnGDv/m5/P7I12TUWeeqV/8p/XtflffW/1+1Xp9Iw/9oTio7l4jlkqhBVv+/fyG1/dvl8ac/CTzOOo7t+i+Z9O2LYtcif/j4P/J3bQAAAM5YZKQWwBmRkQpkzGSxSrpM0ippWrvSyqhNn1HiZMSGy7hFOTGZl+rWOzmDMO5safruWCszLxfZl0DmqJ8405gs1/7npf3O9sDM0ijsJ2qyOK83Xi3tqyeRkQoAAPLCP30CAPLBtHuW0gFVggHp7bN79U9vQDau3y59VjutV6dtSxBlqvIcKxOyryddp1JfSq9Xe5dAvlE/cYax2mtV/w9tfzsvQVT9eL79I+rLkX8ctdthH5J33yGICgAAco9AKoCi0B1g6Q6qYs37GfW6o6q1TjtnqR1Vpdj/tty2YZ/0ySRpXUcwdbjSHencfsnZqfWl8hxZ9V2nnckvZAvZfigC6ieGjboW+etnHpZrVixM6dTK6izKaqe1S97b7P/TQVSxNk53vBI9k7RugdxqfUcXT6kAAIC84NH+AuDRfiBRYkdYPnSbrOtfyvxGSHdgtWasbFHTbOXmaVhJ7FDHh27LMl1nWkCeUD8xrOhA6n3XiUd3k0ZiB125pAOpt9Z2yW0JnVpmqkpNP19uXTpJatX1Q9ud6lrAvAMAAJBLBFILgEAqkKq+cYGs+N4kqakZm9DbtdNb/1udA2kelcWZxu6J/RypGTMisb4cs3tDf+vjL6kvKBrqJ4aXepm89n/Kt+bUxAOqupOq7Vvknc3BPe4XR4Pc/swSqdnxijz+WDf7GwAAyBsCqQVAIBUAAAAAAAAob7SRCgAAAAAAAAABCKQCAAAAAAAAQAACqQXAY/0AAAAAAABAeSOQCgAAAAAAAAABCKQCAAAAAAAAQAACqQAAAAAAAAAQgEAqAAAAAAAAAAQgkAoAAAAAAAAAASpmzpp92gwXzcSJ9cO+Z/umta3SOse8kCHp6z8mW9a/JFv3m1EAAAAAAAAAShYZqUUxVmprJknrfVdLkxkDAAAAAAAAoHSRkVoMdQ2yas0SWVYzJB33bJSNZKUCAAAAAAAAJY2M1GLY3y1vbR8yLwAAAAAAAACUOgKpRdLTd8wMAQAAAAAAACh1BFKLpL52jBkCAAAAAAAAUOoIpBbVMTlI+6gAAAAAAABAySOQCgAAAAAAAAABCKQW1SRpXbdAmurMSwAAAAAAAAAlqWLmrNmnzXDRTJxYL729PebVmaJKmtZeJc1zxkqtGdP34ia5bfOAeQUAAAAAAACgVJCRWmROEBUAAAAAAABA6SIjtVgar5b21ZNE+vdJ2/p3Zet+MlEBAAAAAACAUkVGapHU145R/w5Jx/qXCKICAAAAAAAAJY5AalEdk4P7zSAAAAAAAACAkkUgtajGyPn02A8AAAAAAACUPAKpAAAAAAAAABCAQGqR9PQdM0MAAAAAAAAASh2B1CKxO5sCAAAAAAAAUA4IpBZDXYOsWDrWvAAAAAAAAABQ6ipmzpp92gwXzcSJ9dLb22NeDU9Na1uldY554ejfLnfc+bYM7zUHAAAAAAAAyh8ZqUUxJH07tkvbeoKoAAAAAAAAQDkgIxUAAAAAAAAAApCRCgAAAAAAAAABCKQCAAAAAAAAQAACqQAAAAAAAAAQgEAqAAAAAAAAAAQgkAoAAAAAAAAAAQikAgAAAAAAAEAAAqkAAAAAAAAAEIBAKgAAAAAAAAAEIJAKAAAAAAAAAAEIpAIAAAAAAABAAAKpAAAAAAAAABCAQCoAAAAAAAAABCCQCgAAAAAAAAABCKQCAAAAAAAAQAACqQAAAAAAAAAQgEAqAAAAAAAAAAQgkAoAAAAAAAAAAQikAgAAAAAAAEAAAqkAAAAAAAAAEIBAKgAAAAAAAAAEIJAKAAAAAAAAAAEIpAIAAAAAAABAAAKpAAAAAAAAABCAQCoAAAAAAAAABCCQCgAAAAAAAAABCKQCAAAAAAAAQAACqQAAAAAAAAAQgEAqAAAAAAAAAAQgkAoAAAAAAAAAAQikAgAAAAAAAEAAAqkAAAAAAAAAEIBAKgAAAAAAAAAEIJAKAAAAAAAAAAEIpAIAAAAAAABAAAKpAAAAAAAAABCAQCoAAAAAAAAABCCQCgAAAAAAAAABCKQCAAAAAAAAQAACqQAAAAAAAAAQgEAqAAAAAAAAAASomDlr9mkzXDQTJ9ZLb2+PeQUgVZU0rZgvzXMnSW2NGSX7pO2Gl2SreQUAAAAAAID8ISO1EKaNkAV/f7b11zDNjEtQIQ3m/QXNFWbcGei8s2SWKYdZC8/gcvDQtHaltC51B1EBAAAAAABQSARSC2xcg0eAcNpZMs4MnslGTa6QkWZ45CUVMsoMo0rOr7aHujZskpYb2swf2agAAAAAAACFQiC10C4+S6rMoKPKK7h6xqmQyktUORz9Sg7+5rTIOPX6PPMWbP3bZXPngHkBAAAAAACAQiKQWkBH9+rmaCtkXMLj/er1xeo/9d5Re8SZ6TxVDuNETn58Wg7sOS0ndblMJsAMAAAAAACA0jBiQnX1vWa4aL7xjTHy2WfHzKthaPxZcoHOtvz4tPzhggoZV3FaPtlt3ps2Qi5R7x1V74l6b+RR13suo6adJZOuVZ/9S/Vdl+k/O2PzD+qzfzKfidFtjd48QiZNETm643Tq+1IhF/7t2TLtLyukYu9p+fy4GR1TIVUL1byWqO9Int9RNb+Uz7ucp777KjXd99SfNd1ZUjmlQk4dPC0n0k1Xp9ZPlcMfPvhKBntUnVDTnTvKb/lto9Qyzlt5VnwdvOZ9nipzzzKKuJw+0/3ZFyKfHzGfybkTMm76fJn/3/rllX//RIbxngIAAAAAAFCyyEgtqNNyUqeduh7vH1Wp/1XjByXWPmgiO+g585qzrIzNuAoZefEImfn3I+TCnD4CXyENfztCLv62+n6v+f3NCGnw6QhKBzYXqPfPvzje1qk2clyFXPw36TuQsps3OC1Hd+lX6v+96r8Qj/f7zlv9nbAHY6Itp9oOzf7TnX+NKhfPjsRyqGasTDSDAAAAAAAAKCwCqQU2qDNPxXm832kX9LQM+jR9OWrhWXK+FdA8LUd/cUre/t9f2n//fEoOWm0BVMj5fzMipd3VqPT8rICtWqa9/2zmZf2dkg9+oQPBiUHEmGkjZOa3TTD0N+qzsem+tKdT74z89lk+QV+neYOvxCmGgW5TToGP96vluczM21pmVxnpZX5Tf49L1OWcprbDxRVq/VPnsVe36aqMuyZ32wEAAAAAAAClhUBqAY2sFDnxxldWW6hW7/2mXdCjb3+VkjVpOe8sucQE/Q7+8ynp3uUKCn56Wg78zBVMTZPtGcXJj7+SgU/NC8tpObHrlPz2Z1/Kb99ICk6q+V+4wJ6/DvZ2q/fd62NN94s0gdFpZ4kVu7WCp8Yuu5wy6b1/nA5w/uaUvK3KY0CVS5xajoR1yGI51Xsf/LNad495DLxxSvbqDFplZE6zg7UqqV9xtTTPUYP9Q9JrjwQAAAAAAECBEUgtuPhj61WTdXaneq0fZ6/yyPR0xu39Sg4kBAQdp+XA23ZQL5OAYyZOWB092VmZ+hH+UZkEBk1AWPe4/4n1aL6HNIHRxMf6HfFyCny8f+8pj+CuhyyXMxaUVd9TNU2VT/MImfW3I2TB358tF+uMWlHbK1cpqXUL5JFnWqX9mZXy4NJJUtu/TzrWvy095m0AAAAAAAAUFoHUIrAeWx93ltUOqftx9mR2+6litZ/qa8AOfOqAYy4CqfLpV/Lbf/5Kjh6tkHHf1m2inm0FChf8rd02qmdg1Qn4qnWaqT/r+TfCyjpNpeZjgpAXJ03jBCeDHu9PWz5uWS2n2h46ePq36jN/M0Iu1m3W6rZSVbkXQp/6O2gPAgAAAAAAoAgIpBaDyXrUEh5nLxWffiXdP/vSaodVt/959OhpOTkuHlid1ZyjoK1mHutPJ1fZtlnRbas6HX6p8tDtq+q2Uj8w7aU6j/bnzP635bYb2qTlhk3S9uKQ1NZMktY1C6TevA0AAAAAAIDCGjGhuvpeM1w03/jGGPnss2Pm1TA0/iy54JIKKwD3yW57VMWIChk56rR8+ivTTqfHZ75Wd5ZMuKBCvvbH+LgU6jOTnOl2nJY/6XGjK6R6lpru5Gk57IxLUCHfmHOWnDtS5A+/PS2fHzejk6nxJ3pPy6D6jsNvfiWf7D0toy5U052v/kaocU6DnRUVUqnnt1e3U6o+pz/r95e0PFWNI2TcOLsN2F0vJ3/+tFRMUfMaJ/Klmnfycjrl8+VB17KkE3k5K6Th/znLaobh4C++kl2/+koG1fxOqOX5k1mmUWo5dZBVty07eMQelxsnZP+unfJp3XyZf8kfpXvLXtlv3gEAAAAAAEDhkJFaJLqDot/+zP+xfs1pr1Qu9u/t3uk86eTHro6TPk3/uL/umf98nzTQUdPSZH+q7+122mQ1zQ5Y1PijOsXWdzn9mMf6j56WQZ82YAfVelmfC+y9PwORl9PQy+nu8CvGNBkAAAAAAACAYYtAain79Cs5aD0yXiHn/80IaZjmCiaeVyEX/u0IExA9LQeTOls6abUdUCEXux/D19M0j5CZum1WL+edJZdco97/+xH24/vq8276dcM1JnCb0C6p0+mVWc6UtlQrpGqh+k71vQl9MZnH+hOCwElinV/l5PH+iMvpGKfKR09jXurPj5pmdzh1vtWeKwAAAAAAAIaripmzZnul2BXUxIn10ts7jPsjnzZCFugApH6kfItPcft+xh0w9WI/Fp/Sq7/zfR5O/uaUHKwcIRdfnDqt7lDpggWmLVA/R7+SD372VUrwc9TCNEFa7aia37/F51fVbHcodfQXX0q3Xy/6av0brA6gPJbVzE+vT0a99hthl1NLO436/N6Pxeo8LP26RFUlq9atlGWyXe64k577AQAAAAAAioGM1JJ3Wg787Ev54Be6J30zynJaTu49JR/8b48gqrZLvfcL9Rn3NDrg989fWkHHE4PegccTu+yOpuz5JX7mpA4w/kJ9r0cQVTvxximrg6qDe03TAg41ne6c6YOfuZfV6a1fvZc28KjeN1m5OXm8Xwm3nDY9jVd56vJ4W31+ICFDFwAAAAAAAMMNGalAySMjFQAAAAAAoNjISAXKRc1cWdHo2XorAAAAAAAA8oyMVKAM1K9YJQ8uHWteOfZJ2w0vyVbzCgAAAAAAAPlDRipQBno2b5Q7Xtwnff1mBAAAAAAAAAqKjFQAAAAAAAAACEBGKgAAAAAAAAAEIJAKAAAAAAAAAAEIpBaAbroAAAAAAAAAQPkikAoAAAAAAAAAAQikAgAAAAAAAEAAAqkAAAAAAAAAEIBAKgAAAAAAAAAEIJAKAAAAAAAAAAEIpAIAAAAAAABAgIqZs2afNsNFM3FivfT29phXw89wX7/yUS0/mrtafjByUJ5+v00ePW5Gw9PU8VfKzRdOkStGVpoxIj0n98irB7bKo0cOmTHJnDJWnz2wRZb1fmjGu4y+UjpmN0q9eRlzslNatv9aPjIvU0SdDgAAAAAAIAfISAWQavxKaW9oTAiiavUjJ8sPKsebVx5GT5PFI+3B+gunyrX2IOCpfsUqaX/mamkyrwEAAAAAKGUEUgEkmSGPN0y2hnRWaUvnT2SW8/f+Brn7wBHrPU/Hd8mrJ+3BngMfyQv2YKLjv5Zl7u/s3CKvm7fSijodSlSVfGfuWJH+Iek1YwAAAAAAKGUEUgEkGj1e6vT/Jzvljt4PEx+ZP35IXlB//g7Jo9vtQKfnY/1AzDi5oEb9d+io0PAJAAAAAKAcEEgFcGapWyC3r2uV9mda5ZEVVWYkCq7xmzJP/df1Xrf9GgAAAACAEkdnUwVwRnU2NXqG/OjChbK4sjLWKZB/B0WmYyJxOguqlmunXC8/dE872Cl37E7XkVC1TB3fJA9eWCX1sfY8B9V0b6jpkrIpUzqbCj8/uwMm3XaoGeE7r7ipE1ul/UKJd3DlVUaDWzyX99qJTfLDqslq3cwoZ34H1Gdz2FnW1IkrVRmq+ZjXvtRyzlLLaYt3LOWl58AGWdabLnvVMUMeb2yWK0J3GhVtuqa1rdI6x7yQIem4Z6Ns3G9e5kyVrFq3UpYdekVaHuuW+sYFsuJ7c2WezsBU+vr3yZb1L8lW3/lWqeW8SprnjJVaM6Zvx3bZsuVt2XrB1dK+eozncus2Rx9cKvH36hrk9jXz1HzH2h9Q823zmW9949Vy6/cmSa1ZRl02XS92yebN3R4Zo4nrZy3vivnSvFRNb39ALe8r8rh6Lz6tWpZ1rmVJSy3nDWo5zSsAAAAAAEoBGanIkWr50ZRW+e3sZvmBK0CoWR0UNayWx/36KBpZJRePniGPz10t9ydPW9ko7XOvlKnmdQIzTXuDDjS6O0VS31HZLO2NrfKj0WZUslFh56eDhv9gOmAyoywZzMtFB1U9y0j9JQYCzfLp4KbX/Ga3yuMTq824XKhKWB5kqe5imV8j0ifjZNXaVfLg6ngQVautmSSt962SVVYbCknqFsgjz6yUVlcQVaudM9ea5vZvTVKvjslBj2DoxFodpLTfszpyum9JYuBSL0PKdDrA2aqW0R1E1cbKvKVL5MF1C1LrhrN+fUfjy+sKomq1c5bIre6M37pxUpNREFWh3VQAAAAAQAkiI7UAzoiM1PEr5bcNk63s03/as9XVjqbOqrxe7r9QBzr3yN2dm1wdECVnNA7K093PxTJXp1o9x9udHr3e/RO5NaGPI5ONqAfVPJ9OyHg1mZwXTpb9CdNFn5+dVarXYVC995x6z8xLZ5dObjbfmbx+Nmfa1wf3yBWV6vvV8t6dVEZTRx9KyDCNzc/6rPrO2HtOBq76noFMMz5DGn2ldMxulPrQGaI2Z9lLNSPVerR/jR3Y7Htxk9y2ecC8kUONOmtUBzy1Iena8LJs7hywszOtLFEd4FTDO5yMTod67xn1nh7s3y5t69+OZY9aGaM62KlfqPfuuPPtpExRkyUq6r1/G2sFRq2s0C3d0mN9R5U0NYpsVcsR58zPZJ++43xWUcu5Si3nMrWcXRva5KFOM14z69fXPyRSM1ZqrUzXd9Wy6u/W2bQ6EKwGU9bPYebruR4AAAAAAJQmMlKRG0c2Scv7P5Fl23XQzx08OyQv9LbJ3YN6uEq+6Ze1qQOGnW0Jj/9/pL7Tnk6kbmRi9uXUiQtNEFUH0TYlNRug57lJlr2/ISn46hJmfqOvlAdNEFU/nh8LomrHP5RHt2+Qp62e6ifLD9Nkieogqg4uzvIoI7/H9HsGdMDVvLCoz6rlXLZdd+bk/g5kbP/b8tCdbdJyQ1t+gqhKfe0Ye0AHCm/YKA85QVRtf7c8tH679Onh6nEJ2Z5Na00QVQcg74wHUbWezpfktg377BeeHTSZzptkkty6eox0bdgkt+lH62PfMZAURHXmt0/a7lHLqB/hd81PL+dGs5w1tYltyTrrV6szTF9U+/6durkA57vVfLaY9fOjs1P1/3Q0BQAAAAAoIwRSkTOxYODoarl2/JXy+JRW6ZjbKr9t/Ae533ryvlIuGmV9IsmgPK2zLs0rt70nTGQzQbX8VZUJbO5Jk4no27t8yPmNMo+9D75ht3Ga4pA8emCPNVRfNc27GQJtcEvGwc+PBndbAab6C6+XxyfOkKkZNBuA0mE/Yj8kHet9si33H5V+MxhTt0CadRanDr56ZnHGeXbQ5AQna8ZK/wY7eJteg3zbaitWNzPQanW+lfJ339yEx/Ud9vrpTNX0Gb3Wo/9eLrCbLaCjKQAAAABAOSGQipzRHTE9Pvcf5LezV8v9ui1R3Q5oQtuluTJeLrIepR+Q3/lkcubS1JF2Nl7PCb/0VuWEyTjU7b1aI1KlnT7Z8V/Lsvc75fWTlXLFhbpNVFWujepvrm4blcBqaauS863EZO92TP3UX2o/tt+3fa9vlqadCTokn3xiv05ggpO6uYKEx/D9mF7zw3PWb5/8xidY66xLf5/3+01WO68+6wEAAAAAQIkikIrcsNoXNR0xndwjrx/YIne/v0Fa1N+szp/EHplHCMd/Lbdu/4nMUmV49wFVpicHpWdkPLDaMWWGf/Yrisg8Yr/jd/69zns82u5ksb77jl+GZ5V8Z67+jHeA1glO+k+fyHk8X7d/qps5SPeXmHVq1i9Nh1DOungHSqMFmgEAAAAAKDYCqciBGfK41UmT7rzJbgP01t4PrXZAP/J9vD4X0rS5mgf1o8abIQ/O4/8nB2SvNSKHVBnqNl9v3d4myzp1YHWLvH5SLU9lszyY0577kRMm09P3sXalqdl+ZD7co+3pApjRg5PJ7Z8GcjJZfds3DVqWDALNAAAAAACUIAKpyJ2Tu+WXCZ0+Oarlm2YoNz6Ul60M10r5weQr/bMyR1fnJGPTaa9UKhfKjzwDt9XyI92LvtIzsCt0L/depo5Pk216/EO51WmTNV1wd7RpaqHxH6SjHAKuaZpFSCvsdLrX/nV2G6CPrAgZRMyAk+np91i77vHe6tHeejTeGuMyVi64wAwm0D3hm46o0nU0lSZLNFlP3zHr/9q5Fyd0eOVW32h+IHCJZbL6BoEDlsXJxgUAAAAAoMwQSEXujGyUB3X7nealDjBOHb9SOuaulh/kuKnUFw502sEkNc/2uSvlR+PdgUIz39mrpX3KDDMuC8d/Lf/kBG5nt8rj7nmNniE/0utntdm6R/4pFz3pj75SHmxolvbGVvvx/dGJQdCpap52BnD6dlevvdA0taDoTqu8g8Cl4Ij8/qT+f7L80F1/1Hpem3aZo02ns0HnmUhe7dKrZFWdPZwrTkdM81brQG2DKxCpg6GrpH21fgRfP1L/UkJGZm/fkPX/vNVXS5NrmeobdeB3pQm++mS6RukFv/N30qX/r5krD65bkDjPugZZpZb1wdUrZUWjGWmkf2xfcTJy07T1apkzT1Y1xgPZ9jzVcpjXAAAAAACUGgKpyIEP5ckDdiOo9br9Tt0pkvW3WtobJku97LHa+Mwp0xmTHUydLD9oWG3m6Z7voDx94EPr49l6YfcGedoK2lXKFe55zW42QVQ1r/c3yQt6MFtq3e7otjua0o/vt892r9s/qNfNcoX+3MlOuSMXgduiOyS/HPCoP2o9778wXSA86nT5ZB5r7x+Svn4dqF0iD8Z6wdfBUDvI6tUhVM/mLjuwmdSL/oOr58o82SdtL+pAq08bqE5HU2maE0jVLQ9t2GcP1sxNnOd9S2SZWta+Ha/I5oTlDG5CIDAjd/9eeVeVjc6+XbZ6ZdI858q3kwK3AAAAAACUCgKpyImPetukpXuP9FjBRuPknlibqS+4x+eKDqZ22h0xJcxXBqVncIu0dLbJoznr1f+QPLr9J2oddYDTjLLkY16qPI/YHU3Z87ODhY4eU64t23+dthkBnbXrLGvPgedyuny5ZtUfvR3Na4tez0H/jFstynRbt2yXLiuQpwOaL8vGnHZ4ZB5rP9Qlt925Sdp2DEmf/Yalb8d2absnufMmR7c8dM8r0qGmiekfkq4Nm+SOO18yj8l7BzADg5d+Ol+SFjXPLjUft9hyPtadlFUa3IRAYMaqDMhGVTYJ66n09e+z5pkcYAYAAAAAoFRUzJw1+7QZLpqJE+ultzftQ6BlbbivHwCjboE8ct9ckRc3+QRLAQAAAABAuSIjFQBypP7SSdYj9qEzQwEAAAAAQMkjkAoAORL8WDsAAAAAAChXBFIBICeCO2ICAAAAAADli0AqAOREcEdMAAAAAACgfNHZVAHQ2RQAAAAAAABQ3shIBQAAAAAAAIAABFIBAAAAAAAAIACBVAAAAAAAAAAIQCAVAAAAAAAAAAIQSAUAAAAAAACAAARSAQAAAAAAACAAgVQAAAAAAAAACEAgFQAAAAAAAAACVMycNfu0GS6aiRPrpbe3x7wafob7+pWN0VdKx+xGqTcvY052Ssv2X8tH5mVmquVHc1fLD0aK9BzYIst6PzTjc2PqxFZpv7BSffcG9d2HzNhicdZ1UJ5+v00ePW5Gl4QqaVoxX5rnTpLaGjNK9knbDS/JVvMKAAAAAAAgF8hIRdmbOv5KeXxuq/y28R9ifx1TrpRrR5sP5MPoabJ4pD1Yf+FUudYeRIE1rV0prUvdQVQAAAAAAID8IJCKMlYtP5rSKu0NjXLFyEozzlZf2Sj3z26Vx8ebEdrxX8uyzp/IrNjfFnndvBXa8V3y6kl7sOfAR/KCPYiCqpLzq+2hrg2bpOWGNvNHNioAAAAAAMg9AqkoU+Zx80odQB2U17s3SEssQLpB7j6wR3qkUq6onGF/POcOyaPb7fnl+rF+hNS/XTZ3DpgXAAAAAAAA+UEgFeVpfJPVPqnIHrn7/Ta59cghVxunh+SF3k2y7P0NMms3Qc6CqVsgt69rlfZnWuWRFVVmJAAAAAAAwPBAIBU5ZbdXGm+r9LeNrdIxZYZMNe8n0lml6jNzrzTvV8u1U9Tnk9o6TZ1WTXfhZGvo9e5N8oJf50fHc9VJk1lO13K5/zommufL06pWZbNSOhLack1XNunpcrK+w2/60TOsZg8SynLuyoB2Y51ldE1jtTV7SH53wnwkjabmuTLPtFVau/QqWVVnD+fPgBwsdj9cAAAAAADgjEEgFTliBxvt9krNKEul1Fc2S3tjq/zIL4g3skouHj1DHp+7Wu6vVJ83ozXd1ml7LNBqxDp62iMvH7HGlDazbu0Nk6U+oS3XDMrGg+7RX5eTDG6Rlt0fujJxbfr9385utpo9SCjLkZPl/tl+gV+7qQR7Gc0oxWlr9oejzIhSVDNWJppBAAAAAACAfCGQipyYOvF686i93V5prEOn97fI01anTJXyg9krfXq31wG+Zrli5KA87Zq2pXuP/fbIRrnZ3WnUqCo7QDhYqE6e4u2huv9aDgya99OZIY9b66YGT+5JWD93W64XZRio1EHS9gsr1Xd1egZRZfxK+329HQ5scbUba5dnj3qn/sLrUwK3105Z7bn9WtT2e/1kZUJw1c/WLdulq98e7nvxZdm43x4GAAAAAAAYDgikInujr5QHTfDuadNeaczxD+XR7RtMMHWy/NDvMfiTe+TuzjZ51DXtR0c2yd0mVlk3Mj7d1JHl0/7m1IkL5Qo9oAOf2zclrJ+7LddbM8isTQiibv91ahBVZ5XGmjxQ26E3MdCqy3OZFZyulMWVru2gtt8P9ebz2H4fqe13a2z7Bdj/tjx0p91z/m2b8935U5XUr7hamueowf4h6bVHAgAAAAAA5A2BVGQvliH6hjzq2V7pIXn0gJ1dWl81zaNNz0F5es8mz+zSvScyyfosVdXyV1UmwLzHK/BpZNCWazyIukfu9gyiKk6TByc75Um/wOyRj+R19V/CdgjcfiWkboE88ozu0GqlPLh0ktT275OO9W9bmbYAAAAAAAD5RCAVWXMyRHtOpEmrPDFgB7t0e6jWiOg+OmmyHUeNj9RRU+GMl4usR+IH5HdZBCh1B1D24/ragOw1QymcgOjIRml3dTKV+NdsZ8i6ZLT9SlSf+jtoDwIAAAAAAOQVgVSUnxwGZUte1fVWB1A6y/Ru3SarDpJOmWHePAPtf1tuu0E3H7BJ2l4cktqaSdK6ZkFCp1oAAAAAAAD5QCAVOVM/yt0jVBInW/JkmozKTB3fJa8GtblaUqrkmyF65Xezevk3baK+0Ntmtxlb2SyPexW1E2Ae3BLrLMr3z6N5gLTbr+QMyNbNG6Vthxqk134AAAAAAFAABFKRtY8Gd9sBvMqFKb3B2+KdIPUM7PJvKzRjh+SXA3bbqV490MeMniE/Gp9BoDVvma0fysvWYlbKDyZf6d8Mwehq//eSOpZ6YfcWq43TKxpaU9fbCTD7bgdv8e03Va61xiQZ7TRREKBugdy+Trdf2iqPrCifDsEAAAAAAAAyQSAV2Tv+a/knJ2A4u1UedwcvdTBz7mr5gRWI2yP/1BvcsVImPup9zvQkb+Y5cYYrGFlttSvaMbtZftCQJtAqR+T3scxW1/Rqma8NEYhM54UDnaYZgkZpn7syKbDrLOdq38f1UwPPH8qtpuf91OCs06mXq0wS1qNarp2o5te4MjFg6srwvV8to3vdnXJMblfVS1PzXJlXYw/XLr1KVtXZwwAAAAAAAMNBxcxZs0+b4aKZOLFeenutcNOwNNzXz1btCph6GZSn329L6hXemcbrPZvTW33PgQ2yLCUIGzzP17vb5NY0fSjFesNPph+P3/2heeEt/bK5jL5SOmY3pmnHM3X9g747ttwey+m7To6Te+TpPZsSyzvdMqrPv35islxR6b+dtKa1rdI6x7yQIem4Z6Ns3G9e5kWVrFq3UpbJdrnjTnruBwAAAAAA+UVGKnLkkDy6/SfS0t0pr1vZjY5B6RncIi2d/gG46NzztB/1t+l5dsrd76cPomof9bZJy4E9iUE4HWgczGEP9sd/Lcs6N8jdej45KptYRq7VXmpi8wV6nWa9v0Wtg/p+M86iyuj1A2p+25OCqJpeRjNNXPzzT55wj/e2dct26eq3h/tefDnPQVQAAAAAAIDCIiO1AM6MjFSg0MhIBQAAAAAAhUNGKoDyVjNXVjTSuRUAAAAAAMgvAqkAytSAvLV9yBqat3qltD/Tav6uliZrLAAAAAAAQO4QSAVQtno2b5Q7XtwnfaZtVgAAAAAAgHyhjdQCoI1UAAAAAAAAoLyRkQoAAAAAAAAAAQikAgAAAAAAAEAAAqnImm66AAAAAAAAABjOCKQCAAAAAAAAQAACqQAAAAAAAAAQgEAqAAAAAAAAAAQgkAoAAAAAAAAAAQikAgAAAAAAAEAAAqkAAAAAAAAAEKBi5qzZp81w0UycWC+9vT3m1fDD+p0pZsryu6+XhsFt8tMnX5HDZmywqNNlZvrKW+S6hioZ7H5Ontr0gRl7JqqWRTevkcsqd8vz97fLTjN2uBp2231Gi9y1bIp5Edfdca88+6F5kVPlXF+cZR9Q5fOsKp9DZjzyJmr9zFG9Hu7H+ZJdvyJsvwmLb5EbG6vyeOwbJibMlEVXNMlkVa6VZtRg9zbZsin311nlgutBAAByg4xUIEcmLG6SBhmQN58Ld5GefjodZL1X7gr4u2lxtfl8kglLpFFdNGuVlefJBGto+NA3lHfd3SLTzev0zpMqfTc1OCBH7BHD1zDc7hOq7PVJtFt25y2QUMb1ZcYiucyKHFRJw9TzrFGlJNx+Wx6i1s+c1OthfpyPun6FqGfF2H7jx+vPDsjAp/ZreFBletPq6+UyVa5OEFWrbLhcbry5vI89kev1cD9OAABQQARSgVxQF6jNjeoCtXurvBYqihow3YTzEm4C/AwO+GScHd4pewb1wIB07945zLIwqmXqFFV2mQa6nLIc/HT4Z6MMw+1++NUn5IH77zV/6+VNvX75DHKWc335dECsza9/oHm91LKOQu63ZSJq/cxJvR7Wx3kl0voVpp4VfvtV2z/wqM8ODLsNnSvVsuj6y63jt868/Gls+9wrP+3Yrcr4tTJ+IiWLej3cjxMAABQQj/YXAOs3/E1fea9c1xD+EeCg6XTmgX6Eb7BzvTz1Ko/nJjJNIqgbpQcyeETNKUsehxwOwm37KKgv+ZL/bVd8UdfxTCibQilGWRZgnlam5eVSSR3xN6zLiGMEAAClgIxUIFszWuS6BpHBzpBZDhlMZz/Cp5MPCKKmmDFNVPFJ90eZ3UzwOOQwEnLbR0F9yZMCbLuii7qOZ0LZFEoxyrIQ8zzPflR98AgHJj8Tpk2xymhY7kccIwAAKAlkpBYA6zecmU5dJGxHUZlMF6GzG5+OLyTDjqzsLDyRNzc8YTc1MGGmLL++SRoq7YCuDKpleU4ti8cXTVDzbr5c3cBYjx1qA9LduVXeePWDHD1CppblZteypJVcZsllWS3TFy+Sxkb7hkvTjwBu2eS/rPlfv7gJM5bIQjWv+LoOqOXbLZ2vv+JZ9tlud10+01cut9pPi5fHNnt+5+nvrorXCYspz0EnKyZseYadX6KUeppzifXliLU9Llfbw353UO0HnSn7QYb7a46zpeysdvMiiW8me+AypF+XcPUzm/02exPUMWxq6A5nilM/M54u8v5e3P02Y5HWr7j1TMv/9nPm4Zcp7+y36qt89v1CnscKVl8y3vZJ2z3ycTDb/UjNOuPjUhb1Otvrgglqva5I3H76GvDNba/Ja54dGGZfLgAAlAsyUoFsmE5durdlcFHqltF04Tu78e74Ql/7ZtYeViwLT31Y37Ddtfr6xAt4vTwpX6Qv9O+VG9UFe/zmTKuShsbr5cabl+SmUwPdZmVGNxNKSpm5ylLfPN29Rq5zXdxrlQ3XS7Nnp10FWj+Huvm5cZkO2rnXVd3INFwu162+RZbPSF3GrLa7Ux7umyXFnl+LLJ+qb8SS2uObMF0mqw9bWVFhyzPt/NT6ec0vibue5oepL90DUmVt+3gQVausnGIt66KEDX9IPto9oP6vkirfCqFuNK22+9QNr+eNe1hOe4nefDPZA7Pa0hx7wtbPrPbbbOggzi1yo1+HM3cnbz+jiPUz0+ki7+952299jhMRRVq/otWzuLxvPyU2j5RdV5+n7CBqd4dXELXA57Ec7EcZC7Pt3aIeB7PZj8Iel7Ko19nUMx1wv2l16vYTde67bNka7w5OsyoXAADKCxmpBcD6DVfqxkS3VZVx1p8jw+n0hWi2mWsmIyGzdh5NNoHOkt1WZd1wWdkDr38gh62FVDcAM0R2JmQimHVRN0RWVssu57PKhJmy6Hp1s6CuonPfzmTIsjdlqW80RN2UVCZk1uobG33DoAZTyrrQ6+dkwKj5dTyrvtMp62p1Y7NImvVNsFqWTDOegpfLWT9VNE6mkPleK3PJmp+SXM7m+wcTyvM1Na1e3kzKU1Hf+fxzGc4vgfmObPaLIM6+Z72wt8UbaltYy2Nlaav56zeTl8EpF79M0KD3c8TOUvWvJ+mz2hTfY0+29dNsu0z328ic5dTDSdtP108nSyplOYpZP7Oo16ZeBe7vTv3LYr8NdZzIlUzXL6ZQ9cytANsvVq+TMg9jx6vk/dLhbD/1fkHOY/H6En0/iirzbR/5OBh5P4p6XHJkWa8zrWfmc1piBqk6zqtlvFEto17+lON85HIBAKD8kJEKRDRhcZN1Y/KmukkIc0Gb6XROO1/ScL3cdfe9qX8ZZJDYGQle2SteTPaFTFE3OvrmYr08pS+gYwt5KCmIqgM2+mZJXSyrC+pn9aOB7hU6/IG89tw2q/fwyqocZyDoLA39f4Y9qjtlaWV2dK6XB550gqiaWq/X7eVMVrT1Uzcg+gYrTt1sfdguT92/3lqWoEchM93u9vrZN0tPbYrf7GrW/Dp2W8PJGSxOpktieTrLG1Seir6RUjeCfvNLu13NtvfPIspebN/TN6z3q20fu9lV1HZ/1mx3qTwvcR/8cJd0q/8qx59nv06gboL1zan6zi15DKLqG1Z7P/bP9vLPajOCMrWi1s+Q+21UExYvt4MVXttP189X1bJueM4K8LiXo6j1M4t6nen+nu1+G/Y4kSvhzmNKgepZggJsPyfjT7p3eQZRdWArNYha+PNYTvajqEJs+6jHwaj7UdTjUkyW9TqzembOU4oOuFrXgNYrTS2vWsafdg6o4SqZPC2xvkQtFwAAyhGBVCAKdfPS3KguFru3Bga1EoSYzr7ITyPwYrpapk5R3zG4Wz7KZBmdi3R1ETzY4X1DlmimTLHulvRjzh6BXv0Xy+rLMXODk2mHC05ZWjcGaYJYiTdMxVi/QzJg3dFeLs0rZ8qElEi5uhkJ3JYZbndVFxut6Ihuly19OSY/Ih4vz/SZlQnl6ZrfTwPml3a7Oje3eeyAzbnB9v2x4/CnPjeEn5rtlxRgVewfUNS6hW0GJLQ0j+VbTKA1Tf2Ybj1261XGWdbPkPttNDNloT7G6sBRuqytwx8kLmux62fkep35cT7b/TbscSI3Qp7HtILUsyQF2H6xeZjto7M77XOQR3ZgTIHPY7naj6JKKiN/0Y+DkfajqMclt6zqdWb1zDlP6acm/LJWD+/abQfek34wjFYuAACUJwKpQATTr9A3HuqCOOBGIVnm08Wzyt7ccK88cL/HX+B3OAGVDLMXnBuQNBfQCUzvscVg3+BkmqHklOVu2e2zXk4GYsINU5HWb+em9fJ894DVltiN1o3vLbJ88cwQ7ddltt1j65wmi8w7g8Vdnt43S17lGX1+iext778tsxff98K33+cEGqfIVPcGm+D8gPJcZvtWNpzMOL9ydrLafOuHa/09tkM29TPcfhuR84OQO2svA8Wun9HrdabH+eLut9GFPI8pBalnSfK//ZxytreP9Vi6yRxUG8c/OFbg81ix64uz7ffs8q7jMZGPg9H2o6jHJbfs6nVm9cz5ETGw/FJELBcAAMoUgVQgrBktVjtPg52vhbsgDjWdc9EbIgsnmbmByjR7IeMbEMO5qdNZnp6BXtdfuuyE8Fw3OBmVjVOW/h2MODcP7huU4q3fIdm56Ql5YMN6eb5TZ36YzkCsgFUGj15muN2Db5hMBktKOUcrz+jzczPbPs28s2fWL90Nb5pHLHd+pB9brZKqWLJOdY47mEov8GY1MGMr6NgTtX6G3W8jyjgjLVFx62cW9Trj43wx99sshDyPFayeJSjE9otvi8rL77Xa9tRNLTyvH7OuvFwWzrA/k6zQ57Hi1pcQ2z7ycTDafhT1uBSXZb3OqJ5lOA/PdYlYLgAAlCkCqUAo1bLo8inqYjFsO4chp0sTqMlUuKyP6BfpOW8fNJC5YM80syOwLNOve+HXzzh8yG4zTd/kbnhOugd1wGq5d0/jLjnL9oll7CTdGJkbsqjl6S/4Riz+mej7RSBTX9Ld8NqZ5T43pZ8O2I89OvVmxiKrXbzQP7xEFHSz6gRW/AKtEwK3rxG6fobcb0tOPutn9Hqd8f6er/3W7ziRI+GPZ8WoZwXYfrFH9KtE97pvdVi36QO1D2612mVuuDx9m+lFO4+lyGQ/iirz7458HMzb+S9IdvU6/H7kx1zLKgllV7RyAQCgOAikAiE4nQWEbecw7HSxrLLI2QuugEpGCxr+5ubwgO5wQN2gTZnuewM3YUZ1iEfSM+QERjPklKV/Job3uhd+/WbKct3upHmVQHdwtC0509FbuO2e2mGExerJ2bSbl3Rj5NyAhi1Pm9/y6x59TQcl6YIR5mYtm/0iiFNf/Oh2Ca2eh/0e4z28U/YMOvUm6g8vUQXfrKYLtLofF04t4yzrZ8j9NjInkN24SKbbY1Kp+u293xapfmZRrzPd37Pdb8MeJ3Il3PFMKVQ9cyvA9ouvl93cTzx79AN5I01WanHO01nuR1E5ZZTBd0c9Dkbej7I6LilZ1uvM6plpmkamyBS/DGdXh1lvuM5/2R1fAAAoPwRSgYyZzgJCt3MYfjr7oldfc0YNvjgBlSnS6HrcdsKMmTLd60o9xA1IjOmhXN/A3XjzkoTvnaBvsFfqm5E1vo8cZq2hSRapG0CHPU+1HOa1I90Nk8W5CU5u063A62d18qDbnbz5FlmefGOr5rfcZIGkl/l2tx9B1zd2a+Smxfp9NU+zXjetvt6+WVKSb4yilueRI/YNfcOylsSynLFElt+8xgQn1XQZBCN0UCD2HWq5p7vqQbacfc8pl/ii6iBA/Aa7u6PdJzPIaSe1SqZG/OElsoyzA6vksitc66br183248Ld3fZ2Sj725KZ+Khnut5GZQLbVuc7Nuq656oauK2ob3qXqd3NSMwSlUD/DT5f5/h51v416nMiNkOcxt3zXMw/53H6xx6k7n03pVOpwuqzUAp/HcrkfhRX8o2my8MfByNcTEY9LKSLV6/DXBQ3L7ON8jFNX9LWsWv/kjhgjlwsAAGWqYuas2afNcNFMnFgvvb095tXww/oND1aWQqOk6R3XW/jpqmWRuuG4rHK3PH+/X7AmmD1fOyjkpttKSwno6t5/l02xHxcMkzlnpvOj23DTPT3n9sLZKR/zMkni+gWXpVNO6crFT67Xz2+bxaj56Z6Q080vzHafvvLe2I2t22D3Nuk8om74UuptNuWpblLvNtlIyQbV9+2u8phfMp/v0D1Ep+sJOWNm/WS3dKubzgbPOjag1u1ZtW7++0nCNlDbLLhjuBzJZD/2rdN2z98fTdPL7r0dsqufYfbbLE1YIjel6Ylc1+8tm5LrSzHrZ/R6ndn+nt1xMPxxIncyWz+3AtazmHxvv/TbR3Pe99z3C3oey8V+FI1dT+3jWOB3RzoOZrcfRTsuObKr12H2I7/93eZVvlmWCwAAZYiMVCATsV63t4a7+I80XW4egTr86rNW79pxA9Ld+VzC41gO57Gs0BmwH7ab9hHd87FvCJ7Xjx/mMMgYd0hee3K9vJmwbmqe+iZNzTPxIj24LNNmUhR4/Q6/qjvxec5aNyt5xRhU8+/uWB8YRNXCbPedm+6Vn3Zss7JvrHlY66Xb3tspVTnsaMr2gTxr1i3GWa8n2833Jc8vmf4OtbyuwtHb/c1tucpysddvcPdr8qyqY7oc47NSw1b5PKHqWPr95PAu3QmTpuqk2maFktF+rOq0V/346f32zXFs+3kUaHb1M8x+m6XDr8hT9ydvP0XXFbWcT3kGK4pZP6PX68z29+yOg+GPE7kT5nhmK2A9i8n39gvO+HOyUj0fHS/oeSwX+1EUTtZlht8d6TiY5fVEpOOSI7t6Hf66QJ3D3Aupt6GrfBJlWS4AAJQhMlILgPUrf/Yv9OqC1efXdj9RpwOKy2QV5SzT8wxjMo8kbIZ3VpysoAwzsoCscZwAAADAmYeMVCDIDLtzmdC9bkedDigyqz1M9T/tmUWg29nTj28OFqqDKSPWPupu+YiNhgLgOAEAAIAzEYFUIK3qiL1uR50OKACdMXn3LbI8oTMlJaFDid3SSd0N5uo0RHeoojvgaZABSe6MI3fUsWVlakcuTtt7BLWQMxwnAAAAgBQ82l8ArF/5itpAPg3ro6SZR8+tJuU88Xh4ZpzH6c1LI6/7fbqOY3jEGrnEcQIAAABIQSC1AFg/AKWnWqavXC6NDVXxQInuUGL3Vnnj1Xx0EjYcJQZSdccfnc+1y848F57OQF14+eXS4Gw4thvyhuMEAAAA4EYgtQBYPwAAAAAAAKC80UYqAAAAAAAAAAQgkAoAAAAAAAAAAQikAgAAAAAAAEAAAqkAAAAAAAAAEIBAKgAAAAAAAAAEIJAKAAAAAAAAAAEIpAIAAAAAAABAAAKpADCc1S2QR9ZdLU3mJYDyV79ilTyytsG8AgAAAFAoBFIB5F3Viofllmf+Va5pNCNQGI1XyyP3zZVaPVxnjSmis2XVyvHS/nfjZFWlGTXM1F86Tq3feHnk0rPNmHLhbBu97OeYccUWsb5UjpZH1HrodUn4Wzla6s1HhovaOUuknWAqAAAAUFAVM2fNPm2Gi2bixHrp7e0xr4Yf1g/FogOYLUv75OUbHpY9Zpy/hXLNMzfLReaVrx1PyhOPvWFeZKJevrPuAZlX0y9d9/xY3tpvRiONKlm1bqUsk+1yx51vS6S9S2eiWkHUfdJ2w0uy1YxOpINVY2XZGDV47ITcsem4Pa9LzpX2xXZArevVI/LQx9agco7c/nfnyjzzKhPx6Z15nZKOnx+VjYPW28OKDqQ+OHuE9L0/JLe986UZWwZ08PH7o+yAu3whbf/4uU99KaSI9SVhXVzc9btkhN3/Eums1AeXjpW+FzfJbZsHzFgAAAAA+URGKjBs1cslc2tE+g9KRjGIxkuDg6jKUN8BM5SpC2WsWgzpf1c+JohaIFWyao0Oog5Jxz1+QdQkx770CDKdkk+OmkEMX4NfyLvH7MG+978ogSBqFgaPy23/eERaYn+fS5d5q6RF2P96Nm+Uth0itUuvklVFzzgHAAAAzgwEUoFhywQwDx2UjHKVOh+WJ27477G/9hf7rdG/3xAfp//+ZXPInK6682Ws/j/T5UDW6ldcJcvUtu978WXZmNPg9RfyUEKQSv8NSYcVhNOZg8nv+WfToZR8KRs32dvrtne+MONQDrY+9op0qSPssjULhl3TBQAAAEApIpAKDFcmw/T374V5DD+ustZKI5WhT+zXkV1gB1LDZ7KeycbJBbr4I2mQFUtVifdvl8cDH/f9Ug6aTMQER09JnxkEkC+52P+6ZfOLQyI1c2VFmDao6xbI7etapf2ZVnlkRZUZCQAAACAIbaQWAOs3fNhtjkq8rc+6hXLNmma5qMZEvfq75OX1D8sejyzAqsYfy199b56dJWrpl9+/uEXe2fxG2kzNKjWPS5rVPObU2JmdytCO5+WXj7UnTaeWZZ1rWdJSy5m23VSnvdSgzznqZfLa/ynfSlrG97a0y+ClusxqrMzWX3SaN7NU33i13Pq9SWLFen0ktxtotyco0nHPRjtLs65BVjXPk/lzxsbaU+zb8Yo8/lh36iO2Xp/t3ydb1r8kW9NlfIaZTncMFbBOMWo5W9RyelLf0756UsbtJjZ9d7y01qvlcrfrGWtnMpP2MjNtyzL5c2ereZ8rzfUj4mXTc0Ie/1Wadiwrz5FV80bLfPc0x76QLf+uljHnba6q5bt0lFq+c6RWt2FpOaWW8bg83vWF9HjML6iN1KbvjlNlPUKk53O541fqO6xxdvmnawszXna5aL/U1S6nh+D2XcOXSzSJ9eUtOUdW/OVomTdGlZ927JR07fhclVlQW7SmXd+gNlKdOu/7uQzqeYT6mf3+pzjtIac7LiRpWtsqrXPMC6sJEHNcBAAAAJAWGalACHaWZp8cVTecVk/0992cGLjUgyk3ozrA+a/SstodRNVq5KKlN0vLuhbxzgfSwcmHpUXNY54rQKmNnXOdtDzzsHzH3S6efoQ+oyCqEtRuqvM4/o53goOodS3y1888IFd5LONV9/1YLtXttEqX/C5HQdSmtavkwdUZBhx96KBq+31LZJkrwKnp4eQAiu9nayZJ633+2VxRpstmnRxN35qk/h2Sd98JDqJqvcdOWf/3D7kCUoNfitWwg3qv1xqRY+POkdtXjrWCigllUz9KHvTpXd3qEf/758qy5GnGnCOt3x+f457yzfLNdgcLNTXv+nPlwe+Pk9tDzk8vf3IQVdvadcLKPpw3J02v8pXnyHy9HD3Fbr809+WSiQvmjVPffW48iKqp4XmLx0r7d+1OmYotav3Myf63f6+8qyeY801psscAAAAAyBMyUguA9RsuTO/z8ry0/9v5VmB0aMeT8sstb8iAFTytl8mNIns63WXhZHaa7NN3nM8qdQvlO2tulnk1djukidmaTk/3elhNu+H/yDvqe+3QmJrPiu/Lt5bOk7H9alnuTM5M1cx8fd8P0PhjuUWv34t3BbSJ6qyfoub18vr2WDaulYGrg8f6RdTlSGayLa0Mqg0vy8ZOUyKNC+TW1el7qHd6uO7asU/mzVHf0a8+u/5d2brfWaoqqa8bkB53INw1v64Xu2Tz5ni2qpUVqwO6XtlcUaeLaZDbn1ki8/rD9tpvevuvSddTfxLTQ3hiRqTJvpNMejrPIFPPkpwJqT7/6uey0WQU1qvleNCvp/JYL+anpOv947L5nXggUk93q3qv1mqjNUTv7mk4maVy7AtpS8gmPFvNb5TcOkctS09q5qZfRmr8+7zLMygr1X4/d+vnxW/Z3aKWSzSJ9UVnK2/pOm7mqbNiz5VWvSxK+mzeAmSkZlM/zbTR9z9bSsZ9EP1o/5q51jmGXv8BAACAzJGRCmTMdN4k8+WvVtfK7zfcJf/ymCswqm53E4OoIpPXmsfj7/mx/EI/wu++wd3/hry1/nkZUoNjaxNz0apW/E87iKoDkDeoaWNBVE3NZ/PD8i/3PGkFLj1vf7Ps4Kmq1s6pGupLfwtvr5+y40l54s54EFUb6FTLuKHLWr9cdTRVb9LgujZsjAVRtZ7Ot+W2DfvU0CT5dkA7gTqIqgMHLXfqx+vdS5UURNVBye/pYKg9v4dcwVCtp/MlM8+xMv9Sd3Zp1OlywbSt2j8UMpPUp3fwY149ieeADsT949FYEFXr+fhzaTMzqxnrzt47W1bpAJ3S9epRecgVpNL0dLe9qjtIGiHzv5nbbEgdvEt8JFuVh57fJt0pU2bBwqAgqhbLSp1kr2eic+Tb+vCgyuyt5CBckeSiXMKwgru/coKo2pey9Z2jcsf7djand7kVSi7qZ672v7FywQVmMMj+t+WhO9uk5YY2gqgAAABACARSgUw5wcmaGhnaYAc301so37TaoJsnV933r3LLMx5/911nf2eChXLpUh0N65KX02Vx7n/Dsy1Wi+ngKVpHU/VySSaP49e1yLf0+ulg72P+89HLUciOpmpqA4KTO17JLHBQd7HMt4KS22WzXzl0/k6Vkkjt3ItVqRlRpyuWjz+XFh3UTAqMWb24/yofPbifkg6dzWheuTmPOSdwHms/dkI2+2UdfvyFXZ715+SkPHt+94UV2Kydfa7cfqn6zkp7fFgJGZzpMgsHv5B3dadD9aNlVfK8LjlHHUF08DIxQFcMuSqXcE7Ju7/zDs46yyNjzi7efpRt/czR/tfT59VrFQAAAIBcI5AKZMrpff7FuzLrNMn0mh9amPZJfUz+lg69RO1x32TeBrSjWnXpfLs8tr/tG+zNNLM1U06wYN7qq6UpoX3YBrndepReLXZf+iBpX59X6peHC0zbpjVz5cFn7N6tU/+WWEGuBFGng7dxps3JMaPkwb8bL+2ef+fmtjwHj8ttPz8hXcdGyLzZuu1PM5+Vug3QzAKIVlMF5tFzHQxMnyH8pWzc4ZW16GQ7fiFb8pDpGVoOyiUvxoyQiWaw4IpRPwEAAAAUDYFUIENOcPL372QWFHSCiLr90yduSP+X0A6pE7CNnMVZL+Oq9f92p1ihZdgsgN3xVrryyDCzNYzOl6Rthx6wO2yKBSbvM4HJHa/4Z4ECYQwel4d0VuDPh6Tt/S+k69gp6dMdHJkA4iPf9cgudOiOl3SbmcdOqGlP2UG2oE6RPj4hHcd0tueoeIdBJdPJlEs25YK8cZo9AQAAAJBfBFKBjEQPTia3f5p/JqM0akZr1oFcR2aZreFZra7aj/TG6E6dXpE7HktsjzQrnwzZ89jxitWOYNo/d4dQUafzUjM2ZKbdUflE994deroSdvSUXZ49+hHoI+n/MuyYJ5RB3R7n5/LQpqNym57Hzz+XLh3wrD9XbvXpib1W9y5v2kTVbXlabb+qz99+if2+ty/lrR7dtME58m3zufpvmk6KuvLRxEKWIpRLzjnZoJn2bp8Pxa6fCYbkk0hPIQAAAADIFIFUICPhg4IDfXaob+zcBeLXamdVY33qe58ctDugWvp9mWyPSVW30Pc7YxmlEYXLvK2RsZ6dm9THO6IK6mhK9x69zs4sfWRFQPumjVdL6xzdM3Wb3JYQlEzt1Clr+/fKuzooOWeerHI3IxAk6nSexsj5ob5jQA4e0v+Hna6EpWs/NE/qL0mTVamW5yHrMXwTMPWS1LHU1l99brWROW/xuLTr0PPOcftzc0ar+Z8t36m321ctlU6msi6XSEbIBePMYIJ4J08ZtR+rlintjwuDX6qjnuLzufpLz5VlXkmfRaifqarkO3P1Uf+YHMz4h76G+HF3bYMZBwAAACAIgVQgE1F6we98R36v/6+5TlrWtchkV2Crqm6hfGftw9Ky+gG5NLmX+f1vy++tO/p5ctW6H6vpXKELNTxZTXfLfTfLX60IyHSd0yzfaYx/xp6nWg7z2lvmmbeDfdZCykWr9TJag5aqxha5Zt0DcpXV0VZwZmtT81yZp4PUSu3Sq9IGH+3HV8fKBTnv7d7LgGz8N7t3/WX3rZLbVzRIfcKyVUnTiqvlkWeujj+KbYk6nVu3/MZqwkB9x5oFSe3Bqukb/dd/63v2vOcXpIwKId5+6LLve7XFebY0XXquPPJ356YpzxAqR8uti8+VB/9unP2YemVidmV95Tlyu35sX+nz6hxLSQ3sfSEPmZ7bl/2lDpL6+UI2W00BnCPfUeupH+svhU6mLDkol6jmLR4vj+jtbl7rJg9WrVT7hhXYDGo/9pR8ogOdco40J31HU0I9in+u1d08gVrPVd81nYZ5KnD99OJ0cLfjdxk3AVG/Yl78uJuTH30AAACAM0PFzFmzT5vhopk4sV56e0viVjEvWL9hoPHHcsvqeVZHUwntmQYx0/kZ2vGk/PKxN1KDs3Ut8teePfrbhnY8r6bz69G/Xr6z7oHYTXIy3WZrvLOs9J+N0T3z35k8v4VyzTMm6zRZf5e8vL1Wrloq0nXPj+WtNEHZprWtVpapbUg67tkoG/0+X7dAHrlvrv04r4++/n3y7r+9Kxs7E5e2fsUqeXDpWOl7cVNmvfYbznS+1Pw61r+UssxRp4tJu677pO2Gl3yCJg1yu+7Mqn+73BHUdEBOnG2CWqek4+fJvY+7BX/O6eW+7/0huS0pOBbrAd/PsS+k498/TzP/zNVfMlpWzBkl89I1O5mUdaqlW34ttg76MXDfHtnPkdtjnRN9IW3/+HlB2kcNWnYtarlEE68vfcdGiHcToEF1zuZbd5K3wyXnSrsJBifT5bJlzFhprfeeZyHrZzLnWNO1oU0eyrCN6OTjU9jjIgAAAHCmIiMVyEDk3uc7H5Yn7nlSft9vZ286dCD05Xv+u/yLVxBV298u/3LDXfLyjn7TIqjR36Vulu9S0/kFUbUeeevOu6RLTes2pIObap7xIKpmmiwI4pmJ+4b8Qq1bwnzUev5eLV/7nQ+bJhCCM1u3btkuXeYr+l582T+wqO3fK1t2JJRIitqaSbJs9Uq5PTnTN6KezRul5Z5XpEPN126sweg37bLe6R0MjTpdzP635TY1fZf6vJsOFHdseDdNcK1bNr+opqmZK7cGNZVQRnreOWq1w9nRY9qkdBw7JV3vfy53bMpdkKrnY7tDpTte1T3UJ2ZX9umA2KtDkYKFPe+o5bceA9ftpfq1I/qF/Mb54lLqZErJV7mkpb73cWueX6h5mHFKX88JacsgiKrpunPH+2p689qil3dfUubsx6oeJc1Hf67t50es4HJvmkzbQtbPRA2yQgdE+7eH6mivZ7M6lySeIgAAAABkgIzUAmD9gFyoklXrVsoySZdpWSVNa1daGa5ndoaVKauagAxflKSm7473zXwE3OyM/iz288arpX31JDJSAQAAgAyRkQqgPJh2APu2702T8TYgvX3pM1bPDAOycf126bPaaU3XFitKTuVoadYNdB4rnU6mUJr04/n2j0YBmfxp2O1OD8m77xBEBQAAADJBIBVAWdEdUt3eWBXvDMaor2uQVWuddv/2yZYzPbtKNw2wYZ/0ySRpXUcwtRzoNkgf+f4oq13crh05fkQew0qsjdMdr0TPJK1bILda39FF1joAAACQIR7tLwDWD8iNxI6pfAR14nSm0Z1WrRkrW1SZbKVMSk9lPHjq6Ov5XG7z7YwKsAOpt9Z2yW2PdZsxYVSp6efLrUsnSa06Xrbd6ddxHQAAAIBkBFILgPUDcqe+cYGs+N4kqakZmxh86rd763+rc4BMPpQPd0/xumOiHZ/LQx9795oP5EaD3P7MEqnZ8Yo8/lg3x0sAAAAgBAKpBcD6AQAAAAAAAOWNNlIBAAAAAAAAIACBVAAAAAAAAAAIQCAVAAAAAAAAAAIQSAUAAAAAAACAAARSAQAAAAAAACAAgVQAAAAAAAAACEAgFQAAAAAAAAACEEgFAGXCjCVy080tMt28BgAAAAAAcKuYOWv2aTNcNBMn1ktvb495NfywfmeKmbL87uulYXCb/PTJV+SwGRss6nTIlQmLb5EbG6tE1DZ4/rlXZGfKRjDbSA0Ndq6Xp149ZI2NTSe75fn722WnNRbD1oSZsuiKJpncUCWVZtRg9zbZson9tpic/bC741559kMzMpcibPfpK2+R69TnB7ufk6c2fWDGloe8l2ehsd8WSdTzZrXaf5ZL45FnY9OUH64HkQvVsujmNXJZZYlfY85okbuWTTEv4nJxDsnt+ahMyhP5x3UBcoCMVCBHJixuUjcMA/Lmc+EOwlGng32Bddfd2WWRTl95r3WRpgMe+sYlNYiqTDgvfqIdiN/YjR+vbwaVwQE5Yg/F6O+96271d/MSmWDGJdAXnvr9LJcfBTJhidy0+nq5zHXRpVU2XC43kslcRNUydYreDwdk4FN7TE5F2e5qmkb1ea2y8jzv/b9k5bk8C439tnginDdt+rNqezWukeUz7DHlppSuB+3rJHM94vt3iywqrwPVGeI8qdI7ke++UhomVJl9OsFu2Z2DwGduz0flUZ7IM64LkCMEUoFcUAflZp1h0b1VXgt11RxxOijmAiuLCyId7LyuQX2FzpbZ9IH/jct5zsnWfWFYbV+QKYO7dyZNG39PKqtkvBmMq5ZFl5tf77mgKwNqe11/uVUHrID7/ffKA+bvpx27pXv3a2Q2FI1zY7RbPsr5MTTidj+8U/YM6oEB9ZnkY0Opy2d5Fhr7bVGFPm/G7dy0Xt5U+1DDsjK8qS2x68FY4DqtARko+/19GHJ+jBj8tKTPI4dffSJ2bH3gfnvfzc21bY7PR2VSnsgnrguQOwRSgRyYfoU+KO+W50M+whl1OmjOBVa0CyKdpRELogY8Phj7tT3hwtDMX3Fn29js9wbV571MWLxcLqscUO+rF1zQlb4J02Wy3tbqois54H74w3Z5tmwfPx0G8nljFHm7H5LXntQX5k+UX90YTjea7LdFFf686ab2oW271f9TpHFxtT2qTJTW9aATuNaPMscDBql/POZciiZMm2Idj7s/Kqd7hOyuzRPk+HxUnuWJnOK6ADlEIBXI1owWE5AL+StW1OlgmzHNanst0gWRk/kxuE22hDhpemfQeDy+ZC7+BnfvlkGpkqqER+ZmykI178HuAdEfGjwyHJ6fHd64+C5hJustH/vRGbnd81iehcZ+WxoyPm8m+/A1K7Otcsr0cM1jqPP7TcV6XL3UrgdjQYNdXGf6KWZ9CWBnE5dZMyvZXJsny/H5qCzLEznFdQFyic6mCoD1G86q7YbLJWzHAFGny5TprMHV/otuRLvz9Vdk53m6UfgqeXPDEymPj+kszRsbJf7ehJmy/Pomaah0Mkt2y/PPtXu2IzpB3Qg0X65OUM4M9WOtnVvljVfTPDKvZD6dWpabXcuSls6+8M+wsB/pH/AsAy+en9cX36svl8ru5+SB5AwStU664f3uzm1S2Xi5DLoaybfLeECe7xC5Tn/GpwH9KOU5YcYSWaimiZfRgNruu+3tnmY9o04XtZ5Fny5auYSXaV3zrmeR96MJqlyuSCwX/dk3t70mr32YHPA3x5BBVf9eF6vRfN3ek/V59d2vqXVIGZdtAaWr8xazTCkdObiW1ZpOrefiRdLYaF/QavoRqy1J2QFx/vXlyDRd1v4dUYSrLxG3u9nfUwR2GJNtuYRdP0f08oyicOeV7PZbLdJxt2Drl4P6ogL19YMAABpOSURBVJZtaoQONqKUS+jzpoeUsg2kyt50cKVl8sRJ7pjtU0rXg2q76WNTlHKIWq8j7w+hzn9x2ex/hawv4a+zTL2InU9D7u9hyzPy+T1R+H22UOejLMszzXKmXrdmVlZBZR7t/B5VmPXLXjb7LdcFbqaulcl1wXBDRiqQjRmL1IlSpHtbyIvfqNNlQp+Y716jbmBcF0+KbkT7utUtsnyqvuH3bg8r9mutek+fBO5arS4w3Scf/YUp0+mT1L1yo7pYjx9MtSppaLxebvTrbCnsdDrLM/BEaKRrm0mVT6P1c3nIdsjUSc+rjSavXzXtRxpVOe76VPTT+5VVzqOJJhu18zURazt4ZeVELE91Qrtx2eVJFwuqDljb/RZZPsPn8cio06WtZ2o6v3oWuX5GrWcRhKlrHqLsR/qC5KbVqeUilVPksmVr5KaUx1udR2SnyXLTaL5FfX7yFfq7EsdddsVMezgbgdkhziN9SfufyYqypnO2v+siT6tsuF6avR7hDagvC62OKHK0H0Xc7t4dbehDRkD7qNmUS9T9IXJ5Rlew80pW+23040vh1i+b+qJvktWNnTkuJE5zudzom40XvVwsIc6bXg4P6OZxqqTqPPt1IPM0SFGU4PWgcy2yZ1f44GC0el2o819c1OW0FKq+RLrOcp1PQ+7vkcoz6vk9iXt7BCro+Sh6eaZfTq/r3UPy0W5z7PI9QFabtjoH5M3Xk4+HWR53wwq9ftkr3HmT64KSuy4YRshILQDWb7hSBxL9S3Zg1lGyqNNlwny3Gor9kmhmYP1ypA96+oXnvM2vWjorYluVdYC0fsVSJ/jD1gfVAXeGyM6EX7Kd+ZlfoXY5n1UmzFQXCergrGaY+mty1Okc0ctQn9DC/lquy2Xy7qRMBVWedy0Tj18w3b9EvyZVrmntDJ34+NQMlKjl4sxTTdfxrHrPWc5qtd0Xme3ulYEbdbp4PdN16fnnMq1n8enC1c9s60s2wta1CPuRVZf0haouF/cvx2o7LF6k6qt9EZuwHfQFk85k0MNqmp/qaVzfkzJOvc4kAywde99Jkx3iLFPyvMwyWG0GqwvJSuuX+NfUttdloC/k9AW8GkxZxmzrWTb1Jex2dzHrG1gfsy6XsOsXtTyzEWF/KPj2y2Z+BVy/yPXFOc7rYTVPdax/Qy2PPUs1nZO9ktP9yJ5n5udNH+aYIiEyBfWNoQ4IJB5L8y1MfXOLOl1mnA41/fhnYEap11qE6Uy91hK3WZrzX0zU5YzLf31x9j9738v4Osup+wn7u5PBlmZ/j1iekc/vCUx9TvsZh3N8UVT9z/v5KGp5Rl1Osx189zHf9535RTnuRlHg7WCJst/molzMd2S0LtnMr4Dr59SjsrguGH7ISAUimrC4yTqQvKlOOvEDTLCo02Vi+kp9cFPnO3XAfGpT/GSo6Ua0n+rQnTeo9z0zpZwMtynqxKkvptTJXV+AxT54KOVi1J6fOmirC7JndSq/+0sPfyCvPbctKSPTFnW6GCeLIHQD9E5P/2F6ALU7jkm5EFLl6d1BQ+qv9pXjz1PLbGfC2m2gOZ9JXP6sy0Wtlz4RxqmTot7u96+3vjP1JsQIOZ1Tz6wTszrB+tUz7/VTo0PWz6zLJRuh61rY/UhdlKiLIE1feCQ2fq+2w6vt8tNOdYEkVTJ5mmv9TPaIdXHrTPPpgFUOCeMM/yyTzMV+YfdNWLGXKXleTsamlRWgbhoeeFLfvDhloMrjdXv7Jcukntnrm+P9SIt8jHHWN005GdmVS9TjrhKyPLNTuPNKghDbL7v5FW79otYXu3NDNaCPC7oDNLU88Vmq6dQx5qkNz1k30O5Fya5cwp43c2fnJrsH8cRjaX6V4vWgvt6x62YU4eu1rUDnv5ioyxlXsPoS8jrLacsxcX+337PWy3N/j16eUc/vCcxxN5PrjUKfj6KVZ2bLaUleTnM9Zl3/p6iWRZer7aSOycn9NGR33A0v8vplheuCM/O6YPghkApEMcF0VtQd8vHwqNNlwgTqrBOzOmCn49lbrnOCUQfjwQ77oJreTJlinX2nyHWrdUP9Hn/612vrs25Rp3MxF3ThGws3J7ecXhAkcS4krWDgIRkwZzCnR95OfdHkebGZTbmY+VReLs0rZ8qElGcq1EnRc4UjTOeqZzpYl07C9olcP3NQX7KRyc2DW8j9yL6RVt+vLoD8fr09vMu+oXBfkDsXTwmPgzr7hWuc87n0PWRnwtyUp/kRYrr1+FfqvOwbNLVc+mIyObDiklDGGdaz1G2To/oSdrvHZP5jTaRyibp+kcszSwU7ryTJePtlOb8Crl/U+qKbk7Haf1M3yb5VUt0AJR7rc7QdzgRq3yq560GLud7RAZKEHvrjf771KHS9Ngp0/ouJupwFFe36LL6/p9lOint/j16e0c/vCZzjbtD1RhHOR1HKM9Pl1FLuRw7vlD1WQZ+X8pizE8RKbc6jwMfdbNYvG1wXJOG6oFwRSAUicIJizweceJJFnS4Tzq+t6drls4MqPr84OyeYNBdgCUzPnKFFnc7FvqALzvhKYU5uubow85R0IXnkiH7cosm6WHF65I1tK/fFZpblsnPTenm+e8BqC+dG6wR3iyxfrC7azft+wk4XtZ5Frp85qC/ZcOpaxm3MhdyP7Iug8G3YOdO5y8prv7A/l4M2xpzen31/hHCyn5L3S2e8XgbvdfTaHzKvL4nT5aq+hN7uMZn+WBOtXKKuX+TyzFahzitJMt5+2c6vYOsXsb44N3Rhe23P0XY4E5Ti9aDFbMNI1zth67WjQOe/mKjLWWDhr8/c+7s1IoXX/h65PCOf3xPZx93g643Cn4+ilWfmy+lVLk4AvUrG2yMME8Tqfi61zhb4uJvd+mWB64JEkefHdUGx0UZqAbB+w0xQuzd+ok6XoeCe6J32UNSFu8ejdcHTJwpsT8lH1Oni0q9HWhPsNpLcvejnmr1+rjZYzXa3fvE1v/x5lXX25WLonlqnuXts1O3YPCvPBtW5DKeLWs+iTpezcokkfF0Ltx9l+P0pxw6njSL3dF7fZT7nqnuRBR6//OYVvAxeZVbc+hJ+u8eYcgqef7Ryibp+UcszW+H2h8Jvv2znV7j1i1Zfol535GY75EDG+1ORRCzfyNOFkM02DFuvHeGmy3A/TVNWUZezaDK+Pouyv2dRnoH1MXh5YvPX7UL6fsYWvN1yfT4q7HWIw2sfTPedhT7uFn472ILnmyg35ZL5umQ7v8Kt3xl6XVBCyEgFQlEHYp92bdKLOl0OxX5x9upx0/VrcwYHfbeo7aBEbz/FeVwt5C9pmvmVMH/MY73ucvxUXSh375Y3Y4/wmLL2eYQq63ZlDpu2bfSjexuek+5B3Yvicp+eF12iTpfCychL37NrirT1MwflEknYdYm+H/kzxw4l9ouy56/JHvuF87kcNGURlB0ywfmlOnlefuNjopZZ+m2TXX2JWIeVjLM3siyX3O8P0dfZX+HPK7bw6xJtfgVcv7ztR+nlvp6Fk2mGW3GU9vWg11MLmYlal/JRBz3OfzH5qfN5lel1VuC5O/o28irPyOf3BM5xN91nMpXj81HeyjP9ch4e0O3Ruo6j5lH6wc5n0wbYin3cjeO6ILwCrt8Zel1QSgikAiH4t2uTXtTpwvNpkN/qSc+0W+J5wA1/goldIEyZ7v8Y+IzqlPeiThfjXBBF4TT+nreTgEc5Hn5Fnt3ULq/FbgSdzyRuh+jlMlOW63a3zKsEhz+QZ7fphuKrpCqlebGo02l+43UPkdenObGHr59Z15dshA5Eht2PnDZ0p8iUGdaIFO4G4d9w6pDz2JD7kU1zQZUwzutzEaW7Kbd+pV5mbs6S5uXcoPm3r5WuzMLXs5zUlywC0LFyCpgwarlkt35R99uowu4Phd9+2c2vcOsXeT9yznmNi2S6PSaVOv4mzy8n2yFrpj22jMu3WhatvMVqp+0mdW7Lt9K+HjQ30Bm01ZwqfL22hZ0u4vkvJupyOtQ10M12u343Lc7XNWG06yzncdxw+3v08ox6fk/gdQ2SVuHOR9HK05HFcn64S7rVf3Z7tOr4ZF3nmr4SPBTnuMt1QTKuC5SSvS4oLQRSgYyladcmrajThbPzI7tnxcrGNeqicKZMn6AOZjpApW4sblp9vX3xpHgecKMEDswFgm5A/8abl6j5WWMtznxvXLZGFiZf0EWdLllDkyxSB2yHPa36PvO6KEw5pmtvKPaZ5IvNiOVidS6g2926+RZZnnwCU9MtN9kHyaJOZ7X5qjQsa0lcxhlL1E3JGrnOuupKXb/I9TNX9SWC4IvvJBH2I6dcGpbZ2yHGWTd97FA3OO5enb2yRzIdl50quewK18WVrifqRtR61KfbrhfJ8wrMinJuvpL2maj1LBf1JfR2j3F+/Z8ija4b8wkzdH03L4yo5RJ1/SKXZzYKeV5xCbX9splfAdcvcn1xOjzRnUPcrLe9+xijb5RvkbvU8bc5OZCUg+2QNbNOmQYcrSBRg33Mq9TXB65lzr3Svh6M30CHqJuOKPVaK9D5LybqchpWkMj6AlVf0gQGshH1Oivq/p5VeUY4v3vRZRk7XuhjjHs5jEKfjwp+HRLzqWkn9Tw1zSL7B5SONI+VF/i4y3WBD64LSve6oMTQRmoBsH7Dg/WrrLvtywxFnS4Kuy0U88JlsHubdB5RB0y/5YjaXpeZzs+gulnQPbSnrHbU6SzVpp0b8zJJ+rZbzLQZtOEUiVmvdMtg1wefNmYilovznb7UdLpHztxMpy6udZs85lWCwd3y/O4q33qWbf30k76+RBe2nSNnOcPuR37lYkudv9dy2ePcbT85+0mO2rby3Qb2cnw0zes4F7wM/vtD9HqWbX0Jvd1d/PapxPXLplyUSOuXRXlGFXF/KPj2izq/gq1flvXFtA3uc8pU89um5udxPsxyO2TH1NfBzM/ViftetP03U/a8wu8vUacLLWDbOTzrbpb1Ot/nv5ioy2lx9inzUtXlB1RdzofEeulBzTvxOiu7/T1SefrWF/vz3uf3ZD7nGM99uJDnoyJdhxjO+WhwUD8hlMHxLGDfze1xl+sCX1HnV7D1OxOvC0oPGalAJtQBp1lfCHVvDXcyiTpdRDs33Ss/7dhm/Xo8OKjb5twmz29QB/NNO6Uque1Ol8iZax+2m3ae7F81HfoA/PyGe9V8fQ6mUaezHJLXnlwvb5pfyB2D+qSvpk05WSRwetGcIlNdv6Tlil2OaX4dVNL+ghixXA6/+oQ1nS4T60dGw6oDHes9g6hatOk+kGfNNDHO559sN4+PeNezqPUzu/oSVfi2haLuR3a57FZlYkZounw61Q3W/ckXfV7L5TzG6X58J/zjRWmpbaB7HY5LXL5YvU5Y1uBl8N8fotez7OpL+O3udvjVZz3LKfGx1GzKRYm0flmUZ0QFP69YImy/iPMr3PplWV8OvyJP3W/3Gu4+xOgb5TfV9n/K62ZJy2o7ZMfK5FP/h3n8/fAudQw1w7muywnK4HrQqZtRRK3XhTn/xUXe/yzqOnKbqS/62vH1/ARRtfDXWdnt75HKU+3r4c/vyfQ5Rl3fuearr8vf3JaUDWcp5PmoSNchhp0lXCWVlQPinQmcpKDHXa4LfEWcX+HW78y7LihFZKQWAOtX/uxfsvx/9fETdbrcC5/dMWw5v8J15y8DAWFRPwEAipPxEukcbbJ08vXUiVL+14MAACBbZKQCQdRFvX5MZrDztXAXv1GnywMnuyOlnZQz0eFXpFM38pL3NtSQKeonAGCCE0TVP6pF+aHTaYcwXx05DYPrQQAAkD0CqUBa1bJINwavLuq3hGqDKep0Eeksy7tvkeWLk3rZcxp/1o+Tpekp8kyz8/VtMqgb1l/dUtzOqc4U1E8AQBpWe25OEDVKNqk+z5hM1vRN/ERVJteDAAAg73i0vwBYv/KVtqHmNKJOF5nzuLp5mSpEA9tnihktctPlA9L53Cuyk3LJL+onAMCTeRxfnSCidVRRLdMXL5LGRjuIqttoy4eyuR4EAAB5RyC1AFg/FIa6mVi5XBobdM+QxuCAdO/eKm+8emY1/oxSRP0EAKSasLhFFg68Js9+GD5jc/rKW6SxUv8o2s6PogAAoCAIpBYA6wcAAAAAAACUN9pIBQAAAAAAAIAABFIBAAAAAAAAIACBVGSNx/oBAAAAAAAw3BFIBQAAAAAAAIAABFIBAAAAAAAAIACBVAAAAAAAAAAIQCAVAAAAAAAAAAIQSAUAAAAAAACAABUzZ80+bYaLZuLE+mHd8/twXz+taW2rtM4xL2RI+vqPyZb1L8nW/WYUAAAAAAAAUMbISEUejJXamknSet/V0mTGAAAAAAAAAOWMQCpyYutjbdJyg/m75xXp6Ndjx8j5ddbbAAAAAAAAQFkjkIrc298tb20fMi8AAAAAAACA8kcgFXnR03fMDAEAAAAAAADlj0Aq8qK+dowZAgAAAAAAAMofgVTk0TE5SK/9AAAAAAAAGAYIpAIAAAAAAABAAAKpyKNJ0rpugTTRcz8AAAAAAADK3IgJ1dX3muGi+cY3xshnnw3fzomG+/p5ObbrkHxaVyvnX3KRXLl4vixvni+XfW2f/HLXCfMJAAAAAAAAoHyQkYq8qjX/AwAAAAAAAOWMQCryo3G+tM4ZK9K/T9ru2SQtN7TJbZsHzJsAAAAAAABAeSGQiryorx2j/h2SjvUvydb9BFABAAAAAABQ3gikIo+OycH9ZhAAAAAAAAAoYwRSkUdj5Hx67AcAAAAAAMAwQCAVAAAAAAAAAAIQSEVe9PQdM0MAAAAAAABA+SOQirywO5sCAAAAAAAAhgcCqci9ugZZsXSseQEAAAAAAACUPwKpyImmta3S/oz5u2+JzNMj+/fJW/TaDwAAAAAAgGGAQCryYEj6dmyXtvVvS48ZAwAAAAAAAJSzipmzZp82w0UzcWK99PYO35DbcF8/AAAAAAAAYLgjIxUAAAAAAAAAAhBIBQAAAAAAAIAABFIBAAAAAAAAIACB1AKgfVQAAAAAAACgvBFIBQAAAAAAAIAABFIBAAAAAAAAIACBVAAAAAAAAAAIQCAVAAAAAAAAAAIQSAUAAAAAAACAABUzZ80+bYaLZuLE+mHfs33T2lZpnWNeyJD09R+TLetfkq37zSgAAAAAAAAAJYuM1KIYK7U1k6T1vqulyYwBAAAAAAAAULrISC2GugZZtWaJLKsZko57NspGslIBAAAAAACAkkZGajHs75a3tg+ZFwAAAAAAAABKHYHUIunpO2aGAAAAAAAAAJQ6AqlFUl87xgwBAAAAAAAAKHUEUovqmBykfVQAAAAAAACg5BFIBQAAAAAAAIAABFKLapK0rlsgTXXmJQAAAAAAAICSVDFz1uzTZrhoJk6sl97eHvPqTFElTWuvkuY5Y6XWjOl7cZPctnnAvAIAAAAAAABQKshILTIniAoAAAAAAACgdJGRWiyNV0v76kki/fukbf27snU/magAAAAAAABAqSIjtUjqa8eof4ekY/1LBFEBAAAAAACAEkcgtaiOycH9ZhAAAAAAAABAySKQWlRj5Hx67AcAAAAAAABKHoFUAAAAAAAAAAhAILVIevqOmSEAAAAAAAAApY5AapHYnU0BAAAAAAAAKAcEUouhrkFWLB1rXgAAAAAAAAAodRUzZ80+bYaLZuLEeunt7TGvhqemta3SOse8cPRvlzvufFuG95oDAAAAAAAA5Y+M1KIYkr4d26VtPUFUAAAAAAAAoByQkQoAAAAAAAAAAchIBQAAAAAAAIAABFIBAAAAAAAAIACBVAAAAAAAAAAIUBKBVNpHBQAAAAAAAFDKyEgFAAAAAAAAgAAEUgEAAAAAAAAgAIFUAAAAAAAAAAhAIBUAAAAAAAAAAhBIBQAAAAAAAIAAFTNnzT5thouqaW2rtM4xL2RI+vqPyZb1L8nW/WYUAAAAAAAAABRJiWakjpXamknSet/V0mTGAAAAAAAAAECxlExGaoK6Blm1ZoksqxmSjns2ykayUgEAAAAAAAAUUWlmpO7vlre2D5kXAAAAAAAAAFBcJdvZVE/fMTMEAAAAAAAAAMVVsoHU+toxZggAAAAAAAAAiqtkA6m2Y3KQ9lEBAAAAAAAAFFmJB1IBAAAAAAAAoPhKPJA6SVrXLZCmOvMSAAAAAAAAAIqgYuas2afNcImpkqa1V0nznLFSa8b0vbhJbts8YF4BAAAAAAAAQGGU/KP9ThAVAAAAAAAAAIqldDNSG6+W9tWTRPr3Sdv6d2XrfjJRAQAAAAAAABRHyWak1teOUf8OScf6lwiiAgAAAAAAACiqEn+0/5gc3G8GAQAAAAAAAKBISjyQOkbOp8d+AAAAAAAAAEVW8p1NAQAAAAAAAECxlWwgtafvmBkCAAAAAAAAgOIq8c6mAAAAAAAAAKD4SjOQWtcgK5aONS8AAAAAAAAAoLgqZs6afdoMF1XT2lZpnWNeOPq3yx13vi095iUAAAAAAAAAFEOJPto/JH07tkvbeoKoAAAAAAAAAIqvZDJSAQAAAAAAAKBUlWxnUwAAAAAAAABQKgikAgAAAAAAAEAAAqkAAAAAAAAAEIBAKgAAAAAAAAAEIJAKAAAAAAAAAAEIpAIAAAAAAABAAAKpAAAAAAAAABCAQCoAAAAAAAAABCCQCgAAAAAAAAABCKQCAAAAAAAAQAACqQAAAAAAAAAQgEAqAAAAAAAAAAQgkAoAAAAAAAAAAQikAgAAAAAAAEAAAqkAAAAAAAAAEIBAKgAAAAAAAAAEIJAKAAAAAAAAAAEIpAIAAAAAAABAAAKpAAAAAAAAABCAQCoAAAAAAAAABCCQCgAAAAAAAAABCKQCAAAAAAAAQAACqQAAAAAAAAAQgEAqAAAAAAAAAAQgkAoAAAAAAAAAAQikAgAAAAAAAEAAAqkAAAAAAAAAEIBAKgAAAAAAAAAEIJAKAAAAAAAAAAEIpAIAAAAAAABAAAKpAAAAAAAAABCAQCoAAAAAAAAApCXy/wM4XigRUzFnpgAAAABJRU5ErkJggg==;" vertex="1" parent="1">
          <mxGeometry x="496.15999999999997" y="700" width="1057.67" height="621.24" as="geometry" />
        </mxCell>
      </root>
    </mxGraphModel>
  </diagram>
</mxfile>
